<?xml version="1.0" encoding="UTF-8" standalone="no"?>
<svg width="21px" height="21px" viewBox="0 0 21 21" version="1.1" xmlns="http://www.w3.org/2000/svg" xmlns:xlink="http://www.w3.org/1999/xlink">
    <!-- Generator: Sketch 39.1 (31720) - http://www.bohemiancoding.com/sketch -->
    <title>ball football</title>
    <desc>Created with Sketch.</desc>
    <defs></defs>
    <g id="Website-Desktop" stroke="none" stroke-width="1" fill="none" fill-rule="evenodd">
        <g id="Home" transform="translate(-970.000000, -3857.000000)" fill="#FFFFFF">
            <g id="Industrias" transform="translate(0.000000, 3446.000000)">
                <g id="Group-4" transform="translate(250.000000, 120.000000)">
                    <g id="industrias" transform="translate(0.000000, 288.000000)">
                        <g id="ball-football" transform="translate(720.000000, 3.000000)">
                            <g id="Outline_Icons">
                                <g id="Group">
                                    <path d="M20.957,1.39 C20.889,0.68 20.322,0.114 19.611,0.043 C17.106,-0.202 9.853,0.541 5.529,4.865 C1.282,9.112 0.42,16.334 0.678,18.976 C0.748,19.688 1.314,20.253 2.023,20.323 C2.297,20.349 2.628,20.365 3.004,20.365 C6.064,20.365 12.273,19.335 16.136,15.471 C20.404,11.203 21.227,4.141 20.957,1.39 L20.957,1.39 Z M18.61,1 C18.957,1 19.261,1.014 19.512,1.039 C19.749,1.062 19.938,1.25 19.961,1.486 C20.071,2.606 19.967,4.596 19.462,6.808 L14.191,1.537 C15.908,1.148 17.484,1 18.61,1 L18.61,1 Z M2.12,19.327 C1.884,19.305 1.696,19.116 1.673,18.879 C1.584,17.963 1.638,16.464 1.938,14.738 L6.261,19.06 C4.508,19.363 3.001,19.413 2.12,19.327 L2.12,19.327 Z M15.429,14.765 C13.21,16.984 10.146,18.205 7.436,18.823 L2.176,13.562 C2.799,10.84 4.031,7.778 6.236,5.573 C8.141,3.669 10.673,2.506 13.068,1.828 L19.174,7.932 C18.49,10.338 17.322,12.871 15.429,14.765 L15.429,14.765 Z" id="Shape"></path>
                                    <path d="M13.999,6.295 C13.804,6.1 13.487,6.1 13.292,6.295 L12.585,7.002 L11.878,6.295 C11.683,6.1 11.366,6.1 11.171,6.295 C10.976,6.49 10.976,6.807 11.171,7.002 L11.878,7.709 L10.464,9.123 L9.757,8.415 C9.562,8.22 9.245,8.22 9.05,8.415 C8.855,8.61 8.855,8.927 9.05,9.122 L9.757,9.83 L8.343,11.244 L7.636,10.537 C7.441,10.342 7.124,10.342 6.929,10.537 C6.734,10.732 6.734,11.049 6.929,11.244 L7.636,11.951 L6.929,12.658 C6.734,12.853 6.734,13.17 6.929,13.365 C7.027,13.463 7.155,13.511 7.283,13.511 C7.411,13.511 7.539,13.462 7.637,13.365 L8.344,12.658 L9.051,13.365 C9.149,13.463 9.277,13.511 9.405,13.511 C9.533,13.511 9.661,13.462 9.759,13.365 C9.954,13.17 9.954,12.853 9.759,12.658 L9.052,11.951 L10.466,10.537 L11.173,11.244 C11.271,11.342 11.399,11.39 11.527,11.39 C11.655,11.39 11.783,11.341 11.881,11.244 C12.076,11.049 12.076,10.732 11.881,10.537 L11.174,9.83 L12.588,8.416 L13.295,9.122 C13.393,9.22 13.521,9.268 13.649,9.268 C13.777,9.268 13.905,9.219 14.003,9.122 C14.198,8.927 14.198,8.61 14.003,8.415 L13.296,7.709 L14.003,7.002 C14.194,6.807 14.194,6.49 13.999,6.295 L13.999,6.295 Z" id="Shape"></path>
                                </g>
                            </g>
                        </g>
                    </g>
                </g>
            </g>
        </g>
    </g>
</svg>