<?xml version="1.0" encoding="UTF-8" standalone="no"?>
<svg width="18px" height="24px" viewBox="0 0 18 24" version="1.1" xmlns="http://www.w3.org/2000/svg" xmlns:xlink="http://www.w3.org/1999/xlink">
    <!-- Generator: Sketch 39.1 (31720) - http://www.bohemiancoding.com/sketch -->
    <title>book 2</title>
    <desc>Created with Sketch.</desc>
    <defs></defs>
    <g id="Website-Desktop" stroke="none" stroke-width="1" fill="none" fill-rule="evenodd">
        <g id="Home" transform="translate(-970.000000, -3903.000000)" fill="#FFFFFF">
            <g id="Industrias" transform="translate(0.000000, 3446.000000)">
                <g id="Group-4" transform="translate(250.000000, 120.000000)">
                    <g id="industrias" transform="translate(0.000000, 288.000000)">
                        <g id="book-2" transform="translate(720.000000, 49.000000)">
                            <g id="Outline_Icons">
                                <path d="M17.5,4 L17,4 L17,0.5 C17,0.224 16.776,0 16.5,0 L2.5,0 C1.121,0 0,1.122 0,2.5 L0,21.5 C0,22.878 1.121,24 2.5,24 L17.5,24 C17.776,24 18,23.776 18,23.5 L18,4.5 C18,4.224 17.776,4 17.5,4 L17.5,4 Z M2.5,1 L16,1 L16,4 L15,4 L15,2.5 C15,2.224 14.776,2 14.5,2 L2.5,2 C2.224,2 2,2.224 2,2.5 C2,2.776 2.224,3 2.5,3 L14,3 L14,4 L2.5,4 C1.673,4 1,3.327 1,2.5 C1,1.673 1.673,1 2.5,1 L2.5,1 Z M17,23 L2.5,23 C1.673,23 1,22.327 1,21.5 L1,4.499 C1.418,4.813 1.938,5 2.5,5 L17,5 L17,23 L17,23 Z" id="Shape"></path>
                            </g>
                        </g>
                    </g>
                </g>
            </g>
        </g>
    </g>
</svg>