<?xml version="1.0" encoding="UTF-8" standalone="no"?>
<svg width="24px" height="24px" viewBox="0 0 24 24" version="1.1" xmlns="http://www.w3.org/2000/svg" xmlns:xlink="http://www.w3.org/1999/xlink">
    <!-- Generator: Sketch 39.1 (31720) - http://www.bohemiancoding.com/sketch -->
    <title>building 5</title>
    <desc>Created with Sketch.</desc>
    <defs></defs>
    <g id="Website-Desktop" stroke="none" stroke-width="1" fill="none" fill-rule="evenodd">
        <g id="Home" transform="translate(-970.000000, -3948.000000)" fill="#FFFFFF">
            <g id="Industrias" transform="translate(0.000000, 3446.000000)">
                <g id="Group-4" transform="translate(250.000000, 120.000000)">
                    <g id="industrias" transform="translate(0.000000, 288.000000)">
                        <g id="building-5" transform="translate(720.000000, 94.000000)">
                            <g id="Outline_Icons">
                                <g id="Group">
                                    <path d="M23.479,17 L22,17 L22,13 L23.479,13 C23.755,13 23.979,12.776 23.979,12.5 C23.979,12.224 23.755,12 23.479,12 L21.5,12 L18,12 L18,7 L19.5,7 C19.776,7 20,6.776 20,6.5 L20,4.5 C20,4.224 19.776,4 19.5,4 L12,4 L12,3 L14.5,3 C14.776,3 15,2.776 15,2.5 L15,0.5 C15,0.224 14.776,0 14.5,0 L11.5,0 C11.224,0 11,0.224 11,0.5 L11,1 L11,2.5 L11,4 L4.5,4 C4.224,4 4,4.224 4,4.5 L4,6.5 C4,6.776 4.224,7 4.5,7 L6,7 L6,12 L2.5,12 L0.5,12 C0.224,12 0,12.224 0,12.5 C0,12.776 0.224,13 0.5,13 L2,13 L2,17 L0.5,17 C0.224,17 0,17.224 0,17.5 C0,17.776 0.224,18 0.5,18 L2,18 L2,23.5 C2,23.776 2.224,24 2.5,24 L6.5,24 L7,24 L17,24 L17.5,24 L21.5,24 C21.776,24 22,23.776 22,23.5 L22,18 L23.479,18 C23.755,18 23.979,17.776 23.979,17.5 C23.979,17.224 23.755,17 23.479,17 L23.479,17 Z M14,1 L14,2 L12,2 L12,1 L14,1 L14,1 Z M21,13 L21,17 L18,17 L18,13 L21,13 L21,13 Z M5,5 L19,5 L19,6 L17.5,6 L6.5,6 L5,6 L5,5 L5,5 Z M17,7 L17,17 L7,17 L7,7 L17,7 L17,7 Z M3,13 L6,13 L6,17 L3,17 L3,13 L3,13 Z M3,18 L6,18 L6,23 L3,23 L3,18 L3,18 Z M7,23 L7,18 L17,18 L17,23 L7,23 L7,23 Z M21,23 L18,23 L18,18 L21,18 L21,23 L21,23 Z" id="Shape"></path>
                                    <path d="M8.5,11 L10.5,11 C10.776,11 11,10.776 11,10.5 L11,8.5 C11,8.224 10.776,8 10.5,8 L8.5,8 C8.224,8 8,8.224 8,8.5 L8,10.5 C8,10.776 8.224,11 8.5,11 L8.5,11 Z M9,9 L10,9 L10,10 L9,10 L9,9 L9,9 Z" id="Shape"></path>
                                    <path d="M13.5,11 L15.5,11 C15.776,11 16,10.776 16,10.5 L16,8.5 C16,8.224 15.776,8 15.5,8 L13.5,8 C13.224,8 13,8.224 13,8.5 L13,10.5 C13,10.776 13.224,11 13.5,11 L13.5,11 Z M14,9 L15,9 L15,10 L14,10 L14,9 L14,9 Z" id="Shape"></path>
                                    <path d="M8.5,15 L10.5,15 C10.776,15 11,14.776 11,14.5 L11,12.5 C11,12.224 10.776,12 10.5,12 L8.5,12 C8.224,12 8,12.224 8,12.5 L8,14.5 C8,14.776 8.224,15 8.5,15 L8.5,15 Z M9,13 L10,13 L10,14 L9,14 L9,13 L9,13 Z" id="Shape"></path>
                                    <path d="M13.5,15 L15.5,15 C15.776,15 16,14.776 16,14.5 L16,12.5 C16,12.224 15.776,12 15.5,12 L13.5,12 C13.224,12 13,12.224 13,12.5 L13,14.5 C13,14.776 13.224,15 13.5,15 L13.5,15 Z M14,13 L15,13 L15,14 L14,14 L14,13 L14,13 Z" id="Shape"></path>
                                    <path d="M10.5,19 L8.5,19 C8.224,19 8,19.224 8,19.5 L8,21.5 C8,21.776 8.224,22 8.5,22 L10.5,22 C10.776,22 11,21.776 11,21.5 L11,19.5 C11,19.224 10.776,19 10.5,19 L10.5,19 Z M10,21 L9,21 L9,20 L10,20 L10,21 L10,21 Z" id="Shape"></path>
                                    <path d="M15.5,19 L13.5,19 C13.224,19 13,19.224 13,19.5 L13,21.5 C13,21.776 13.224,22 13.5,22 L15.5,22 C15.776,22 16,21.776 16,21.5 L16,19.5 C16,19.224 15.776,19 15.5,19 L15.5,19 Z M15,21 L14,21 L14,20 L15,20 L15,21 L15,21 Z" id="Shape"></path>
                                </g>
                            </g>
                        </g>
                    </g>
                </g>
            </g>
        </g>
    </g>
</svg>