<?xml version="1.0" encoding="UTF-8" standalone="no"?>
<svg width="22px" height="24px" viewBox="0 0 22 24" version="1.1" xmlns="http://www.w3.org/2000/svg" xmlns:xlink="http://www.w3.org/1999/xlink">
    <!-- Generator: Sketch 39.1 (31720) - http://www.bohemiancoding.com/sketch -->
    <title>sign hospital 1</title>
    <desc>Created with Sketch.</desc>
    <defs></defs>
    <g id="Website-Desktop" stroke="none" stroke-width="1" fill="none" fill-rule="evenodd">
        <g id="Home" transform="translate(-490.000000, -3904.000000)" fill="#FFFFFF">
            <g id="Industrias" transform="translate(0.000000, 3446.000000)">
                <g id="Group-4" transform="translate(250.000000, 120.000000)">
                    <g id="industrias" transform="translate(0.000000, 288.000000)">
                        <g id="sign-hospital-1" transform="translate(240.000000, 50.000000)">
                            <g id="Outline_Icons">
                                <g id="Group">
                                    <path d="M20.5,1 L5.5,1 C4.673,1 4,1.673 4,2.5 L4,4 L1,4 L1,0.5 C1,0.224 0.776,0 0.5,0 C0.224,0 0,0.224 0,0.5 L0,23.5 C0,23.776 0.224,24 0.5,24 C0.776,24 1,23.776 1,23.5 L1,16 L4,16 L4,17.5 C4,18.327 4.673,19 5.5,19 L20.5,19 C21.327,19 22,18.327 22,17.5 L22,2.5 C22,1.673 21.327,1 20.5,1 L20.5,1 Z M1,15 L1,5 L4,5 L4,15 L1,15 L1,15 Z M21,17.5 C21,17.776 20.775,18 20.5,18 L5.5,18 C5.225,18 5,17.776 5,17.5 L5,2.5 C5,2.224 5.225,2 5.5,2 L20.5,2 C20.775,2 21,2.224 21,2.5 L21,17.5 L21,17.5 Z" id="Shape"></path>
                                    <path d="M18.5,7 L16,7 L16,4.5 C16,4.224 15.776,4 15.5,4 L10.5,4 C10.224,4 10,4.224 10,4.5 L10,7 L7.5,7 C7.224,7 7,7.224 7,7.5 L7,12.5 C7,12.776 7.224,13 7.5,13 L10,13 L10,15.5 C10,15.776 10.224,16 10.5,16 L15.5,16 C15.776,16 16,15.776 16,15.5 L16,13 L18.5,13 C18.776,13 19,12.776 19,12.5 L19,7.5 C19,7.224 18.776,7 18.5,7 L18.5,7 Z M18,12 L15.5,12 C15.224,12 15,12.224 15,12.5 L15,15 L11,15 L11,12.5 C11,12.224 10.776,12 10.5,12 L8,12 L8,8 L10.5,8 C10.776,8 11,7.776 11,7.5 L11,5 L15,5 L15,7.5 C15,7.776 15.224,8 15.5,8 L18,8 L18,12 L18,12 Z" id="Shape"></path>
                                </g>
                            </g>
                        </g>
                    </g>
                </g>
            </g>
        </g>
    </g>
</svg>