<?xml version="1.0" encoding="UTF-8" standalone="no"?>
<svg width="24px" height="24px" viewBox="0 0 24 24" version="1.1" xmlns="http://www.w3.org/2000/svg" xmlns:xlink="http://www.w3.org/1999/xlink">
    <!-- Generator: Sketch 39.1 (31720) - http://www.bohemiancoding.com/sketch -->
    <title>mobile-phone</title>
    <desc>Created with Sketch.</desc>
    <defs></defs>
    <g id="Website-Desktop" stroke="none" stroke-width="1" fill="none" fill-rule="evenodd">
        <g id="Home" transform="translate(-250.000000, -3902.000000)" fill="#FFFFFF">
            <g id="Industrias" transform="translate(0.000000, 3446.000000)">
                <g id="Group-4" transform="translate(250.000000, 120.000000)">
                    <g id="industrias" transform="translate(0.000000, 288.000000)">
                        <g id="mobile-phone" transform="translate(0.000000, 48.000000)">
                            <g id="Outline_Icons">
                                <g id="Group">
                                    <path d="M11.5,14 C11.224,14 11,14.224 11,14.5 L11,19 L1,19 L1,9 L5.5,9 C5.776,9 6,8.776 6,8.5 C6,8.224 5.776,8 5.5,8 L1,8 L1,6.5 C1,5.673 1.673,5 2.5,5 L5.5,5 C5.776,5 6,4.776 6,4.5 C6,4.224 5.776,4 5.5,4 L2.5,4 C1.122,4 0,5.121 0,6.5 L0,21.5 C0,22.879 1.122,24 2.5,24 L9.5,24 C10.878,24 12,22.879 12,21.5 L12,14.5 C12,14.224 11.776,14 11.5,14 L11.5,14 Z M9.5,23 L2.5,23 C1.673,23 1,22.327 1,21.5 L1,20 L11,20 L11,21.5 C11,22.327 10.327,23 9.5,23 L9.5,23 Z" id="Shape"></path>
                                    <path d="M5.5,6 L4.5,6 C4.224,6 4,6.224 4,6.5 C4,6.776 4.224,7 4.5,7 L5.5,7 C5.776,7 6,6.776 6,6.5 C6,6.224 5.776,6 5.5,6 L5.5,6 Z" id="Shape"></path>
                                    <path d="M22,0 L10,0 C8.897,0 8,0.897 8,2 L8,8 C8,9.103 8.897,10 10,10 L13,10 L13,12.5 C13,12.702 13.122,12.885 13.309,12.962 C13.371,12.987 13.436,13 13.5,13 C13.63,13 13.758,12.949 13.854,12.854 L16.707,10 L22,10 C23.103,10 24,9.103 24,8 L24,2 C24,0.897 23.103,0 22,0 L22,0 Z M23,8 C23,8.552 22.551,9 22,9 L16.5,9 C16.367,9 16.24,9.053 16.146,9.146 L14,11.293 L14,9.5 C14,9.224 13.776,9 13.5,9 L10,9 C9.449,9 9,8.552 9,8 L9,2 C9,1.448 9.449,1 10,1 L22,1 C22.551,1 23,1.448 23,2 L23,8 L23,8 Z" id="Shape"></path>
                                    <circle id="Oval" cx="16.5" cy="4.5" r="0.5"></circle>
                                    <circle id="Oval" cx="19.5" cy="4.5" r="0.5"></circle>
                                    <circle id="Oval" cx="13.531" cy="4.5" r="0.5"></circle>
                                    <circle id="Oval" cx="6" cy="21.5" r="1"></circle>
                                </g>
                            </g>
                        </g>
                    </g>
                </g>
            </g>
        </g>
    </g>
</svg>