<?xml version="1.0" encoding="UTF-8" standalone="no"?>
<svg width="24px" height="24px" viewBox="0 0 24 24" version="1.1" xmlns="http://www.w3.org/2000/svg" xmlns:xlink="http://www.w3.org/1999/xlink">
    <!-- Generator: Sketch 39.1 (31720) - http://www.bohemiancoding.com/sketch -->
    <title>party popper</title>
    <desc>Created with Sketch.</desc>
    <defs></defs>
    <g id="Website-Desktop" stroke="none" stroke-width="1" fill="none" fill-rule="evenodd">
        <g id="Home" transform="translate(-251.000000, -3854.000000)" fill="#FFFFFF">
            <g id="Industrias" transform="translate(0.000000, 3446.000000)">
                <g id="Group-4" transform="translate(250.000000, 120.000000)">
                    <g id="industrias" transform="translate(0.000000, 288.000000)">
                        <g id="party-popper">
                            <g id="Outline_Icons">
                                <g id="Group">
                                    <path d="M8.203,8.492 C7.983,8.712 7.856,8.995 7.772,9.303 L7.762,9.298 L1.191,21.606 C0.852,22.242 0.966,23.012 1.476,23.523 C1.79,23.837 2.205,24.002 2.624,24.002 C2.886,24.001 3.149,23.938 3.394,23.808 L15.69,17.251 C16.011,17.166 16.294,17.021 16.512,16.802 C17.713,15.601 16.833,12.907 14.465,10.538 C12.194,8.271 9.37,7.323 8.203,8.492 L8.203,8.492 Z M2.924,22.926 C2.68,23.058 2.383,23.015 2.185,22.817 C1.988,22.62 1.944,22.323 2.075,22.078 L7.889,11.186 C8.255,12.306 9.067,13.572 10.25,14.756 C11.4,15.906 12.684,16.735 13.831,17.11 L2.924,22.926 L2.924,22.926 Z M15.806,16.096 C15.647,16.255 15.402,16.336 15.077,16.336 C13.963,16.336 12.347,15.438 10.957,14.049 C8.927,12.017 8.249,9.861 8.91,9.199 C9.069,9.04 9.314,8.96 9.638,8.96 C10.751,8.96 12.368,9.857 13.759,11.246 C15.79,13.278 16.468,15.434 15.806,16.096 L15.806,16.096 Z" id="Shape"></path>
                                    <path d="M24.818,11.863 C22.69,9.736 19.225,9.736 17.093,11.863 C16.898,12.057 16.898,12.375 17.093,12.57 C17.288,12.765 17.605,12.765 17.8,12.57 C19.54,10.832 22.372,10.834 24.111,12.57 C24.209,12.668 24.337,12.716 24.465,12.716 C24.593,12.716 24.721,12.667 24.819,12.57 C25.014,12.375 25.014,12.059 24.818,11.863 L24.818,11.863 Z" id="Shape"></path>
                                    <path d="M12.415,7.893 C12.513,7.991 12.641,8.039 12.769,8.039 C12.897,8.039 13.025,7.99 13.123,7.893 C14.155,6.862 14.724,5.491 14.724,4.032 C14.724,2.573 14.154,1.2 13.122,0.168 C12.927,-0.027 12.61,-0.027 12.415,0.168 C12.22,0.363 12.22,0.68 12.415,0.875 C13.258,1.719 13.723,2.84 13.723,4.031 C13.723,5.222 13.258,6.343 12.415,7.185 C12.22,7.381 12.22,7.697 12.415,7.893 L12.415,7.893 Z" id="Shape"></path>
                                    <path d="M19.075,8.75 C19.128,8.75 19.18,8.742 19.233,8.725 L22.742,7.557 C23.004,7.469 23.145,7.187 23.058,6.924 C22.97,6.662 22.687,6.521 22.425,6.608 L18.916,7.776 C18.654,7.864 18.513,8.146 18.6,8.409 C18.671,8.617 18.865,8.75 19.075,8.75 L19.075,8.75 Z" id="Shape"></path>
                                    <path d="M16.578,6.387 C16.631,6.405 16.683,6.412 16.736,6.412 C16.945,6.412 17.14,6.279 17.211,6.07 L18.381,2.56 C18.468,2.298 18.326,2.015 18.065,1.927 C17.805,1.842 17.521,1.982 17.432,2.243 L16.262,5.753 C16.175,6.016 16.316,6.299 16.578,6.387 L16.578,6.387 Z" id="Shape"></path>
                                    <path d="M16.566,9.252 C16.833,9.252 17.085,9.148 17.273,8.959 C17.663,8.569 17.663,7.935 17.273,7.543 C16.896,7.166 16.237,7.165 15.858,7.544 C15.469,7.935 15.469,8.569 15.859,8.959 C16.048,9.147 16.3,9.252 16.566,9.252 L16.566,9.252 Z" id="Shape"></path>
                                    <path d="M9.134,6.327 C9.402,6.327 9.653,6.223 9.841,6.033 C10.231,5.643 10.231,5.009 9.841,4.619 C9.464,4.242 8.804,4.242 8.427,4.619 C8.037,5.009 8.037,5.643 8.426,6.032 C8.615,6.223 8.866,6.327 9.134,6.327 L9.134,6.327 Z" id="Shape"></path>
                                    <path d="M20.908,5.095 C21.175,5.095 21.426,4.991 21.615,4.803 C22.005,4.413 22.005,3.779 21.615,3.389 C21.238,3.012 20.578,3.012 20.201,3.389 C19.811,3.779 19.811,4.413 20.202,4.804 C20.391,4.991 20.642,5.095 20.908,5.095 L20.908,5.095 Z" id="Shape"></path>
                                    <path d="M19.538,13.393 C19.148,13.783 19.148,14.417 19.538,14.807 C19.726,14.995 19.978,15.1 20.245,15.1 C20.512,15.1 20.764,14.996 20.952,14.807 C21.342,14.417 21.342,13.783 20.952,13.393 C20.575,13.016 19.915,13.016 19.538,13.393 L19.538,13.393 Z" id="Shape"></path>
                                </g>
                            </g>
                        </g>
                    </g>
                </g>
            </g>
        </g>
    </g>
</svg>