<?xml version="1.0" encoding="UTF-8" standalone="no"?>
<svg width="24px" height="22px" viewBox="0 0 24 22" version="1.1" xmlns="http://www.w3.org/2000/svg" xmlns:xlink="http://www.w3.org/1999/xlink">
    <!-- Generator: Sketch 39.1 (31720) - http://www.bohemiancoding.com/sketch -->
    <title>piggy bank</title>
    <desc>Created with Sketch.</desc>
    <defs></defs>
    <g id="Website-Desktop" stroke="none" stroke-width="1" fill="none" fill-rule="evenodd">
        <g id="Home" transform="translate(-250.000000, -3952.000000)" fill="#FFFFFF">
            <g id="Industrias" transform="translate(0.000000, 3446.000000)">
                <g id="Group-4" transform="translate(250.000000, 120.000000)">
                    <g id="industrias" transform="translate(0.000000, 288.000000)">
                        <g id="piggy-bank" transform="translate(0.000000, 98.000000)">
                            <g id="Outline_Icons">
                                <g id="Group">
                                    <path d="M11.467,4.518 C11.192,4.537 10.983,4.775 11.001,5.05 C11.02,5.326 11.268,5.534 11.533,5.516 C13.213,5.409 14.864,5.897 16.2,6.9 C16.29,6.967 16.396,7 16.5,7 C16.651,7 16.802,6.931 16.899,6.8 C17.065,6.579 17.021,6.266 16.799,6.1 C15.272,4.954 13.383,4.394 11.467,4.518 L11.467,4.518 Z" id="Shape"></path>
                                    <path d="M24,8.5 C24,8.224 23.776,8 23.5,8 C23.224,8 23,8.224 23,8.5 C23,9.164 22.563,9.722 21.965,9.918 C21.611,5.503 17.283,2 12,2 C11.272,2 10.528,2.074 9.783,2.219 C9.04,1.15 7.813,0.5 6.5,0.5 C5.803,0.5 5.111,0.687 4.5,1.039 C4.346,1.128 4.25,1.293 4.25,1.472 C4.25,1.651 4.345,1.816 4.499,1.905 C5.2,2.311 5.711,2.992 5.908,3.768 C3.936,5.059 2.593,6.933 2.156,9 L0.5,9 C0.224,9 0,9.224 0,9.5 L0,13.5 C0,13.776 0.224,14 0.5,14 L2.89,14 C3.769,15.657 5.227,16.974 7,17.845 L7,21 C7,21.276 7.224,21.5 7.5,21.5 C7.776,21.5 8,21.276 8,21 L8,18.284 C9.236,18.742 10.589,19 12,19 C13.422,19 14.773,18.742 16,18.285 L16,21 C16,21.276 16.224,21.5 16.5,21.5 C16.776,21.5 17,21.276 17,21 L17,17.85 C19.839,16.45 21.789,13.9 21.973,10.953 C23.126,10.73 24,9.716 24,8.5 L24,8.5 Z M12,18 C8.305,18 5.026,16.148 3.647,13.283 C3.564,13.11 3.39,13 3.197,13 L1,13 L1,10 L2.574,10 C2.822,10 3.032,9.818 3.068,9.574 C3.372,7.531 4.705,5.658 6.723,4.436 C6.896,4.333 6.988,4.137 6.96,3.938 C6.831,3.029 6.403,2.212 5.75,1.597 C7.039,1.257 8.453,1.864 9.11,3.026 C9.218,3.217 9.436,3.318 9.656,3.268 C10.445,3.09 11.233,3 12,3 C16.963,3 21,6.364 21,10.5 C21,14.636 16.963,18 12,18 L12,18 Z" id="Shape"></path>
                                    <circle id="Oval" cx="6" cy="9" r="1"></circle>
                                </g>
                            </g>
                        </g>
                    </g>
                </g>
            </g>
        </g>
    </g>
</svg>