<?xml version="1.0" encoding="UTF-8" standalone="no"?>
<svg width="24px" height="24px" viewBox="0 0 24 24" version="1.1" xmlns="http://www.w3.org/2000/svg" xmlns:xlink="http://www.w3.org/1999/xlink">
    <!-- Generator: Sketch 39.1 (31720) - http://www.bohemiancoding.com/sketch -->
    <title>shopping bag 3</title>
    <desc>Created with Sketch.</desc>
    <defs></defs>
    <g id="Website-Desktop" stroke="none" stroke-width="1" fill="none" fill-rule="evenodd">
        <g id="Home" transform="translate(-490.000000, -3854.000000)" fill="#FFFFFF">
            <g id="Industrias" transform="translate(0.000000, 3446.000000)">
                <g id="Group-4" transform="translate(250.000000, 120.000000)">
                    <g id="industrias" transform="translate(0.000000, 288.000000)">
                        <g id="shopping-bag-3" transform="translate(240.000000, 0.000000)">
                            <g id="Outline_Icons">
                                <path d="M23.5,4 L19,4 L19,2.5 C19,1.122 17.879,0 16.5,0 L13.5,0 C12.121,0 11,1.122 11,2.5 L11,4 L8,4 L8,2.5 C8,1.673 8.673,1 9.5,1 L10.5,1 C10.776,1 11,0.776 11,0.5 C11,0.224 10.776,0 10.5,0 L9.5,0 C8.121,0 7,1.122 7,2.5 L7,4 L0.5,4 C0.224,4 0,4.224 0,4.5 L0,23.5 C0,23.776 0.224,24 0.5,24 L7.5,24 L23.5,24 C23.776,24 24,23.776 24,23.5 L24,4.5 C24,4.224 23.776,4 23.5,4 L23.5,4 Z M12,2.5 C12,1.673 12.673,1 13.5,1 L16.5,1 C17.327,1 18,1.673 18,2.5 L18,4 L12,4 L12,2.5 L12,2.5 Z M1,5 L3,5 L3,19.835 L1.688,21.147 C1.493,21.342 1.493,21.659 1.688,21.854 C1.883,22.049 2.2,22.049 2.395,21.854 L3.541,20.708 L4.687,21.854 C4.786,21.951 4.914,22 5.042,22 C5.17,22 5.298,21.951 5.396,21.854 C5.591,21.659 5.591,21.342 5.396,21.147 L4,19.751 L4,5 L7,5 L7,23 L1,23 L1,5 L1,5 Z M23,23 L8,23 L8,5 L23,5 L23,23 L23,23 Z" id="Shape"></path>
                            </g>
                        </g>
                    </g>
                </g>
            </g>
        </g>
    </g>
</svg>