<?xml version="1.0" encoding="UTF-8" standalone="no"?>
<svg width="24px" height="18px" viewBox="0 0 24 18" version="1.1" xmlns="http://www.w3.org/2000/svg" xmlns:xlink="http://www.w3.org/1999/xlink">
    <!-- Generator: Sketch 39.1 (31720) - http://www.bohemiancoding.com/sketch -->
    <title>truck 1</title>
    <desc>Created with Sketch.</desc>
    <defs></defs>
    <g id="Website-Desktop" stroke="none" stroke-width="1" fill="none" fill-rule="evenodd">
        <g id="Home" transform="translate(-730.000000, -3907.000000)" fill="#FFFFFF">
            <g id="Industrias" transform="translate(0.000000, 3446.000000)">
                <g id="Group-4" transform="translate(250.000000, 120.000000)">
                    <g id="industrias" transform="translate(0.000000, 288.000000)">
                        <g id="truck-1" transform="translate(480.000000, 53.000000)">
                            <g id="Outline_Icons">
                                <g id="Group">
                                    <path d="M8,12 C6.346,12 5,13.346 5,15 C5,16.654 6.346,18 8,18 C9.654,18 11,16.654 11,15 C11,13.346 9.654,12 8,12 L8,12 Z M8,17 C6.897,17 6,16.103 6,15 C6,13.897 6.897,13 8,13 C9.103,13 10,13.897 10,15 C10,16.103 9.103,17 8,17 L8,17 Z" id="Shape"></path>
                                    <path d="M19,12 C17.346,12 16,13.346 16,15 C16,16.654 17.346,18 19,18 C20.654,18 22,16.654 22,15 C22,13.346 20.654,12 19,12 L19,12 Z M19,17 C17.897,17 17,16.103 17,15 C17,13.897 17.897,13 19,13 C20.103,13 21,13.897 21,15 C21,16.103 20.103,17 19,17 L19,17 Z" id="Shape"></path>
                                    <path d="M23.5,0 L8.5,0 C8.224,0 8,0.224 8,0.5 L8,4 L4.5,4 C2.019,4 0,6.019 0,8.5 L0,15.5 C0,15.776 0.224,16 0.5,16 L3.5,16 C3.776,16 4,15.776 4,15.5 C4,15.224 3.776,15 3.5,15 L1,15 L1,14 L4,14 C4.276,14 4.5,13.776 4.5,13.5 C4.5,13.224 4.276,13 4,13 L1,13 L1,8.5 C1,6.57 2.57,5 4.5,5 L8,5 L8,10.5 C8,10.776 8.224,11 8.5,11 C8.776,11 9,10.776 9,10.5 L9,1 L23,1 L23,14.5 C23,14.776 23.224,15 23.5,15 C23.776,15 24,14.776 24,14.5 L24,0.5 C24,0.224 23.776,0 23.5,0 L23.5,0 Z" id="Shape"></path>
                                    <path d="M14.5,14 L12.5,14 C12.224,14 12,14.224 12,14.5 C12,14.776 12.224,15 12.5,15 L14.5,15 C14.776,15 15,14.776 15,14.5 C15,14.224 14.776,14 14.5,14 L14.5,14 Z" id="Shape"></path>
                                    <path d="M7,6.5 C7,6.224 6.776,6 6.5,6 L4,6 C2.897,6 2,6.897 2,8 L2,10.5 C2,10.776 2.224,11 2.5,11 C2.776,11 3,10.776 3,10.5 L3,8 C3,7.449 3.448,7 4,7 L6.5,7 C6.776,7 7,6.776 7,6.5 L7,6.5 Z" id="Shape"></path>
                                </g>
                            </g>
                        </g>
                    </g>
                </g>
            </g>
        </g>
    </g>
</svg>