<?xml version="1.0" encoding="UTF-8" standalone="no"?>
<svg width="24px" height="24px" viewBox="0 0 24 24" version="1.1" xmlns="http://www.w3.org/2000/svg" xmlns:xlink="http://www.w3.org/1999/xlink">
    <!-- Generator: Sketch 39.1 (31720) - http://www.bohemiancoding.com/sketch -->
    <title>umbrella open</title>
    <desc>Created with Sketch.</desc>
    <defs></defs>
    <g id="Website-Desktop" stroke="none" stroke-width="1" fill="none" fill-rule="evenodd">
        <g id="Home" transform="translate(-730.000000, -3952.000000)" fill="#FFFFFF">
            <g id="Industrias" transform="translate(0.000000, 3446.000000)">
                <g id="Group-4" transform="translate(250.000000, 120.000000)">
                    <g id="industrias" transform="translate(0.000000, 288.000000)">
                        <g id="umbrella-open" transform="translate(480.000000, 98.000000)">
                            <g id="Outline_Icons">
                                <path d="M19.718553,5.465 C17.693553,3.35 14.971553,2.147 12.012553,2.024 L12.012553,0.5 C12.012553,0.224 11.788553,0 11.512553,0 C11.236553,0 11.012553,0.224 11.012553,0.5 L11.012553,2.024 C8.05455297,2.148 5.33155297,3.352 3.30655297,5.467 C1.06255297,7.812 -0.137447029,11.113 0.012552971,14.522 C0.024552971,14.794 0.222552971,15.032 0.524552971,15 C0.797552971,14.993 1.01455297,14.77 1.01255297,14.497 C1.01255297,14.491 1.02055297,13.935 1.44155297,13.513 C1.77855297,13.173 2.30355297,13 2.99955297,13 C4.92055297,13 5.01055297,14.354 5.01455297,14.504 C5.01655297,14.756 5.20555297,14.967 5.45555297,14.996 C5.47555297,14.999 5.49455297,15 5.51455297,15 C5.74155297,15 5.94255297,14.846 5.99855297,14.621 C6.00355297,14.605 6.42955297,13 8.51455297,13 C10.419553,13 10.931553,14.319 11.012553,14.568 L11.012553,22 C11.012553,23.066 11.892553,23.625 12.762553,23.625 C13.632553,23.625 14.512553,23.066 14.512553,22 C14.512553,21.724 14.288553,21.5 14.012553,21.5 C13.736553,21.5 13.512553,21.724 13.512553,22 C13.512553,22.607 12.839553,22.625 12.762553,22.625 C12.685553,22.625 12.012553,22.607 12.012553,22 L12.012553,14.634 C12.220553,14.282 13.075553,13 14.514553,13 C16.172553,13 17.059553,14.708 17.068553,14.725 C17.162553,14.91 17.367553,15.021 17.567553,14.996 C17.774553,14.975 17.945553,14.827 17.999553,14.627 C18.015553,14.56 18.448553,13 20.025553,13 C21.593553,13 22.007553,14.546 22.026553,14.62 C22.086553,14.86 22.313553,15.008 22.560553,14.998 C22.808553,14.974 23.000553,14.77 23.011553,14.522 C23.162553,11.111 21.962553,7.811 19.718553,5.465 L19.718553,5.465 Z M20.025553,12 C18.714553,12 17.881553,12.748 17.424553,13.481 C16.879553,12.824 15.916553,12 14.514553,12 C13.097553,12 12.129553,12.841 11.587553,13.502 C11.080553,12.762 10.114553,12 8.51455297,12 C7.09855297,12 6.17855297,12.597 5.63455297,13.247 C5.22155297,12.589 4.42355297,12 2.99955297,12 C2.22255297,12 1.57955297,12.173 1.08155297,12.517 C1.36455297,10.093 2.37955297,7.884 4.03055297,6.159 C5.97855297,4.122 8.63655297,3 11.514553,3 C14.391553,3 17.048553,4.121 18.995553,6.156 C20.661553,7.897 21.699553,10.218 21.959553,12.706 C21.491553,12.3 20.856553,12 20.025553,12 L20.025553,12 Z" id="Shape"></path>
                            </g>
                        </g>
                    </g>
                </g>
            </g>
        </g>
    </g>
</svg>