<?xml version="1.0" encoding="UTF-8" standalone="no"?>
<svg width="97px" height="32px" viewBox="0 0 97 32" version="1.1" xmlns="http://www.w3.org/2000/svg" xmlns:xlink="http://www.w3.org/1999/xlink">
    <!-- Generator: Sketch 40.1 (33804) - http://www.bohemiancoding.com/sketch -->
    <title>Google</title>
    <desc>Created with Sketch.</desc>
    <defs>
        <path d="M0.00583166333,12.0221464 C0.206314573,5.7529317 5.55262877,0.0411707317 12.4251363,0.0411707317 C17.9268246,0.0411707317 20.9431553,3.41209756 20.9431553,3.41209756 L18.592995,5.85492683 C18.592995,5.85492683 16.3505261,3.41980488 12.5452685,3.41980488 C7.6128477,3.41980488 3.67919639,7.34712195 3.67919639,12.4466341 C3.67919639,17.681561 7.80597295,21.4165854 12.5349659,21.4165854 C16.2311713,21.4165854 20.1470361,19.4016585 20.5432976,14.6770732 L12.5213587,14.6770732 L12.5213587,11.308 L23.8324529,11.308 L23.8324529,11.3072195 C23.8324529,11.3072195 24.0371443,12.1254634 24.0371443,13.5418537 C24.0371443,20.2541463 19.2050281,24.7934634 12.6037796,24.7934634 C5.24504476,24.7934634 0.200366466,18.9052875 0.00583166333,12.7550057 L0.00583166333,12.0221464 L0.00583166333,12.0221464 L0.00583166333,12.0221464 Z" id="path-1"></path>
        <path d="M8.0683978,3.2124878 C10.3508136,3.2124878 12.5135832,5.06458537 12.5135832,8.04946341 C12.5135832,10.9705366 10.3598527,12.8757073 8.0579008,12.8757073 C5.52851403,12.8757073 3.53272445,10.8422439 3.53272445,8.02614634 C3.53272445,5.27063415 5.50372946,3.2124878 8.0683978,3.2124878 L8.0683978,3.2124878 Z M8.02223046,0.0875121951 C3.38090681,0.0875121951 0.0546232465,3.72985366 0.0546232465,7.9777561 C0.0546232465,12.2885854 3.28089379,15.998439 8.07665932,15.998439 C12.4182355,15.998439 15.9749669,12.6676098 15.9749669,8.07034146 C15.9749669,2.80136585 11.8375962,0.0875121951 8.02223046,0.0875121951 L8.02223046,0.0875121951 Z" id="path-3"></path>
        <path d="M8.096001,3.2124878 C10.3784168,3.2124878 12.5413808,5.06458537 12.5413808,8.04946341 C12.5413808,10.9705366 10.3876503,12.8757073 8.08540681,12.8757073 C5.55602004,12.8757073 3.56061924,10.8422439 3.56061924,8.02614634 C3.56061924,5.27063415 5.53133267,3.2124878 8.096001,3.2124878 L8.096001,3.2124878 Z M8.04983367,0.0875121951 C3.40851002,0.0875121951 0.0822264529,3.72985366 0.0822264529,7.9777561 C0.0822264529,12.2885854 3.30849699,15.998439 8.10455411,15.998439 C12.4457415,15.998439 16.0025701,12.6676098 16.0025701,8.07034146 C16.0025701,2.80136585 11.865491,0.0875121951 8.04983367,0.0875121951 L8.04983367,0.0875121951 Z" id="path-5"></path>
        <path d="M7.95681864,3.21463415 C10.0455261,3.21463415 12.1903146,5.00487805 12.1903146,8.06185366 C12.1903146,11.1692683 10.049997,12.8819512 7.9106513,12.8819512 C5.63960721,12.8819512 3.52630962,11.0308293 3.52630962,8.09131707 C3.52630962,5.03717073 5.72105611,3.21463415 7.95681864,3.21463415 L7.95681864,3.21463415 Z M7.64842084,0.096 C3.38839078,0.096 0.0396553106,3.84136585 0.0396553106,8.04507317 C0.0396553106,12.833561 3.92179359,16.0090732 7.57494188,16.0090732 C9.83393387,16.0090732 11.0350621,15.1089756 11.9216693,14.076 L11.9216693,15.6446829 C11.9216693,18.3893659 10.2615892,20.032878 7.75543186,20.032878 C5.33461122,20.032878 4.12036172,18.2260488 3.69824649,17.2007805 L0.652271543,18.4788293 C1.73297595,20.7724878 3.90818637,23.1640976 7.7807024,23.1640976 C12.0165311,23.1640976 15.2448427,20.4862439 15.2448427,14.8696585 L15.2448427,0.574243902 L11.9218637,0.574243902 L11.9218637,1.92195122 C10.9002535,0.816682927 9.50288978,0.0962926829 7.64842084,0.0962926829 L7.64842084,0.096 L7.64842084,0.096 Z" id="path-7"></path>
        <path d="M7.60895992,3.13668293 C9.05715631,3.13668293 10.0991774,3.90946341 10.5418978,4.83590244 L3.44486072,7.81346341 C3.13879559,5.50819512 5.31449198,3.13668293 7.60895992,3.13668293 L7.60895992,3.13668293 Z M7.47055511,0.0770731707 C3.45205311,0.0770731707 0.0778527054,3.2862439 0.0778527054,8.02195122 C0.0778527054,13.0327805 3.83878958,16.0046829 7.85651403,16.0046829 C11.2098176,16.0046829 13.2679088,14.163122 14.4961543,12.5134634 L11.7564389,10.6836098 C11.0453647,11.791122 9.85687174,12.8733659 7.87323146,12.8733659 C5.64524449,12.8733659 4.62071844,11.648878 3.98603908,10.4623415 L14.6131764,6.03609756 L14.061501,4.73912195 C13.0348367,2.19882927 10.6400641,0.0773658537 7.47084669,0.0773658537 L7.47055511,0.0770731707 L7.47055511,0.0770731707 Z" id="path-9"></path>
        <polygon id="path-11" points="0.065509018 23.5323902 3.55624549 23.5323902 3.55624549 0.0833170732 0.065509018 0.0833170732"></polygon>
    </defs>
    <g id="Website-Desktop" stroke="none" stroke-width="1" fill="none" fill-rule="evenodd">
        <g id="Home" transform="translate(-620.000000, -736.000000)">
            <g id="company-logos" transform="translate(0.000000, 700.000000)">
                <g id="Google" transform="translate(620.000000, 36.000000)">
                    <g id="Group-3">
                        <mask id="mask-2" fill="white">
                            <use xlink:href="#path-1"></use>
                        </mask>
                        <use id="Clip-2" fill="#B5BBC2" xlink:href="#path-1"></use>
                    </g>
                    <g id="Group-6" transform="translate(25.076152, 8.780488)">
                        <mask id="mask-4" fill="white">
                            <use xlink:href="#path-3"></use>
                        </mask>
                        <use id="Clip-5" fill="#B5BBC2" xlink:href="#path-3"></use>
                    </g>
                    <g id="Group-9" transform="translate(42.376754, 8.780488)">
                        <mask id="mask-6" fill="white">
                            <use xlink:href="#path-5"></use>
                        </mask>
                        <use id="Clip-8" fill="#B5BBC2" xlink:href="#path-5"></use>
                    </g>
                    <g id="Group-12" transform="translate(59.774549, 8.780488)">
                        <mask id="mask-8" fill="white">
                            <use xlink:href="#path-7"></use>
                        </mask>
                        <use id="Clip-11" fill="#B5BBC2" xlink:href="#path-7"></use>
                    </g>
                    <g id="Group-15" transform="translate(82.323647, 8.780488)">
                        <mask id="mask-10" fill="white">
                            <use xlink:href="#path-9"></use>
                        </mask>
                        <use id="Clip-14" fill="#B5BBC2" xlink:href="#path-9"></use>
                    </g>
                    <g id="Group-18" transform="translate(77.269539, 0.780488)">
                        <mask id="mask-12" fill="white">
                            <use xlink:href="#path-11"></use>
                        </mask>
                        <use id="Clip-17" fill="#B5BBC2" xlink:href="#path-11"></use>
                    </g>
                </g>
            </g>
        </g>
    </g>
</svg>