<?xml version="1.0" encoding="UTF-8" standalone="no"?>
<svg width="12px" height="12px" viewBox="0 0 12 12" version="1.1" xmlns="http://www.w3.org/2000/svg" xmlns:xlink="http://www.w3.org/1999/xlink">
    <!-- Generator: Sketch 39.1 (31720) - http://www.bohemiancoding.com/sketch -->
    <title>Facebook</title>
    <desc>Created with Sketch.</desc>
    <defs></defs>
    <g id="Symbols" stroke="none" stroke-width="1" fill="none" fill-rule="evenodd">
        <g id="Footer" transform="translate(-1087.000000, -78.000000)" fill="#B1B8C1">
            <g id="Social">
                <g id="Facebook">
                    <path d="M1098.33771,78 L1087.66233,78 C1087.29643,78 1087,78.2964323 1087,78.6622854 L1087,89.3377146 C1087,89.7034778 1087.29643,90 1087.66233,90 L1093.40958,90 L1093.40958,85.3529866 L1091.84576,85.3529866 L1091.84576,83.5419305 L1093.40958,83.5419305 L1093.40958,82.2063441 C1093.40958,80.6563804 1094.35621,79.8124049 1095.73892,79.8124049 C1096.40121,79.8124049 1096.97042,79.8617279 1097.13638,79.8837591 L1097.13638,81.5035482 L1096.17734,81.5039978 C1095.4254,81.5039978 1095.27981,81.8613082 1095.27981,82.3856512 L1095.27981,83.5419305 L1097.07316,83.5419305 L1096.83963,85.3529866 L1095.27981,85.3529866 L1095.27981,90 L1098.33771,90 C1098.70348,90 1099,89.7034778 1099,89.3377146 L1099,78.6622854 C1099,78.2964323 1098.70348,78 1098.33771,78"></path>
                </g>
            </g>
        </g>
    </g>
</svg>