<?xml version="1.0" encoding="UTF-8" standalone="no"?>
<svg width="12px" height="12px" viewBox="0 0 12 12" version="1.1" xmlns="http://www.w3.org/2000/svg" xmlns:xlink="http://www.w3.org/1999/xlink">
    <!-- Generator: Sketch 39.1 (31720) - http://www.bohemiancoding.com/sketch -->
    <title>Linkedin</title>
    <desc>Created with Sketch.</desc>
    <defs></defs>
    <g id="Symbols" stroke="none" stroke-width="1" fill="none" fill-rule="evenodd">
        <g id="Footer" transform="translate(-1178.000000, -78.000000)" fill="#B1B8C1">
            <g id="Social">
                <g id="Linkedin">
                    <path d="M1178,89.1403947 C1178,89.6150136 1178.39701,90 1178.88678,90 L1189.11322,90 C1189.60297,90 1190,89.6150136 1190,89.1403947 L1190,78.8596053 C1190,78.3848261 1189.60297,78 1189.11322,78 L1178.88678,78 C1178.39701,78 1178,78.3848261 1178,78.8596053 L1178,89.1403947 L1178,89.1403947 Z M1181.63757,79.9547562 L1181.63757,85.3734283 L1179.82508,85.3734283 L1179.82508,79.9547562 L1181.63757,79.9547562 L1181.63757,79.9547562 Z M1180.73132,86.1132565 C1181.36337,86.1132565 1181.75677,86.5293497 1181.75677,87.0493459 C1181.74499,87.5810473 1181.36337,87.9855957 1180.74331,87.9855957 C1180.12331,87.9855957 1179.71793,87.5810473 1179.71793,87.0493459 C1179.71793,86.5293497 1180.11125,86.1132565 1180.71951,86.1132565 L1180.73128,86.1132565 L1180.73132,86.1132565 Z M1182.64048,79.9547562 L1184.45296,79.9547562 L1184.45296,82.9807721 C1184.45296,83.1427197 1184.46474,83.304507 1184.5126,83.4202755 C1184.64362,83.7438501 1184.94185,84.0789695 1185.44256,84.0789695 C1186.09841,84.0789695 1186.36077,83.5820628 1186.36077,82.8536191 L1186.36077,79.9547562 L1188.1731,79.9547562 L1188.1731,83.0617459 C1188.1731,84.7261187 1187.27891,85.5005812 1186.08644,85.5005812 C1185.10865,85.5005812 1184.6794,84.9574954 1184.4409,84.5875813 L1184.45301,84.5875813 L1184.45301,85.3734283 L1182.64053,85.3734283 C1182.66431,84.8649768 1182.64053,79.9547562 1182.64053,79.9547562 L1182.64048,79.9547562 Z" transform="translate(1184.000000, 84.000000) scale(1, -1) translate(-1184.000000, -84.000000) "></path>
                </g>
            </g>
        </g>
    </g>
</svg>