<?xml version="1.0" encoding="UTF-8" standalone="no"?>
<svg width="15px" height="12px" viewBox="0 0 15 12" version="1.1" xmlns="http://www.w3.org/2000/svg" xmlns:xlink="http://www.w3.org/1999/xlink">
    <!-- Generator: Sketch 39.1 (31720) - http://www.bohemiancoding.com/sketch -->
    <title>Twitter</title>
    <desc>Created with Sketch.</desc>
    <defs></defs>
    <g id="Symbols" stroke="none" stroke-width="1" fill="none" fill-rule="evenodd">
        <g id="Footer" transform="translate(-1131.000000, -78.000000)" fill="#B1B8C1">
            <g id="Social">
                <g id="Twitter">
                    <path d="M1131,88.6389832 C1131.24075,88.6669607 1131.48573,88.6812736 1131.73412,88.6812736 C1133.1759,88.6812736 1134.50285,88.1969592 1135.55607,87.3844755 C1134.20943,87.3600086 1133.07292,86.4841703 1132.68133,85.2805948 C1132.8692,85.3159719 1133.062,85.3349297 1133.26029,85.3349297 C1133.54099,85.3349297 1133.81285,85.2979323 1134.07111,85.2286905 C1132.66323,84.9504271 1131.60249,83.7260035 1131.60249,82.2582074 C1131.60249,82.2454608 1131.60249,82.2327683 1131.60271,82.2201298 C1132.01767,82.447029 1132.49215,82.5832981 1132.99665,82.5990152 C1132.17091,82.0557751 1131.62757,81.1285186 1131.62757,80.0775234 C1131.62757,79.5223469 1131.77933,79.0019534 1132.04422,78.5545284 C1133.56205,80.3873291 1135.82964,81.5933891 1138.3873,81.7197202 C1138.33485,81.4980061 1138.30758,81.2667861 1138.30758,81.0293548 C1138.30758,79.3563719 1139.6855,78 1141.38511,78 C1142.27022,78 1143.07001,78.3679212 1143.63141,78.9566924 C1144.33238,78.8208013 1144.991,78.5686792 1145.58559,78.2215521 C1145.35581,78.9289309 1144.86788,79.522617 1144.23247,79.8975596 C1144.85499,79.824321 1145.4481,79.6614786 1146,79.4205367 C1145.5874,80.0280496 1145.06562,80.5616218 1144.46439,80.9887388 C1144.47032,81.1186346 1144.47328,81.2492866 1144.47328,81.3806407 C1144.47328,85.3838634 1141.37792,90 1135.71744,90 C1133.97953,90 1132.3619,89.4985102 1131,88.6389832 Z"></path>
                </g>
            </g>
        </g>
    </g>
</svg>