<?xml version="1.0" encoding="UTF-8" standalone="no"?>
<svg width="24px" height="24px" viewBox="0 0 24 24" version="1.1" xmlns="http://www.w3.org/2000/svg" xmlns:xlink="http://www.w3.org/1999/xlink">
    <!-- Generator: Sketch 40 (33762) - http://www.bohemiancoding.com/sketch -->
    <title>Group</title>
    <desc>Created with Sketch.</desc>
    <defs></defs>
    <g id="Website-Desktop" stroke="none" stroke-width="1" fill="none" fill-rule="evenodd">
        <g id="Contact" transform="translate(-930.000000, -641.000000)" fill="#FFFFFF">
            <g id="Intro" transform="translate(0.000000, 73.000000)">
                <g id="Contact-Box" transform="translate(250.000000, 336.000000)">
                    <g id="Contact-Info" transform="translate(640.000000, 0.000000)">
                        <g id="building-3" transform="translate(40.000000, 232.000000)">
                            <g id="Outline_Icons">
                                <g id="Group">
                                    <path d="M23.5,23 L23,23 L23,13.5 C23,13.224 22.776,13 22.5,13 L20,13 L20,12.5 C20,12.224 19.776,12 19.5,12 C19.224,12 19,12.224 19,12.5 L19,13 L18.5,13 C18.224,13 18,13.224 18,13.5 L18,23 L17,23 L17,4.5 C17,4.224 16.776,4 16.5,4 L14,4 L14,2.5 C14,2.224 13.776,2 13.5,2 L13,2 L13,0.5 C13,0.224 12.776,0 12.5,0 C12.224,0 12,0.224 12,0.5 L12,2 L10.5,2 C10.224,2 10,2.224 10,2.5 L10,4 L7.5,4 C7.224,4 7,4.224 7,4.5 L7,23 L6,23 L6,13.5 C6,13.224 5.776,13 5.5,13 L5,13 L5,12.5 C5,12.224 4.776,12 4.5,12 C4.224,12 4,12.224 4,12.5 L4,13 L1.5,13 C1.224,13 1,13.224 1,13.5 L1,23 L0.5,23 C0.224,23 0,23.224 0,23.5 C0,23.776 0.224,24 0.5,24 L1.5,24 L5.5,24 L7.5,24 L16.5,24 L18.5,24 L22.5,24 L23.5,24 C23.776,24 24,23.776 24,23.5 C24,23.224 23.776,23 23.5,23 L23.5,23 Z M11,3 L13,3 L13,4 L11,4 L11,3 L11,3 Z M2,23 L2,14 L5,14 L5,23 L2,23 L2,23 Z M8,23 L8,5 L10.5,5 L13.5,5 L16,5 L16,23 L8,23 L8,23 Z M19,23 L19,14 L22,14 L22,23 L19,23 L19,23 Z" id="Shape"></path>
                                    <path d="M14.5,7 L9.5,7 C9.224,7 9,7.224 9,7.5 C9,7.776 9.224,8 9.5,8 L14.5,8 C14.776,8 15,7.776 15,7.5 C15,7.224 14.776,7 14.5,7 L14.5,7 Z" id="Shape"></path>
                                    <path d="M14.5,10 L9.5,10 C9.224,10 9,10.224 9,10.5 C9,10.776 9.224,11 9.5,11 L14.5,11 C14.776,11 15,10.776 15,10.5 C15,10.224 14.776,10 14.5,10 L14.5,10 Z" id="Shape"></path>
                                    <path d="M14.5,13 L9.5,13 C9.224,13 9,13.224 9,13.5 C9,13.776 9.224,14 9.5,14 L14.5,14 C14.776,14 15,13.776 15,13.5 C15,13.224 14.776,13 14.5,13 L14.5,13 Z" id="Shape"></path>
                                    <path d="M14.5,16 L9.5,16 C9.224,16 9,16.224 9,16.5 C9,16.776 9.224,17 9.5,17 L14.5,17 C14.776,17 15,16.776 15,16.5 C15,16.224 14.776,16 14.5,16 L14.5,16 Z" id="Shape"></path>
                                    <path d="M14.5,19 L9.5,19 C9.224,19 9,19.224 9,19.5 C9,19.776 9.224,20 9.5,20 L14.5,20 C14.776,20 15,19.776 15,19.5 C15,19.224 14.776,19 14.5,19 L14.5,19 Z" id="Shape"></path>
                                </g>
                            </g>
                        </g>
                    </g>
                </g>
            </g>
        </g>
    </g>
</svg>