<?xml version="1.0" encoding="UTF-8" standalone="no"?>
<svg width="24px" height="21px" viewBox="0 0 24 21" version="1.1" xmlns="http://www.w3.org/2000/svg" xmlns:xlink="http://www.w3.org/1999/xlink">
    <!-- Generator: Sketch 40 (33762) - http://www.bohemiancoding.com/sketch -->
    <title>phone 2</title>
    <desc>Created with Sketch.</desc>
    <defs></defs>
    <g id="Website-Desktop" stroke="none" stroke-width="1" fill="none" fill-rule="evenodd">
        <g id="Contact" transform="translate(-930.000000, -507.000000)" fill="#FFFFFF">
            <g id="Intro" transform="translate(0.000000, 73.000000)">
                <g id="Contact-Box" transform="translate(250.000000, 336.000000)">
                    <g id="Contact-Info" transform="translate(640.000000, 0.000000)">
                        <g id="phone-2" transform="translate(40.000000, 98.000000)">
                            <path d="M21.1,1.01 C15.106,-0.211 8.889,-0.21 2.9,1.01 C1.274,1.343 0,2.875 0,4.5 L0,6.5 C0,7.879 1.122,9 2.5,9 L5.5,9 C6.878,9 8,7.879 8,6.5 L8,5.455 C10.633,5.223 13.367,5.223 16,5.455 L16,6.5 C16,7.879 17.122,9 18.5,9 L21.5,9 C22.878,9 24,7.879 24,6.5 L24,4.5 C24,2.875 22.726,1.343 21.1,1.01 L21.1,1.01 Z M23,6.5 C23,7.313 22.313,8 21.5,8 L18.5,8 C17.687,8 17,7.313 17,6.5 L17,5 C17,4.743 16.805,4.527 16.549,4.502 C15.057,4.355 13.527,4.279 12.001,4.279 C10.474,4.279 8.943,4.354 7.451,4.502 C7.195,4.527 7,4.743 7,5 L7,6.5 C7,7.313 6.313,8 5.5,8 L2.5,8 C1.687,8 1,7.313 1,6.5 L1,4.5 C1,3.353 1.942,2.227 3.1,1.99 C8.956,0.797 15.037,0.797 20.9,1.99 C22.058,2.227 23,3.353 23,4.5 L23,6.5 L23,6.5 Z" id="Shape"></path>
                            <path d="M14,9.025 L14,7.5 C14,7.224 13.776,7 13.5,7 C13.224,7 13,7.224 13,7.5 L13,9 L11,9 L11,7.5 C11,7.224 10.776,7 10.5,7 C10.224,7 10,7.224 10,7.5 L10,9.025 C5.546,9.286 2,12.982 2,17.5 L2,20.5 C2,20.776 2.224,21 2.5,21 L21.5,21 C21.776,21 22,20.776 22,20.5 L22,17.5 C22,12.982 18.454,9.286 14,9.025 L14,9.025 Z M21,20 L3,20 L3,17.5 C3,13.364 6.364,10 10.5,10 L13.5,10 C17.636,10 21,13.364 21,17.5 L21,20 L21,20 Z" id="Shape"></path>
                            <path d="M12,11 C9.794,11 8,12.794 8,15 C8,17.206 9.794,19 12,19 C14.206,19 16,17.206 16,15 C16,12.794 14.206,11 12,11 L12,11 Z M12,18 C10.346,18 9,16.654 9,15 C9,13.346 10.346,12 12,12 C13.654,12 15,13.346 15,15 C15,16.654 13.654,18 12,18 L12,18 Z" id="Shape"></path>
                        </g>
                    </g>
                </g>
            </g>
        </g>
    </g>
</svg>