<?xml version="1.0" encoding="UTF-8" standalone="no"?>
<svg width="28px" height="48px" viewBox="0 0 28 48" version="1.1" xmlns="http://www.w3.org/2000/svg" xmlns:xlink="http://www.w3.org/1999/xlink">
    <!-- Generator: Sketch 40.1 (33804) - http://www.bohemiancoding.com/sketch -->
    <title>icon</title>
    <desc>Created with Sketch.</desc>
    <defs></defs>
    <g id="Website-Desktop" stroke="none" stroke-width="1" fill="none" fill-rule="evenodd">
        <g id="Desarrolladores" transform="translate(-754.000000, -501.000000)" fill="#AEE239">
            <g id="Content" transform="translate(250.000000, 477.000000)">
                <g id="Account-API" transform="translate(480.000000, 0.000000)">
                    <g id="icon" transform="translate(24.000000, 24.000000)">
                        <path d="M14,23.208 C12.268,23.208 10.86,21.8 10.86,20.068 C10.86,18.336 12.27,16.928 14,16.928 C15.73,16.928 17.136,18.336 17.136,20.068 C17.136,20.62 17.584,21.068 18.136,21.068 C18.688,21.068 19.136,20.62 19.136,20.068 C19.136,17.578 17.354,15.496 15,15.028 L15,13.166 C15,12.614 14.552,12.166 14,12.166 C13.448,12.166 13,12.614 13,13.166 L13,15.03 C10.642,15.496 8.86,17.576 8.86,20.07 C8.86,22.904 11.166,25.21 14,25.21 C15.73,25.21 17.136,26.618 17.136,28.35 C17.136,30.082 15.728,31.49 14,31.49 C12.268,31.49 10.86,30.082 10.86,28.35 C10.86,27.798 10.412,27.35 9.86,27.35 C9.308,27.35 8.86,27.798 8.86,28.35 C8.86,30.842 10.644,32.922 13,33.39 L13,35.252 C13,35.804 13.448,36.252 14,36.252 C14.552,36.252 15,35.804 15,35.252 L15,33.39 C17.354,32.924 19.136,30.842 19.136,28.35 C19.136,25.516 16.832,23.208 14,23.208 L14,23.208 Z" id="Shape"></path>
                        <path d="M23,0 L5,0 C2.244,0 0,2.242 0,5 L0,43 C0,45.758 2.244,48 5,48 L23,48 C25.756,48 28,45.758 28,43 L28,5 C28,2.242 25.756,0 23,0 L23,0 Z M2,10 L26,10 L26,38 L2,38 L2,10 L2,10 Z M5,2 L23,2 C24.654,2 26,3.346 26,5 L26,8 L2,8 L2,5 C2,3.346 3.346,2 5,2 L5,2 Z M23,46 L5,46 C3.346,46 2,44.654 2,43 L2,40 L26,40 L26,43 C26,44.654 24.654,46 23,46 L23,46 Z" id="Shape"></path>
                        <path d="M9,6 L19,6 C19.552,6 20,5.552 20,5 C20,4.448 19.552,4 19,4 L9,4 C8.448,4 8,4.448 8,5 C8,5.552 8.448,6 9,6 L9,6 Z" id="Shape"></path>
                        <circle id="Oval" cx="14" cy="43" r="2"></circle>
                    </g>
                </g>
            </g>
        </g>
    </g>
</svg>