<?xml version="1.0" encoding="UTF-8" standalone="no"?>
<svg width="48px" height="48px" viewBox="0 0 48 48" version="1.1" xmlns="http://www.w3.org/2000/svg" xmlns:xlink="http://www.w3.org/1999/xlink">
    <!-- Generator: Sketch 40.1 (33804) - http://www.bohemiancoding.com/sketch -->
    <title>icon</title>
    <desc>Created with Sketch.</desc>
    <defs></defs>
    <g id="Website-Desktop" stroke="none" stroke-width="1" fill="none" fill-rule="evenodd">
        <g id="Desarrolladores" transform="translate(-274.000000, -501.000000)" fill="#AEE239">
            <g id="Content" transform="translate(250.000000, 477.000000)">
                <g id="API-Basics">
                    <g id="icon" transform="translate(24.000000, 24.000000)">
                        <path d="M33.318,16.27 L19.026,29.61 L14.708,25.294 C14.318,24.904 13.684,24.904 13.294,25.294 C12.904,25.684 12.904,26.318 13.294,26.708 L18.294,31.708 C18.488,31.902 18.744,32 19,32 C19.246,32 19.49,31.912 19.682,31.732 L34.682,17.732 C35.086,17.356 35.106,16.722 34.73,16.318 C34.354,15.914 33.724,15.892 33.318,16.27 L33.318,16.27 Z" id="Shape"></path>
                        <path d="M24,0 C10.766,0 0,10.766 0,24 C0,37.234 10.766,48 24,48 C37.234,48 48,37.234 48,24 C48,10.766 37.234,0 24,0 L24,0 Z M24,46 C11.87,46 2,36.132 2,24 C2,11.87 11.87,2 24,2 C36.13,2 46,11.87 46,24 C46,36.132 36.13,46 24,46 L24,46 Z" id="Shape"></path>
                    </g>
                </g>
            </g>
        </g>
    </g>
</svg>