<?xml version="1.0" encoding="UTF-8" standalone="no"?>
<svg width="48px" height="48px" viewBox="0 0 48 48" version="1.1" xmlns="http://www.w3.org/2000/svg" xmlns:xlink="http://www.w3.org/1999/xlink">
    <!-- Generator: Sketch 40.1 (33804) - http://www.bohemiancoding.com/sketch -->
    <title>icon</title>
    <desc>Created with Sketch.</desc>
    <defs></defs>
    <g id="Website-Desktop" stroke="none" stroke-width="1" fill="none" fill-rule="evenodd">
        <g id="Desarrolladores" transform="translate(-274.000000, -741.000000)" fill="#AEE239">
            <g id="Content" transform="translate(250.000000, 477.000000)">
                <g id="Lookup-API" transform="translate(0.000000, 240.000000)">
                    <g id="icon" transform="translate(24.000000, 24.000000)">
                        <path d="M43,0 L5,0 C2.242,0 0,2.242 0,5 L0,33 C0,35.758 2.242,38 5,38 L21.81,38 C22.362,38 22.81,37.552 22.81,37 C22.81,36.448 22.362,36 21.81,36 L5,36 C3.346,36 2,34.654 2,33 L2,12 L46,12 L46,33 C46,33.552 46.448,34 47,34 C47.552,34 48,33.552 48,33 L48,5 C48,2.242 45.758,0 43,0 L43,0 Z M2,10 L2,5 C2,3.346 3.346,2 5,2 L43,2 C44.654,2 46,3.346 46,5 L46,10 L2,10 L2,10 Z" id="Shape"></path>
                        <ellipse id="Oval" cx="8" cy="6" rx="2" ry="2"></ellipse>
                        <circle id="Oval" cx="14" cy="6" r="2"></circle>
                        <circle id="Oval" cx="20" cy="6" r="2"></circle>
                        <path d="M41.336,39.922 C42.498,38.454 43.22,36.626 43.22,34.612 C43.22,29.864 39.358,26 34.61,26 C29.862,26 26,29.864 26,34.612 C26,39.36 29.864,43.222 34.612,43.222 C36.626,43.222 38.456,42.5 39.922,41.338 L46.294,47.71 C46.488,47.902 46.744,48 47,48 C47.256,48 47.512,47.902 47.708,47.708 C48.098,47.318 48.098,46.684 47.708,46.294 L41.336,39.922 L41.336,39.922 Z M28,34.612 C28,30.966 30.966,28 34.612,28 C38.258,28 41.222,30.966 41.222,34.612 C41.222,38.258 38.258,41.222 34.612,41.222 C30.966,41.222 28,38.256 28,34.612 L28,34.612 Z" id="Shape"></path>
                        <path d="M7.032,18 L14.938,18 C15.49,18 15.938,17.552 15.938,17 C15.938,16.448 15.49,16 14.938,16 L7.032,16 C6.48,16 6.032,16.448 6.032,17 C6.032,17.552 6.478,18 7.032,18 L7.032,18 Z" id="Shape"></path>
                        <path d="M7.032,28 C6.48,28 6.032,28.448 6.032,29 C6.032,29.552 6.48,30 7.032,30 L10.938,30 C11.49,30 11.938,29.552 11.938,29 C11.938,28.448 11.49,28 10.938,28 L7.032,28 L7.032,28 Z" id="Shape"></path>
                        <path d="M17.938,23 C17.938,22.448 17.49,22 16.938,22 L7.032,22 C6.48,22 6.032,22.448 6.032,23 C6.032,23.552 6.48,24 7.032,24 L16.938,24 C17.49,24 17.938,23.552 17.938,23 L17.938,23 Z" id="Shape"></path>
                        <path d="M22.938,28 L15.032,28 C14.48,28 14.032,28.448 14.032,29 C14.032,29.552 14.48,30 15.032,30 L22.938,30 C23.49,30 23.938,29.552 23.938,29 C23.938,28.448 23.49,28 22.938,28 L22.938,28 Z" id="Shape"></path>
                        <path d="M20.032,23 C20.032,23.552 20.48,24 21.032,24 L30.938,24 C31.49,24 31.938,23.552 31.938,23 C31.938,22.448 31.49,22 30.938,22 L21.032,22 C20.478,22 20.032,22.448 20.032,23 L20.032,23 Z" id="Shape"></path>
                        <path d="M28.968,16 L19.032,16 C18.48,16 18.032,16.448 18.032,17 C18.032,17.552 18.478,18 19.032,18 L28.97,18 C29.522,18 29.97,17.552 29.97,17 C29.97,16.448 29.522,16 28.968,16 L28.968,16 Z" id="Shape"></path>
                        <path d="M41,16 L33.062,16 C32.51,16 32.062,16.448 32.062,17 C32.062,17.552 32.51,18 33.062,18 L41,18 C41.552,18 42,17.552 42,17 C42,16.448 41.552,16 41,16 L41,16 Z" id="Shape"></path>
                        <path d="M41,22 L35.062,22 C34.51,22 34.062,22.448 34.062,23 C34.062,23.552 34.51,24 35.062,24 L41,24 C41.552,24 42,23.552 42,23 C42,22.448 41.552,22 41,22 L41,22 Z" id="Shape"></path>
                    </g>
                </g>
            </g>
        </g>
    </g>
</svg>