<?xml version="1.0" encoding="UTF-8" standalone="no"?>
<svg width="12px" height="10px" viewBox="0 0 12 10" version="1.1" xmlns="http://www.w3.org/2000/svg" xmlns:xlink="http://www.w3.org/1999/xlink">
    <!-- Generator: Sketch 40.1 (33804) - http://www.bohemiancoding.com/sketch -->
    <title>Combined Shape Copy 3</title>
    <desc>Created with Sketch.</desc>
    <defs></defs>
    <g id="Website-Desktop" stroke="none" stroke-width="1" fill="none" fill-rule="evenodd">
        <g id="Desarrolladores-Elements-Dark" transform="translate(-250.000000, -524.000000)" fill="#6A7785">
            <g id="Sidebar" transform="translate(250.000000, 192.000000)">
                <g id="SMS-API" transform="translate(0.000000, 324.000000)">
                    <path d="M1.00021138,11 C0.999311923,10.9996639 1,10.9979508 1,10.9906311 L1,9.0093689 C1,8.99715773 0.997197541,9 1.00292933,9 L5.99707067,9 C6.00152407,9 6,8.99847513 6,9.0093689 L6,9.99963891 C8.49979382,9.99931392 11,9.99870007 11,9.99754465 C11,9.99754465 10.999802,10.3947684 10.9995141,11 L1.00021138,11 Z M10.9990467,12 C10.9980973,14.0694477 10.9968689,17 10.9975267,17 C10.9975267,17 1,17.0001449 1,17.0024554 C1,17.0024554 1.00146178,14.0695842 1.00221767,12 L10.9990467,12 Z M6.99995895,9 L10.9975267,9 C11.5511774,9 12,9.4463114 12,9.99754465 L12,17.0024554 C12,17.553384 11.544239,18 10.9975267,18 L1.00247329,18 C0.448822582,18 0,17.5536886 0,17.0024554 L0,10.4940879 L0,9.0093689 C0,8.45190985 0.437881351,8 1.00292933,8 L5.99707067,8 C6.54791343,8 6.99503586,8.43846845 6.99995895,9 L6.99995895,9 Z" id="Combined-Shape-Copy-3"></path>
                </g>
            </g>
        </g>
    </g>
</svg>