<?xml version="1.0" encoding="UTF-8" standalone="no"?>
<svg width="48px" height="48px" viewBox="0 0 48 48" version="1.1" xmlns="http://www.w3.org/2000/svg" xmlns:xlink="http://www.w3.org/1999/xlink">
    <!-- Generator: Sketch 40.1 (33804) - http://www.bohemiancoding.com/sketch -->
    <title>icon</title>
    <desc>Created with Sketch.</desc>
    <defs></defs>
    <g id="Website-Desktop" stroke="none" stroke-width="1" fill="none" fill-rule="evenodd">
        <g id="Desarrolladores" transform="translate(-514.000000, -501.000000)" fill="#AEE239">
            <g id="Content" transform="translate(250.000000, 477.000000)">
                <g id="SDK-Integration" transform="translate(240.000000, 0.000000)">
                    <g id="icon" transform="translate(24.000000, 24.000000)">
                        <path d="M12.236,16.822 C11.846,16.432 11.212,16.432 10.822,16.822 L5.282,22.362 C4.892,22.752 4.892,23.386 5.282,23.776 L10.822,29.316 C11.018,29.512 11.274,29.608 11.53,29.608 C11.786,29.608 12.042,29.51 12.238,29.316 C12.628,28.926 12.628,28.292 12.238,27.902 L7.406,23.07 L12.238,18.238 C12.626,17.846 12.626,17.212 12.236,16.822 L12.236,16.822 Z" id="Shape"></path>
                        <path d="M17.744,29.314 C17.94,29.51 18.196,29.606 18.452,29.606 C18.708,29.606 18.964,29.508 19.16,29.314 L24.7,23.774 C25.09,23.384 25.09,22.75 24.7,22.36 L19.16,16.82 C18.77,16.43 18.136,16.43 17.746,16.82 C17.356,17.21 17.356,17.844 17.746,18.234 L22.578,23.066 L17.744,27.9 C17.354,28.292 17.354,28.924 17.744,29.314 L17.744,29.314 Z" id="Shape"></path>
                        <path d="M35,22 C27.832,22 22,27.832 22,35 C22,42.168 27.832,48 35,48 C42.168,48 48,42.168 48,35 C48,27.832 42.168,22 35,22 L35,22 Z M35,46 C28.936,46 24,41.064 24,35 C24,28.936 28.936,24 35,24 C41.064,24 46,28.936 46,35 C46,41.064 41.064,46 35,46 L35,46 Z" id="Shape"></path>
                        <path d="M40.808,31.052 L33.876,38.65 L29.162,33.936 C28.772,33.546 28.138,33.546 27.748,33.936 C27.358,34.326 27.358,34.96 27.748,35.35 L33.204,40.806 C33.392,40.994 33.646,41.098 33.912,41.098 L33.936,41.098 C34.21,41.092 34.468,40.974 34.65,40.772 L42.286,32.4 C42.66,31.992 42.63,31.358 42.222,30.988 C41.814,30.616 41.182,30.644 40.808,31.052 L40.808,31.052 Z" id="Shape"></path>
                        <path d="M2,2 L22,2 L22,11 C22,11.552 22.448,12 23,12 L32,12 L32,20 L34,20 L34,11 C34,10.868 33.972,10.736 33.922,10.616 C33.872,10.492 33.798,10.384 33.706,10.294 L23.71,0.294 C23.618,0.204 23.508,0.13 23.386,0.08 C23.264,0.028 23.132,0 23,0 L1,0 C0.448,0 0,0.448 0,1 L0,43 C0,43.552 0.448,44 1,44 L22,44 L22,42 L2,42 L2,2 L2,2 Z M24,3.414 L30.586,10 L24,10 L24,3.414 L24,3.414 Z" id="Shape"></path>
                    </g>
                </g>
            </g>
        </g>
    </g>
</svg>