<?xml version="1.0" encoding="UTF-8" standalone="no"?>
<svg width="36px" height="48px" viewBox="0 0 36 48" version="1.1" xmlns="http://www.w3.org/2000/svg" xmlns:xlink="http://www.w3.org/1999/xlink">
    <!-- Generator: Sketch 40.1 (33804) - http://www.bohemiancoding.com/sketch -->
    <title>icon</title>
    <desc>Created with Sketch.</desc>
    <defs></defs>
    <g id="Website-Desktop" stroke="none" stroke-width="1" fill="none" fill-rule="evenodd">
        <g id="Desarrolladores" transform="translate(-754.000000, -741.000000)" fill="#AEE239">
            <g id="Content" transform="translate(250.000000, 477.000000)">
                <g id="SMPP-Integration" transform="translate(480.000000, 240.000000)">
                    <g id="icon" transform="translate(24.000000, 24.000000)">
                        <path d="M6.896,22 L28.472,21.992 C31.076,21.664 36,19.54 36,13.856 C36,9.476 32.416,5.892 27.948,5.728 C25.966,2.228 22.13,0 18,0 C12.376,0 7.652,4.002 6.8,9.288 C3.164,9.17 -0.002,12.046 1.37667655e-12,15.64 C1.37667655e-12,20.662 4.336,22 6.896,22 L6.896,22 Z M6.536,11.284 C6.848,11.284 7.166,11.316 7.488,11.38 C7.768,11.436 8.066,11.37 8.294,11.192 C8.522,11.014 8.666,10.748 8.682,10.46 C8.97,5.716 13.064,2 18,2 C21.59,2 24.906,4.028 26.446,7.166 C26.62,7.52 26.974,7.75 27.38,7.724 L27.628,7.72 C31.14,7.722 34,10.474 34,13.856 C34,19.184 28.456,19.978 28.348,20 L6.9,20 L6.896,21 L6.896,20 C6.396,20 2,19.878 2,15.64 C2,13.238 4.036,11.284 6.536,11.284 L6.536,11.284 Z" id="Shape"></path>
                        <path d="M35,26 L1,26 C0.448,26 0,26.448 0,27 L0,37 L0,47 C0,47.552 0.448,48 1,48 L35,48 C35.552,48 36,47.552 36,47 L36,37 L36,27 C36,26.448 35.552,26 35,26 L35,26 Z M2,28 L34,28 L34,36 L2,36 L2,28 L2,28 Z M34,46 L2,46 L2,38 L34,38 L34,46 L34,46 Z" id="Shape"></path>
                        <path d="M8,29 C6.346,29 5,30.346 5,32 C5,33.654 6.346,35 8,35 C9.654,35 11,33.654 11,32 C11,30.346 9.654,29 8,29 L8,29 Z M8,33 C7.45,33 7,32.552 7,32 C7,31.448 7.45,31 8,31 C8.55,31 9,31.448 9,32 C9,32.552 8.55,33 8,33 L8,33 Z" id="Shape"></path>
                        <circle id="Oval" cx="28" cy="32" r="2"></circle>
                        <ellipse id="Oval" cx="22" cy="32" rx="2" ry="2"></ellipse>
                        <path d="M8,45 C9.654,45 11,43.654 11,42 C11,40.346 9.654,39 8,39 C6.346,39 5,40.346 5,42 C5,43.654 6.346,45 8,45 L8,45 Z M8,41 C8.55,41 9,41.448 9,42 C9,42.552 8.55,43 8,43 C7.45,43 7,42.552 7,42 C7,41.448 7.45,41 8,41 L8,41 Z" id="Shape"></path>
                        <circle id="Oval" cx="28" cy="42" r="2"></circle>
                        <ellipse id="Oval" cx="22" cy="42" rx="2" ry="2"></ellipse>
                    </g>
                </g>
            </g>
        </g>
    </g>
</svg>