<?xml version="1.0" encoding="UTF-8" standalone="no"?>
<svg width="48px" height="48px" viewBox="0 0 48 48" version="1.1" xmlns="http://www.w3.org/2000/svg" xmlns:xlink="http://www.w3.org/1999/xlink">
    <!-- Generator: Sketch 40.1 (33804) - http://www.bohemiancoding.com/sketch -->
    <title>icon</title>
    <desc>Created with Sketch.</desc>
    <defs></defs>
    <g id="Website-Desktop" stroke="none" stroke-width="1" fill="none" fill-rule="evenodd">
        <g id="Desarrolladores" transform="translate(-994.000000, -501.000000)" fill="#AEE239">
            <g id="Content" transform="translate(250.000000, 477.000000)">
                <g id="SMS-API" transform="translate(720.000000, 0.000000)">
                    <g id="icon" transform="translate(24.000000, 24.000000)">
                        <path d="M47.5,36.38 L45.714,35.348 C45.766,34.922 45.792,34.504 45.792,34.086 C45.792,33.672 45.766,33.254 45.712,32.824 L47.494,31.796 C47.724,31.664 47.892,31.444 47.96,31.188 C48.028,30.932 47.994,30.658 47.86,30.43 L44.596,24.778 C44.464,24.548 44.244,24.38 43.988,24.312 C43.73,24.24 43.456,24.28 43.228,24.412 L41.456,25.442 C40.8,24.958 40.068,24.534 39.29,24.192 L39.29,22.118 C39.29,21.566 38.842,21.118 38.29,21.118 L31.76,21.118 C31.208,21.118 30.76,21.566 30.76,22.118 L30.76,24.19 C30.1,24.48 29.322,24.886 28.564,25.444 L26.77,24.41 C26.292,24.136 25.68,24.3 25.404,24.776 L22.136,30.43 C22.004,30.66 21.968,30.932 22.036,31.188 C22.104,31.444 22.272,31.662 22.502,31.796 L24.282,32.824 C24.23,33.254 24.202,33.672 24.202,34.086 C24.202,34.504 24.228,34.922 24.28,35.35 L22.5,36.38 C22.022,36.656 21.86,37.268 22.134,37.746 L25.398,43.398 C25.674,43.874 26.284,44.038 26.762,43.766 L28.566,42.732 C29.322,43.288 30.1,43.696 30.762,43.986 L30.762,46.058 C30.762,46.61 31.21,47.058 31.762,47.058 L38.292,47.058 C38.844,47.058 39.292,46.61 39.292,46.058 L39.292,43.986 C40.072,43.642 40.806,43.218 41.46,42.736 L43.238,43.766 C43.468,43.898 43.742,43.938 43.996,43.866 C44.252,43.798 44.472,43.63 44.604,43.4 L47.866,37.748 C48.142,37.268 47.978,36.656 47.5,36.38 L47.5,36.38 Z M43.374,41.532 L41.874,40.662 C41.508,40.45 41.046,40.492 40.722,40.768 C39.948,41.43 38.986,41.986 37.942,42.376 C37.55,42.522 37.292,42.896 37.292,43.312 L37.292,45.056 L32.762,45.056 L32.762,43.312 C32.762,42.896 32.504,42.52 32.112,42.376 C31.052,41.98 30.054,41.408 29.306,40.768 C28.984,40.49 28.522,40.45 28.158,40.66 L26.632,41.536 L24.368,37.612 L25.878,36.74 C26.244,36.528 26.438,36.108 26.36,35.692 C26.256,35.134 26.206,34.61 26.206,34.086 C26.206,33.574 26.256,33.048 26.362,32.482 C26.44,32.066 26.246,31.646 25.878,31.434 L24.372,30.564 L26.64,26.642 L28.158,27.516 C28.524,27.724 28.986,27.684 29.308,27.408 C30.06,26.764 31.058,26.194 32.114,25.8 C32.506,25.654 32.766,25.28 32.766,24.862 L32.766,23.116 L37.296,23.116 L37.296,24.862 C37.296,25.28 37.556,25.654 37.948,25.8 C38.988,26.186 39.948,26.742 40.726,27.408 C41.048,27.684 41.512,27.726 41.878,27.514 L43.372,26.646 L45.634,30.564 L44.126,31.436 C43.76,31.648 43.566,32.068 43.642,32.484 C43.746,33.05 43.798,33.574 43.798,34.088 C43.798,34.612 43.748,35.136 43.644,35.694 C43.566,36.11 43.76,36.53 44.128,36.742 L45.638,37.616 L43.374,41.532 L43.374,41.532 Z" id="Shape"></path>
                        <path d="M34.998,28.734 C32.046,28.734 29.644,31.134 29.644,34.086 C29.644,37.038 32.046,39.44 34.998,39.44 C37.95,39.44 40.35,37.038 40.35,34.086 C40.35,31.134 37.95,28.734 34.998,28.734 L34.998,28.734 Z M34.998,37.44 C33.148,37.44 31.644,35.936 31.644,34.086 C31.644,32.238 33.148,30.734 34.998,30.734 C36.846,30.734 38.35,32.238 38.35,34.086 C38.35,35.936 36.846,37.44 34.998,37.44 L34.998,37.44 Z" id="Shape"></path>
                        <path d="M19,28 L17,28 C16.734,28 16.48,28.106 16.292,28.292 L10,34.586 L10,29 C10,28.448 9.552,28 9,28 L2,28 L2,2 L42,2 L42,19 C42,19.552 42.448,20 43,20 C43.552,20 44,19.552 44,19 L44,1 C44,0.448 43.552,0 43,0 L1,0 C0.448,0 0,0.448 0,1 L0,29 C0,29.552 0.448,30 1,30 L8,30 L8,37 C8,37.404 8.244,37.77 8.618,37.924 C8.742,37.976 8.872,38 9,38 C9.26,38 9.516,37.898 9.708,37.708 L17.414,30 L19,30 C19.552,30 20,29.552 20,29 C20,28.448 19.552,28 19,28 L19,28 Z" id="Shape"></path>
                    </g>
                </g>
            </g>
        </g>
    </g>
</svg>