<?xml version="1.0" encoding="UTF-8" standalone="no"?>
<svg width="48px" height="43px" viewBox="0 0 48 43" version="1.1" xmlns="http://www.w3.org/2000/svg" xmlns:xlink="http://www.w3.org/1999/xlink">
    <!-- Generator: Sketch 40.1 (33804) - http://www.bohemiancoding.com/sketch -->
    <title>icon</title>
    <desc>Created with Sketch.</desc>
    <defs></defs>
    <g id="Website-Desktop" stroke="none" stroke-width="1" fill="none" fill-rule="evenodd">
        <g id="Desarrolladores" transform="translate(-514.000000, -741.000000)" fill="#AEE239">
            <g id="Content" transform="translate(250.000000, 477.000000)">
                <g id="Verify-API" transform="translate(240.000000, 240.000000)">
                    <g id="icon" transform="translate(24.000000, 24.000000)">
                        <path d="M48,19 C48,16.794 46.206,15 44,15 L29.464,15 C30.314,12.684 31.766,8.038 30.962,5.168 C29.71,0.712 27.102,0.366 26.334,0.366 C24.464,0.366 23,1.962 23,4 C23,10.96 16.306,18.72 12,19.846 L12,18 C12,17.448 11.552,17 11,17 L1,17 C0.448,17 0,17.448 0,18 L0,42 C0,42.552 0.448,43 1,43 L11,43 C11.552,43 12,42.552 12,42 L12,39.166 C14.024,39.482 15.544,39.792 16.886,40.07 C19.492,40.61 21.374,41 25,41 L38,41 C40.654,41 42,39.99 42,38 C42,37.176 41.75,36.412 41.322,35.776 C42.88,35.228 44,33.742 44,32 C44,31.176 43.75,30.412 43.322,29.776 C44.88,29.228 46,27.742 46,26 C46,25.146 45.73,24.354 45.274,23.704 C46.952,22.896 48,20.614 48,19 L48,19 Z M10,41 L2,41 L2,19 L10,19 L10,21 L10,38 L10,41 L10,41 Z M44,22 L42,22 C41.448,22 41,22.448 41,23 C41,23.552 41.448,24 42,24 C43.104,24 44,24.898 44,26 C44,27.102 43.104,28 42,28 L40,28 C39.448,28 39,28.448 39,29 C39,29.552 39.448,30 40,30 C41.104,30 42,30.898 42,32 C42,33.102 41.104,34 40,34 L38,34 C37.448,34 37,34.448 37,35 C37,35.552 37.448,36 38,36 C39.104,36 40,36.898 40,38 C40,38.468 40,39 38,39 L25,39 C21.578,39 19.782,38.626 17.292,38.112 C15.854,37.812 14.244,37.48 12,37.136 L12,21.902 C17.492,20.872 25,11.856 25,4 C25,2.008 27.72,1.01 29.038,5.708 C29.778,8.346 27.878,13.748 27.08,15.606 C26.95,15.914 26.98,16.27 27.166,16.55 C27.35,16.832 27.664,17 28,17 L44,17 C45.104,17 46,17.898 46,19 C46,20.24 44.964,22 44,22 L44,22 Z" id="Shape"></path>
                        <circle id="Oval" cx="7" cy="38" r="1"></circle>
                    </g>
                </g>
            </g>
        </g>
    </g>
</svg>