<?xml version="1.0" encoding="UTF-8" standalone="no"?>
<svg width="40px" height="48px" viewBox="0 0 40 48" version="1.1" xmlns="http://www.w3.org/2000/svg" xmlns:xlink="http://www.w3.org/1999/xlink">
    <!-- Generator: Sketch 39.1 (31720) - http://www.bohemiancoding.com/sketch -->
    <title>agenda</title>
    <desc>Created with Sketch.</desc>
    <defs></defs>
    <g id="Website-Desktop" stroke="none" stroke-width="1" fill="none" fill-rule="evenodd">
        <g id="Home" transform="translate(-489.000000, -1586.000000)" fill="#6A7785">
            <g id="panel-web" transform="translate(250.000000, 906.000000)">
                <g id="Feature" transform="translate(239.000000, 680.000000)">
                    <g id="phone-book-2">
                        <g id="Outline_Icons">
                            <g id="agenda">
                                <path d="M39,8 L7,8 C5.346,8 4,6.654 4,5 C4,3.346 5.346,2 7,2 L39,2 C39.552,2 40,1.552 40,1 C40,0.448 39.552,0 39,0 L7,0 C4.244,0 2,2.244 2,5 L2,14 L1,14 C0.448,14 0,14.448 0,15 C0,15.552 0.448,16 1,16 L2,16 L2,20 L1,20 C0.448,20 0,20.448 0,21 C0,21.552 0.448,22 1,22 L2,22 L2,26 L1,26 C0.448,26 0,26.448 0,27 C0,27.552 0.448,28 1,28 L2,28 L2,32 L1,32 C0.448,32 0,32.448 0,33 C0,33.552 0.448,34 1,34 L2,34 L2,38 L1,38 C0.448,38 0,38.448 0,39 C0,39.552 0.448,40 1,40 L2,40 L2,43 C2,45.756 4.244,48 7,48 L39,48 C39.552,48 40,47.552 40,47 L40,9 C40,8.448 39.552,8 39,8 L39,8 Z M38,46 L7,46 C5.346,46 4,44.654 4,43 L4,40 L5,40 C5.552,40 6,39.552 6,39 C6,38.448 5.552,38 5,38 L4,38 L4,34 L5,34 C5.552,34 6,33.552 6,33 C6,32.448 5.552,32 5,32 L4,32 L4,28 L5,28 C5.552,28 6,27.552 6,27 C6,26.448 5.552,26 5,26 L4,26 L4,22 L5,22 C5.552,22 6,21.552 6,21 C6,20.448 5.552,20 5,20 L4,20 L4,16 L5,16 C5.552,16 6,15.552 6,15 C6,14.448 5.552,14 5,14 L4,14 L4,8.998 C4.836,9.626 5.876,10 7,10 L38,10 L38,46 L38,46 Z" id="Shape"></path>
                                <path d="M7,4 C6.448,4 6,4.448 6,5 C6,5.552 6.448,6 7,6 L37,6 C37.552,6 38,5.552 38,5 C38,4.448 37.552,4 37,4 L7,4 L7,4 Z" id="Shape"></path>
                                <path d="M12,40 L32,40 C32.552,40 33,39.552 33,39 L33,36 C33,34.456 31.836,32.914 30.35,32.49 L26,31.246 L26,29.716 C27.808,28.35 29,26.096 29,23.54 C29,19.382 25.86,16 22,16 C18.14,16 15,19.382 15,23.542 C15,26.098 16.192,28.352 18,29.718 L18,31.248 L13.646,32.492 C12.162,32.916 11,34.458 11,36 L11,39 C11,39.552 11.448,40 12,40 L12,40 Z M22,18 C24.252,18 26.138,19.67 26.762,21.944 C26.464,22.038 26.076,22.086 25.642,22.024 C25.178,21.956 24.334,21.716 23.88,20.868 C23.73,20.59 23.458,20.398 23.144,20.354 C22.83,20.308 22.516,20.412 22.292,20.636 C20.832,22.094 18.65,22.21 17.308,21.688 C18,19.546 19.832,18 22,18 L22,18 Z M17.014,23.704 C18.784,24.238 21.046,24.02 22.836,22.778 C23.488,23.426 24.362,23.858 25.35,24.004 C25.59,24.04 25.83,24.056 26.064,24.056 C26.376,24.056 26.672,24.016 26.96,23.956 C26.766,26.818 24.626,29.086 21.998,29.086 C19.292,29.084 17.094,26.682 17.014,23.704 L17.014,23.704 Z M13,36 C13,35.35 13.57,34.592 14.196,34.414 L19.274,32.962 C19.704,32.838 20,32.448 20,32 L20,30.734 C20.638,30.942 21.3,31.084 22,31.084 C22.7,31.084 23.362,30.94 24,30.734 L24,32 C24,32.448 24.296,32.838 24.726,32.96 L29.802,34.412 C30.43,34.59 31.002,35.348 31.002,35.998 L31.002,37.998 L13.002,37.998 L13.002,36 L13,36 Z" id="Shape"></path>
                            </g>
                        </g>
                    </g>
                </g>
            </g>
        </g>
    </g>
</svg>