<?xml version="1.0" encoding="UTF-8" standalone="no"?>
<svg width="471px" height="502px" viewBox="0 0 471 502" version="1.1" xmlns="http://www.w3.org/2000/svg" xmlns:xlink="http://www.w3.org/1999/xlink">
    <!-- Generator: Sketch 39.1 (31720) - http://www.bohemiancoding.com/sketch -->
    <title>Group 13</title>
    <desc>Created with Sketch.</desc>
    <defs>
        <rect id="path-1" x="0.209312573" y="0.355073892" width="10.2512926" height="10.2535961"></rect>
        <rect id="path-3" x="0.823854289" y="0.517438424" width="10.2529671" height="10.2552709"></rect>
        <rect id="path-5" x="0.723384254" y="0.867586207" width="10.2512926" height="10.2552709"></rect>
        <rect id="path-7" x="0.336251469" y="0.144039409" width="10.2646886" height="10.2586207"></rect>
        <rect id="path-9" x="0.441745006" y="0.765418719" width="10.2596651" height="10.2552709"></rect>
        <rect id="path-11" x="0.48393067" y="0.457241379" width="10.2529671" height="10.2552709"></rect>
    </defs>
    <g id="Interaction" stroke="none" stroke-width="1" fill="none" fill-rule="evenodd">
        <g id="Home-with-Hovers" transform="translate(0.000000, -4301.000000)">
            <g id="Blog" transform="translate(0.000000, 4096.000000)">
                <g id="blog">
                    <g id="asset">
                        <g id="Layer_1" transform="translate(-354.000000, -122.000000)">
                            <g id="Group-13" transform="translate(354.000000, 329.000000)">
                                <polygon id="Shape" fill="#6CB486" points="445.248531 282.955665 261.671151 499.344575 3.29919544e-07 499.344581 3.29919544e-07 446.9737 354.781962 0.0354679803 360.686251 52.6600985 434.782902 55.1724138 389.152761 112.118227 466.179788 226.847291 443.574031 254.482759"></polygon>
                                <g id="Group" transform="translate(249.494712, 3.413793)">
                                    <rect id="Rectangle-path" stroke="#314F56" stroke-width="10.2490655" fill="#D7D7D7" x="26.2106345" y="230.277044" width="165.315071" height="48.7087685"></rect>
                                    <rect id="Rectangle-path" stroke="#314F56" stroke-width="10.2490655" fill="#73C8C8" x="109.476851" y="0.393497537" width="70.9067274" height="48.7087685"></rect>
                                    <g transform="translate(0.000000, 197.635468)" id="SVGID_1_-link">
                                        <g fill="#E884A4">
                                            <path d="M15.5072268,0.376748768 C7.01750881,0.376748768 0.120240893,7.26551724 0.120240893,15.7588177 C0.120240893,24.2387192 7.01750881,31.1392118 15.5072268,31.1392118 L200.02547,31.1392118 C208.525235,31.1392118 215.412456,24.2504433 215.412456,15.7588177 C215.412456,7.27724138 208.515188,0.376748768 200.02547,0.376748768 L15.5072268,0.376748768 L15.5072268,0.376748768 Z" id="SVGID_1_"></path>
                                        </g>
                                        <g stroke="#314F56" stroke-width="10.2490655">
                                            <path d="M15.5072268,0.376748768 C7.01750881,0.376748768 0.120240893,7.26551724 0.120240893,15.7588177 C0.120240893,24.2387192 7.01750881,31.1392118 15.5072268,31.1392118 L200.02547,31.1392118 C208.525235,31.1392118 215.412456,24.2504433 215.412456,15.7588177 C215.412456,7.27724138 208.515188,0.376748768 200.02547,0.376748768 L15.5072268,0.376748768 L15.5072268,0.376748768 Z" id="SVGID_1_"></path>
                                        </g>
                                    </g>
                                    <g id="SVGID_3_-link" transform="translate(16.745006, 105.517241)" fill="#E9E7D1">
                                        <path d="M0.0633078731,92.5 L184.601645,92.5 C184.601645,41.526798 143.291716,0.209261084 92.3299647,0.209261084 C41.3715629,0.209261084 0.0633078731,41.526798 0.0633078731,92.5" id="SVGID_3_"></path>
                                    </g>
                                    <path d="M201.346651,198.017241 C201.346651,147.044039 160.036722,105.726502 109.074971,105.726502 C58.1165687,105.726502 16.8083137,147.044039 16.8083137,198.017241 L201.346651,198.017241 L201.346651,198.017241 Z" id="Shape" stroke="#324E55" stroke-width="10.2490655" fill="#E9E7D1"></path>
                                    <g id="Clipped" transform="translate(57.607521, 146.389163)">
                                        <mask id="mask-2" fill="white">
                                            <use xlink:href="#path-1"></use>
                                        </mask>
                                        <g id="SVGID_5_"></g>
                                        <rect id="Rectangle-path" stroke="#324E55" stroke-width="20.498131" mask="url(#mask-2)" x="0.209312573" y="0.355073892" width="10.2512926" height="10.2535961"></rect>
                                    </g>
                                    <g id="Clipped" transform="translate(87.748531, 120.591133)">
                                        <mask id="mask-4" fill="white">
                                            <use xlink:href="#path-3"></use>
                                        </mask>
                                        <g id="SVGID_7_"></g>
                                        <rect id="Rectangle-path" stroke="#324E55" stroke-width="20.498131" mask="url(#mask-4)" x="0.823854289" y="0.517438424" width="10.2529671" height="10.2552709"></rect>
                                    </g>
                                    <g id="Clipped" transform="translate(82.725029, 171.512315)">
                                        <mask id="mask-6" fill="white">
                                            <use xlink:href="#path-5"></use>
                                        </mask>
                                        <g id="SVGID_9_"></g>
                                        <rect id="Rectangle-path" stroke="#324E55" stroke-width="20.498131" mask="url(#mask-6)" x="0.723384254" y="0.867586207" width="10.2512926" height="10.2552709"></rect>
                                    </g>
                                    <g id="Clipped" transform="translate(113.866040, 136.339901)">
                                        <mask id="mask-8" fill="white">
                                            <use xlink:href="#path-7"></use>
                                        </mask>
                                        <g id="SVGID_11_"></g>
                                        <rect id="Rectangle-path" stroke="#324E55" stroke-width="20.498131" mask="url(#mask-8)" x="0.336251469" y="0.150738916" width="10.2546416" height="10.2535961"></rect>
                                    </g>
                                    <g id="Clipped" transform="translate(118.889542, 166.487685)">
                                        <mask id="mask-10" fill="white">
                                            <use xlink:href="#path-9"></use>
                                        </mask>
                                        <g id="SVGID_13_"></g>
                                        <rect id="Rectangle-path" stroke="#324E55" stroke-width="20.498131" mask="url(#mask-10)" x="0.441745006" y="0.765418719" width="10.2496181" height="10.2552709"></rect>
                                    </g>
                                    <g id="Clipped" transform="translate(154.728555, 151.413793)">
                                        <mask id="mask-12" fill="white">
                                            <use xlink:href="#path-11"></use>
                                        </mask>
                                        <g id="SVGID_15_"></g>
                                        <rect id="Rectangle-path" stroke="#324E55" stroke-width="20.498131" mask="url(#mask-12)" x="0.48393067" y="0.457241379" width="10.2529671" height="10.2552709"></rect>
                                    </g>
                                    <path d="M109.074971,105.726502 L109.074971,3.18216749" id="Shape" stroke="#324E55" stroke-width="10.2490655"></path>
                                </g>
                            </g>
                        </g>
                    </g>
                </g>
            </g>
        </g>
    </g>
</svg>