<?xml version="1.0" encoding="UTF-8" standalone="no"?>
<svg width="42px" height="48px" viewBox="0 0 42 48" version="1.1" xmlns="http://www.w3.org/2000/svg" xmlns:xlink="http://www.w3.org/1999/xlink">
    <!-- Generator: Sketch 40 (33762) - http://www.bohemiancoding.com/sketch -->
    <title>caracteres</title>
    <desc>Created with Sketch.</desc>
    <defs></defs>
    <g id="Website-Desktop" stroke="none" stroke-width="1" fill="none" fill-rule="evenodd">
        <g id="Massive-SMS" transform="translate(-251.000000, -2477.000000)" fill="#6A7785">
            <g id="Características" transform="translate(250.000000, 2043.000000)">
                <g id="Features" transform="translate(0.000000, 200.000000)">
                    <g id="Feature" transform="translate(0.000000, 234.000000)">
                        <g id="caracteres" transform="translate(1.000000, 0.000000)">
                            <path d="M19.706,24 L22.372,31.124 C22.522,31.526 22.906,31.774 23.31,31.774 C23.428,31.774 23.544,31.754 23.66,31.712 C24.178,31.516 24.442,30.94 24.248,30.424 L13.146,0.768 C13,0.376 12.626,0.118 12.21,0.118 L12.208,0.118 C11.792,0.118 11.418,0.376 11.272,0.764 L0.118,30.304 C-0.078,30.822 0.184,31.398 0.7,31.594 C1.22,31.786 1.796,31.528 1.99,31.012 L4.636,24 L19.706,24 L19.706,24 Z M12.206,3.958 L18.958,22 L5.392,22 L12.206,3.958 L12.206,3.958 Z" id="Shape"></path>
                            <path d="M41.57,17.466 C41.116,17.156 40.494,17.262 40.178,17.718 L21.418,44.736 L12.636,35.954 C12.246,35.564 11.612,35.564 11.222,35.954 C10.832,36.344 10.832,36.978 11.222,37.368 L20.848,46.994 C21.036,47.182 21.292,47.286 21.556,47.286 C21.586,47.286 21.614,47.284 21.646,47.282 C21.94,47.254 22.208,47.1 22.378,46.856 L41.822,18.856 C42.136,18.406 42.024,17.784 41.57,17.466 L41.57,17.466 Z" id="Shape"></path>
                        </g>
                    </g>
                </g>
            </g>
        </g>
    </g>
</svg>