<?xml version="1.0" encoding="UTF-8" standalone="no"?>
<svg width="48px" height="48px" viewBox="0 0 48 48" version="1.1" xmlns="http://www.w3.org/2000/svg" xmlns:xlink="http://www.w3.org/1999/xlink">
    <!-- Generator: Sketch 39.1 (31720) - http://www.bohemiancoding.com/sketch -->
    <title>clock</title>
    <desc>Created with Sketch.</desc>
    <defs></defs>
    <g id="Website-Desktop" stroke="none" stroke-width="1" fill="none" fill-rule="evenodd">
        <g id="Home" transform="translate(-730.000000, -1586.000000)" fill="#6A7785">
            <g id="panel-web" transform="translate(250.000000, 906.000000)">
                <g id="Feature" transform="translate(480.000000, 680.000000)">
                    <g id="Group">
                        <path d="M24,0 C10.766,0 0,10.766 0,24 C0,37.234 10.766,48 24,48 C37.234,48 48,37.234 48,24 C48,10.766 37.234,0 24,0 Z M24,46 C11.87,46 2,36.132 2,24 C2,11.87 11.87,2 24,2 C36.13,2 46,11.87 46,24 C46,36.132 36.13,46 24,46 Z M24,23.56 L24,13 C24,12.448 23.552,12 23,12 C22.448,12 22,12.448 22,13 L22,24 C22,24.28 22.118,24.548 22.324,24.738 L34.324,35.738 C34.516,35.914 34.758,36 35,36 C35.27,36 35.54,35.89 35.738,35.676 C36.112,35.268 36.084,34.636 35.676,34.262 L24,23.56 Z" id="clock"></path>
                    </g>
                </g>
            </g>
        </g>
    </g>
</svg>