<?xml version="1.0" encoding="UTF-8" standalone="no"?>
<svg width="12px" height="12px" viewBox="0 0 12 12" version="1.1" xmlns="http://www.w3.org/2000/svg" xmlns:xlink="http://www.w3.org/1999/xlink">
    <!-- Generator: Sketch 40 (33762) - http://www.bohemiancoding.com/sketch -->
    <title>Shape</title>
    <desc>Created with Sketch.</desc>
    <defs></defs>
    <g id="Website-Desktop" stroke="none" stroke-width="1" fill="none" fill-rule="evenodd" fill-opacity="0.3">
        <g id="Massive-SMS" transform="translate(-986.000000, -3705.000000)" fill="#FFFFFF">
            <g id="Tarifas" transform="translate(0.000000, 3387.000000)">
                <g id="Price" transform="translate(426.000000, 292.000000)">
                    <g transform="translate(408.000000, 0.000000)" id="Shape">
                        <path d="M163.629743,27.4374504 L162.553094,26.3592039 C162.07464,25.8802654 161.237979,25.8802654 160.759017,26.3592039 L160.400303,26.7182808 L160.400303,26.7182808 C160.400303,26.7182808 160.400303,26.7182808 160.400303,26.7187887 L152.973351,34.1537631 C152.972844,34.154271 152.971829,34.154271 152.971322,34.1552868 C152.970815,34.1557947 152.970815,34.1563026 152.9698,34.1568105 L152.843971,34.2832746 C152.810484,34.3167952 152.787145,34.3589499 152.77649,34.4046599 L152.006802,37.6881567 C151.986507,37.7734819 152.012384,37.8633781 152.074283,37.9258483 C152.122484,37.9740977 152.187428,38 152.253894,38 C152.273174,38 152.292454,37.9974606 152.311735,37.9933975 L155.59242,37.2229311 C155.638084,37.2122655 155.680196,37.1889026 155.713682,37.155382 L155.839511,37.0294258 C155.840019,37.0289179 155.841033,37.0289179 155.841541,37.0279021 C155.842048,37.0268863 155.842048,37.0263784 155.843063,37.0258706 L162.539902,30.3232708 C162.542439,30.3217471 162.545483,30.3207314 162.547513,30.3181919 C162.549542,30.3156525 162.550557,30.3126051 162.552587,30.3105736 L163.264941,29.5974987 C163.26697,29.5954671 163.269507,29.5949592 163.271537,29.5929277 C163.273566,29.5908961 163.274074,29.5883567 163.276103,29.5863251 L163.629743,29.2323271 C164.123419,28.7371361 164.123419,27.9316256 163.629743,27.4374504 L163.629743,27.4374504 Z M162.367902,29.7772911 L160.220185,27.6172428 L160.579406,27.2571501 L162.732705,29.4121195 L162.367902,29.7772911 L162.367902,29.7772911 Z M155.66193,36.4895407 L153.509646,34.3350792 L159.861471,27.9758118 L162.009188,30.1358601 L155.66193,36.4895407 L155.66193,36.4895407 Z M153.214862,34.75815 L155.239287,36.7851316 L152.594342,37.4057709 L153.214862,34.75815 L153.214862,34.75815 Z M163.270522,28.8732502 L163.090911,29.0530426 L160.937613,26.8975653 L161.117224,26.7177729 C161.40389,26.4303082 161.906191,26.4298003 162.193873,26.7177729 L163.270522,27.7960194 C163.566829,28.0926261 163.566829,28.5761356 163.270522,28.8732502 L163.270522,28.8732502 Z"></path>
                    </g>
                </g>
            </g>
        </g>
    </g>
</svg>