<?xml version="1.0" encoding="UTF-8" standalone="no"?>
<svg width="48px" height="48px" viewBox="0 0 48 48" version="1.1" xmlns="http://www.w3.org/2000/svg" xmlns:xlink="http://www.w3.org/1999/xlink">
    <!-- Generator: Sketch 40 (33762) - http://www.bohemiancoding.com/sketch -->
    <title>safe-1</title>
    <desc>Created with Sketch.</desc>
    <defs></defs>
    <g id="Website-Desktop" stroke="none" stroke-width="1" fill="none" fill-rule="evenodd">
        <g id="SMS-Verify" transform="translate(-490.000000, -1348.000000)" fill="#6A7785">
            <g id="Características" transform="translate(250.000000, 1148.000000)">
                <g id="Features" transform="translate(0.000000, 200.000000)">
                    <g id="Feature" transform="translate(240.000000, 0.000000)">
                        <g id="safe-1">
                            <path d="M43,0 L5,0 C2.242,0 0,2.244 0,5 L0,41 C0,43.414 1.72,45.434 4,45.898 L4,47 C4,47.552 4.448,48 5,48 C5.552,48 6,47.552 6,47 L6,46 L42,46 L42,47 C42,47.552 42.448,48 43,48 C43.552,48 44,47.552 44,47 L44,45.898 C46.28,45.434 48,43.414 48,41 L48,5 C48,2.244 45.758,0 43,0 L43,0 Z M46,41 C46,42.654 44.654,44 43,44 L5,44 C3.346,44 2,42.654 2,41 L2,5 C2,3.346 3.346,2 5,2 L43,2 C44.654,2 46,3.346 46,5 L46,41 L46,41 Z" id="Shape"></path>
                            <path d="M37,6 L11,6 C8.242,6 6,8.244 6,11 L6,12 L5,12 C4.448,12 4,12.448 4,13 L4,19 C4,19.552 4.448,20 5,20 L6,20 L6,26 L5,26 C4.448,26 4,26.448 4,27 L4,33 C4,33.552 4.448,34 5,34 L6,34 L6,35 C6,37.756 8.242,40 11,40 L37,40 C39.758,40 42,37.756 42,35 L42,11 C42,8.244 39.758,6 37,6 L37,6 Z M6,14 L8,14 L8,18 L6,18 L6,14 L6,14 Z M6,28 L8,28 L8,32 L6,32 L6,28 L6,28 Z M40,35 C40,36.654 38.654,38 37,38 L11,38 C9.346,38 8,36.654 8,35 L8,34 L9,34 C9.552,34 10,33.552 10,33 L10,27 C10,26.448 9.552,26 9,26 L8,26 L8,20 L9,20 C9.552,20 10,19.552 10,19 L10,13 C10,12.448 9.552,12 9,12 L8,12 L8,11 C8,9.346 9.346,8 11,8 L37,8 C38.654,8 40,9.346 40,11 L40,35 L40,35 Z" id="Shape"></path>
                            <path d="M32.09,15.96 C32.082,15.952 32.08,15.938 32.07,15.93 C32.06,15.922 32.048,15.918 32.038,15.91 C30.23,14.114 27.744,13 25,13 C22.256,13 19.77,14.114 17.96,15.91 C17.952,15.918 17.94,15.92 17.93,15.93 C17.92,15.94 17.918,15.952 17.91,15.96 C16.114,17.768 15,20.256 15,23 C15,25.742 16.114,28.228 17.906,30.036 C17.916,30.046 17.92,30.06 17.93,30.072 C17.942,30.082 17.956,30.086 17.968,30.096 C19.776,31.888 22.26,33 25,33 C27.738,33 30.22,31.89 32.028,30.1 C32.042,30.088 32.06,30.084 32.07,30.072 C32.082,30.06 32.086,30.044 32.098,30.032 C33.888,28.224 35,25.74 35,23 C35,20.256 33.886,17.768 32.09,15.96 L32.09,15.96 Z M31.292,27.88 L29.878,26.466 C30.394,25.744 30.746,24.908 30.898,24 L32.898,24 C32.714,25.454 32.15,26.778 31.292,27.88 L31.292,27.88 Z M17.102,24 L19.102,24 C19.254,24.908 19.606,25.746 20.122,26.466 L18.708,27.88 C17.848,26.776 17.286,25.454 17.102,24 L17.102,24 Z M18.708,18.12 L20.12,19.534 C19.606,20.256 19.254,21.092 19.102,22 L17.102,22 C17.286,20.546 17.848,19.224 18.708,18.12 L18.708,18.12 Z M25,27 C22.794,27 21,25.206 21,23 C21,20.794 22.794,19 25,19 C27.206,19 29,20.794 29,23 C29,25.206 27.206,27 25,27 L25,27 Z M28.466,18.12 C27.746,17.606 26.908,17.254 26,17.102 L26,15.102 C27.454,15.286 28.778,15.85 29.878,16.706 L28.466,18.12 L28.466,18.12 Z M24,17.102 C23.092,17.256 22.254,17.606 21.534,18.12 L20.122,16.706 C21.224,15.848 22.548,15.286 24,15.102 L24,17.102 L24,17.102 Z M21.536,27.88 C22.256,28.394 23.092,28.744 24,28.898 L24,30.898 C22.546,30.714 21.224,30.15 20.122,29.294 L21.536,27.88 L21.536,27.88 Z M26,28.898 C26.908,28.744 27.744,28.394 28.464,27.88 L29.878,29.294 C28.774,30.15 27.452,30.714 26,30.898 L26,28.898 L26,28.898 Z M30.898,22 C30.746,21.092 30.394,20.256 29.88,19.534 L31.292,18.12 C32.152,19.224 32.714,20.546 32.898,22 L30.898,22 L30.898,22 Z" id="Shape"></path>
                        </g>
                    </g>
                </g>
            </g>
        </g>
    </g>
</svg>