<?xml version="1.0" encoding="UTF-8" standalone="no"?>
<svg width="42px" height="48px" viewBox="0 0 42 48" version="1.1" xmlns="http://www.w3.org/2000/svg" xmlns:xlink="http://www.w3.org/1999/xlink">
    <!-- Generator: Sketch 40 (33762) - http://www.bohemiancoding.com/sketch -->
    <title>globe-1</title>
    <desc>Created with Sketch.</desc>
    <defs></defs>
    <g id="Website-Desktop" stroke="none" stroke-width="1" fill="none" fill-rule="evenodd">
        <g id="SMS-Verify" transform="translate(-971.000000, -1348.000000)" fill="#6A7785">
            <g id="Características" transform="translate(250.000000, 1148.000000)">
                <g id="Features" transform="translate(0.000000, 200.000000)">
                    <g id="Feature" transform="translate(720.000000, 0.000000)">
                        <g id="globe-1" transform="translate(1.000000, 0.000000)">
                            <path d="M18.1221326,35 C27.5375581,35 35.1972588,27.374 35.1972588,18 C35.1972588,8.626 27.5375581,1 18.1221326,1 C8.70670707,1 1.04700631,8.626 1.04700631,18 C1.04700631,27.374 8.70670707,35 18.1221326,35 L18.1221326,35 Z M18.1221326,3 C26.4306881,3 33.1884205,9.728 33.1884205,18 C33.1884205,26.272 26.4306881,33 18.1221326,33 C9.81357702,33 3.0558447,26.272 3.0558447,18 C3.0558447,9.728 9.81357702,3 18.1221326,3 L18.1221326,3 Z" id="Shape"></path>
                            <path d="M34.4559975,34.264 C38.8191944,29.92 41.2217652,24.144 41.2217652,18 C41.2217652,12.192 39.0502109,6.73 35.1309672,2.478 L35.8762462,1.736 C36.2679697,1.346 36.2679697,0.712 35.8762462,0.322 C35.4845227,-0.068 34.847721,-0.068 34.4559975,0.322 L31.6155,3.15 C31.2237765,3.54 31.2237765,4.174 31.6155,4.564 C31.8123662,4.76 32.0694975,4.856 32.3266288,4.856 C32.5837601,4.856 32.8408914,4.758 33.0377576,4.564 L33.7127273,3.892 C37.2523005,7.764 39.2129268,12.726 39.2129268,18 C39.2129268,23.61 37.0192753,28.884 33.0357487,32.85 C29.0522222,36.816 23.7549154,39 18.1221326,39 C12.8248258,39 7.84290657,37.048 3.95178662,33.522 L4.62675631,32.85 C5.0184798,32.46 5.0184798,31.826 4.62675631,31.436 C4.23503283,31.046 3.59823106,31.046 3.20650758,31.436 L1.79027652,32.846 C1.79027652,32.846 1.78826768,32.848 1.78625884,32.848 C1.78425,32.848 1.78425,32.85 1.78425,32.852 L0.366010101,34.262 C-0.0257133838,34.652 -0.0257133838,35.286 0.366010101,35.676 C0.562876263,35.872 0.820007576,35.968 1.07713889,35.968 C1.3342702,35.968 1.59140152,35.87 1.78826768,35.676 L2.53354672,34.934 C6.30815404,38.386 11.0349508,40.468 16.115303,40.9 L16.115303,42.104 C12.2784217,42.466 8.64242424,43.856 5.50461869,46.2 C5.15909848,46.458 5.01647096,46.908 5.15307197,47.316 C5.28766414,47.724 5.67135227,48 6.10325253,48 L30.1369949,48 C30.5688952,48 30.9525833,47.724 31.0911932,47.316 C31.2277942,46.906 31.0871755,46.458 30.7396465,46.2 C27.6018409,43.858 23.9658434,42.466 20.130971,42.104 L20.130971,40.9 C25.5407727,40.44 30.570904,38.132 34.4559975,34.264 L34.4559975,34.264 Z M9.62273737,46 C14.8778586,43.37 21.3623889,43.37 26.6195189,46 L9.62273737,46 L9.62273737,46 Z" id="Shape"></path>
                        </g>
                    </g>
                </g>
            </g>
        </g>
    </g>
</svg>