<?xml version="1.0" encoding="UTF-8" standalone="no"?>
<svg width="48px" height="48px" viewBox="0 0 48 48" version="1.1" xmlns="http://www.w3.org/2000/svg" xmlns:xlink="http://www.w3.org/1999/xlink">
    <!-- Generator: Sketch 40 (33762) - http://www.bohemiancoding.com/sketch -->
    <title>links</title>
    <desc>Created with Sketch.</desc>
    <defs></defs>
    <g id="Website-Desktop" stroke="none" stroke-width="1" fill="none" fill-rule="evenodd">
        <g id="Massive-SMS" transform="translate(-490.000000, -2477.000000)" fill="#6A7785">
            <g id="Características" transform="translate(250.000000, 2043.000000)">
                <g id="Features" transform="translate(0.000000, 200.000000)">
                    <g id="Feature" transform="translate(240.000000, 234.000000)">
                        <g id="links">
                            <path d="M45.2334545,6.60218182 L41.3978182,2.76654545 C38.5265455,-0.106909091 33.4712727,-0.106909091 30.6,2.76654545 L21.9490909,11.4152727 C19.8218182,13.5403636 19.8218182,17.0050909 21.9512727,19.1323636 L22.1389091,19.3178182 C22.5687273,19.7432727 23.2581818,19.7410909 23.6814545,19.3134545 C24.1069091,18.8858182 24.1047273,18.1963636 23.6770909,17.7709091 L23.4916364,17.5854545 C22.2152727,16.3112727 22.2152727,14.2341818 23.4916364,12.9578182 L32.1425455,4.30690909 C34.1912727,2.256 37.8065455,2.256 39.8552727,4.30690909 L43.6887273,8.14036364 C45.8138182,10.2676364 45.8138182,13.7301818 43.6887273,15.8552727 L35.0378182,24.504 C33.7614545,25.7825455 31.6865455,25.7825455 30.4101818,24.504 L30.2225455,24.3163636 C29.7970909,23.8909091 29.1054545,23.8909091 28.68,24.3163636 C28.2545455,24.7418182 28.2545455,25.4334545 28.68,25.8589091 L28.8676364,26.0465455 C29.9301818,27.1090909 31.3265455,27.6392727 32.7250909,27.6392727 C34.1236364,27.6392727 35.5178182,27.1069091 36.5825455,26.0465455 L45.2334545,17.3956364 C48.2094545,14.424 48.2094545,9.58036364 45.2334545,6.60218182 L45.2334545,6.60218182 Z" id="Shape"></path>
                            <path d="M25.8632727,28.6821818 C25.4378182,28.2567273 24.7461818,28.2567273 24.3207273,28.6821818 C23.8952727,29.1076364 23.8952727,29.7992727 24.3207273,30.2247273 L24.5083636,30.4123636 C25.7847273,31.6865455 25.7847273,33.7636364 24.5083636,35.04 L15.8574545,43.6930909 C13.8109091,45.7418182 10.1956364,45.7418182 8.14472727,43.6930909 L4.30909091,39.8574545 C2.184,37.7323636 2.184,34.2698182 4.30909091,32.1425455 L12.96,23.4938182 C14.2363636,22.2174545 16.3134545,22.2196364 17.5898182,23.496 L17.7774545,23.6814545 C18.2072727,24.1069091 18.8967273,24.1047273 19.32,23.6770909 C19.7454545,23.2494545 19.7432727,22.56 19.3156364,22.1345455 L19.1301818,21.9490909 C17.0029091,19.824 13.5425455,19.824 11.4174545,21.9490909 L2.76654545,30.6021818 C-0.207272727,33.5781818 -0.207272727,38.4218182 2.76654545,41.4 L6.6,45.2334545 C8.03781818,46.6712727 9.95563636,47.4632727 12,47.4632727 C14.0443636,47.4632727 15.9621818,46.6712727 17.4,45.2334545 L26.0509091,36.5847273 C28.1781818,34.4596364 28.1781818,30.9949091 26.0509091,28.8698182 L25.8632727,28.6821818 L25.8632727,28.6821818 Z" id="Shape"></path>
                            <path d="M14.7447273,33.2574545 C14.9585455,33.4690909 15.2378182,33.576 15.5170909,33.576 C15.7963636,33.576 16.0756364,33.4690909 16.2894545,33.2574545 L33.2574545,16.2850909 C33.6829091,15.8596364 33.6829091,15.1701818 33.2574545,14.7425455 C32.832,14.3149091 32.1403636,14.3149091 31.7149091,14.7425455 L14.7469091,31.7127273 C14.3192727,32.1403636 14.3192727,32.8298182 14.7447273,33.2574545 L14.7447273,33.2574545 Z" id="Shape"></path>
                        </g>
                    </g>
                </g>
            </g>
        </g>
    </g>
</svg>