<?xml version="1.0" encoding="UTF-8" standalone="no"?>
<svg width="36px" height="48px" viewBox="0 0 36 48" version="1.1" xmlns="http://www.w3.org/2000/svg" xmlns:xlink="http://www.w3.org/1999/xlink">
    <!-- Generator: Sketch 39.1 (31720) - http://www.bohemiancoding.com/sketch -->
    <title>lock-white</title>
    <desc>Created with Sketch.</desc>
    <defs></defs>
    <g id="Website-Desktop" stroke="none" stroke-width="1" fill="none" fill-rule="evenodd" fill-opacity="0.698397871">
        <g id="Home" transform="translate(-730.000000, -2456.000000)" fill="#FFFFFF">
            <g id="API" transform="translate(0.000000, 1880.000000)">
                <g id="Features" transform="translate(250.000000, 576.000000)">
                    <g id="Feature" transform="translate(480.000000, 0.000000)">
                        <g id="lock-white">
                            <path d="M18,28 C16.896,28 16,28.898 16,30 C16,30.73 16.414,31.344 17,31.694 L17,37 C17,37.552 17.448,38 18,38 C18.552,38 19,37.552 19,37 L19,31.694 C19.586,31.344 20,30.73 20,30 C20,28.898 19.104,28 18,28 L18,28 Z" id="Shape"></path>
                            <path d="M35,18 L30,18 L30,12 C30,5.382 24.618,0 18,0 C11.382,0 6,5.382 6,12 L6,18 L1,18 C0.448,18 0,18.448 0,19 L0,47 C0,47.552 0.448,48 1,48 L35,48 C35.552,48 36,47.552 36,47 L36,19 C36,18.448 35.552,18 35,18 L35,18 Z M8,12 C8,6.486 12.486,2 18,2 C23.514,2 28,6.486 28,12 L28,18 L8,18 L8,12 L8,12 Z M34,46 L2,46 L2,20 L7,20 L29,20 L34,20 L34,46 L34,46 Z" id="Shape"></path>
                        </g>
                    </g>
                </g>
            </g>
        </g>
    </g>
</svg>