<?xml version="1.0" encoding="UTF-8" standalone="no"?>
<svg width="48px" height="48px" viewBox="0 0 48 48" version="1.1" xmlns="http://www.w3.org/2000/svg" xmlns:xlink="http://www.w3.org/1999/xlink">
    <!-- Generator: Sketch 40 (33762) - http://www.bohemiancoding.com/sketch -->
    <title>credit-card-block</title>
    <desc>Created with Sketch.</desc>
    <defs></defs>
    <g id="Website-Desktop" stroke="none" stroke-width="1" fill="none" fill-rule="evenodd">
        <g id="Pricing" transform="translate(-250.000000, -1446.000000)" fill="#6A7785">
            <g id="Características" transform="translate(250.000000, 1446.000000)">
                <g id="Features">
                    <g id="Feature">
                        <g id="credit-card-block">
                            <path d="M23.958,25 C23.958,24.448 23.51,24 22.958,24 L5,24 C3.346,24 2,22.654 2,21 L2,8 L33.958,8 L33.958,13 C33.958,13.552 34.406,14 34.958,14 C35.51,14 35.958,13.552 35.958,13 L35.958,5 C35.958,2.244 33.716,0 30.958,0 L5,0 C2.242,0 0,2.244 0,5 L0,21 C0,23.756 2.242,26 5,26 L22.958,26 C23.512,26 23.958,25.552 23.958,25 L23.958,25 Z M5,2 L30.958,2 C32.612,2 33.958,3.346 33.958,5 L33.958,6 L2,6 L2,5 C2,3.346 3.346,2 5,2 L5,2 Z" id="Shape"></path>
                            <path d="M17.958,11 C17.958,10.448 17.51,10 16.958,10 L6.958,10 C6.406,10 5.958,10.448 5.958,11 C5.958,11.552 6.406,12 6.958,12 L16.958,12 C17.512,12 17.958,11.552 17.958,11 L17.958,11 Z" id="Shape"></path>
                            <path d="M26.958,10 C26.406,10 25.958,10.448 25.958,11 C25.958,11.552 26.406,12 26.958,12 L30.958,12 C31.51,12 31.958,11.552 31.958,11 C31.958,10.448 31.512,10 30.958,10 L26.958,10 L26.958,10 Z" id="Shape"></path>
                            <path d="M6.958,14 C6.406,14 5.958,14.448 5.958,15 C5.958,15.552 6.406,16 6.958,16 L12.958,16 C13.51,16 13.958,15.552 13.958,15 C13.958,14.448 13.512,14 12.958,14 L6.958,14 L6.958,14 Z" id="Shape"></path>
                            <path d="M35,22 C27.832,22 22,27.832 22,35 C22,42.168 27.832,48 35,48 C42.168,48 48,42.168 48,35 C48,27.832 42.168,22 35,22 L35,22 Z M35,24 C37.672,24 40.124,24.96 42.034,26.552 L26.552,42.032 C24.96,40.124 24,37.672 24,35 C24,28.934 28.936,24 35,24 L35,24 Z M35,46 C32.326,46 29.874,45.04 27.964,43.446 L43.446,27.966 C45.04,29.874 46,32.326 46,35 C46,41.066 41.064,46 35,46 L35,46 Z" id="Shape"></path>
                        </g>
                    </g>
                </g>
            </g>
        </g>
    </g>
</svg>