<?xml version="1.0" encoding="UTF-8" standalone="no"?>
<svg width="21px" height="24px" viewBox="0 0 21 24" version="1.1" xmlns="http://www.w3.org/2000/svg" xmlns:xlink="http://www.w3.org/1999/xlink">
    <!-- Generator: Sketch 40 (33762) - http://www.bohemiancoding.com/sketch -->
    <title>no-cuotas-white</title>
    <desc>Created with Sketch.</desc>
    <defs></defs>
    <g id="Website-Desktop" stroke="none" stroke-width="1" fill="none" fill-rule="evenodd">
        <g id="SMS-Verify" transform="translate(-599.000000, -3266.000000)" fill="#FFFFFF">
            <g id="Tarifas" transform="translate(0.000000, 3052.000000)">
                <g id="Intro" transform="translate(317.000000, 120.000000)">
                    <g id="features" transform="translate(0.000000, 92.000000)">
                        <g id="Group-3" transform="translate(282.000000, 0.000000)">
                            <g id="no-cuotas-white" transform="translate(0.000000, 2.000000)">
                                <path d="M7.185,15.535 C7.039,15.478 6.876,15.491 6.744,15.571 C6.61,15.651 6.521,15.789 6.504,15.943 C6.474,16.214 6.356,16.44 6.167,16.659 C5.853,15.613 5.958,13.888 7.297,12.903 C7.488,12.762 7.555,12.507 7.455,12.292 C7.357,12.077 7.126,11.959 6.889,12.013 C3.531,12.785 1,16.003 1,19.5 C1,21.837 2.797,23.741 5.077,23.957 C5.214,23.985 5.355,24 5.5,24 C5.645,24 5.786,23.985 5.923,23.957 C8.203,23.741 10,21.837 10,19.5 C10,17.689 8.974,16.244 7.185,15.535 L7.185,15.535 Z M4.401,21.902 C4.401,21.042 4.894,20.237 5.616,19.825 C5.72,20.193 5.934,20.533 6.134,20.85 C6.373,21.228 6.599,21.586 6.599,21.901 C6.599,22.508 6.105,23 5.5,23 C4.895,23 4.401,22.508 4.401,21.902 L4.401,21.902 Z M7.557,22.318 C7.584,22.184 7.599,22.045 7.599,21.902 C7.599,21.298 7.27,20.777 6.981,20.317 C6.726,19.913 6.485,19.532 6.575,19.262 C6.632,19.091 6.592,18.902 6.471,18.768 C6.35,18.634 6.165,18.576 5.99,18.617 C4.515,18.954 3.403,20.367 3.403,21.902 C3.403,22.044 3.418,22.183 3.445,22.318 C2.573,21.681 2,20.659 2,19.5 C2,17.07 3.402,14.794 5.451,13.635 C4.774,15.087 4.954,16.824 5.583,17.775 C5.661,17.893 5.785,17.973 5.925,17.994 C6.073,18.016 6.209,17.975 6.318,17.886 C6.716,17.56 7.1,17.191 7.32,16.702 C8.408,17.301 9,18.278 9,19.5 C9,20.659 8.427,21.681 7.557,22.318 L7.557,22.318 Z" id="Shape"></path>
                                <path d="M20.399,7.672 L13.328,0.601 C13.133,0.406 12.816,0.406 12.621,0.601 L0.601,12.621 C0.507,12.715 0.455,12.842 0.455,12.975 C0.455,13.108 0.508,13.235 0.601,13.329 L1.6,14.327 C1.795,14.522 2.112,14.522 2.307,14.327 C2.502,14.132 2.502,13.815 2.307,13.62 L1.661,12.974 L12.975,1.662 L19.339,8.026 L10.447,16.917 C10.252,17.112 10.252,17.429 10.447,17.624 C10.545,17.722 10.673,17.77 10.801,17.77 C10.929,17.77 11.057,17.721 11.155,17.624 L20.4,8.379 C20.494,8.285 20.546,8.158 20.546,8.025 C20.546,7.892 20.493,7.766 20.399,7.672 L20.399,7.672 Z" id="Shape"></path>
                                <path d="M8.732,8.732 C7.757,9.707 7.757,11.293 8.732,12.268 C9.205,12.74 9.833,13 10.5,13 C11.167,13 11.795,12.74 12.268,12.269 C13.243,11.294 13.243,9.708 12.268,8.733 C11.322,7.788 9.678,7.788 8.732,8.732 L8.732,8.732 Z M11.561,11.561 C10.995,12.127 10.006,12.127 9.44,11.561 C8.855,10.976 8.855,10.024 9.44,9.439 C9.723,9.156 10.1,9 10.5,9 C10.9,9 11.277,9.156 11.561,9.439 C12.146,10.024 12.146,10.976 11.561,11.561 L11.561,11.561 Z" id="Shape"></path>
                                <path d="M11.914,5.55 L13.328,4.136 C13.523,3.941 13.523,3.624 13.328,3.429 C13.133,3.234 12.816,3.234 12.621,3.429 L11.207,4.843 C11.012,5.038 11.012,5.355 11.207,5.55 C11.305,5.648 11.433,5.696 11.561,5.696 C11.689,5.696 11.816,5.647 11.914,5.55 L11.914,5.55 Z" id="Shape"></path>
                            </g>
                        </g>
                    </g>
                </g>
            </g>
        </g>
    </g>
</svg>