<?xml version="1.0" encoding="UTF-8" standalone="no"?>
<svg width="24px" height="19px" viewBox="0 0 24 19" version="1.1" xmlns="http://www.w3.org/2000/svg" xmlns:xlink="http://www.w3.org/1999/xlink">
    <!-- Generator: Sketch 40 (33762) - http://www.bohemiancoding.com/sketch -->
    <title>pago-sencillo-white</title>
    <desc>Created with Sketch.</desc>
    <defs></defs>
    <g id="Website-Desktop" stroke="none" stroke-width="1" fill="none" fill-rule="evenodd">
        <g id="SMS-Verify" transform="translate(-850.000000, -3269.000000)" fill="#FFFFFF">
            <g id="Tarifas" transform="translate(0.000000, 3052.000000)">
                <g id="Intro" transform="translate(317.000000, 120.000000)">
                    <g id="features" transform="translate(0.000000, 92.000000)">
                        <g id="pay" transform="translate(533.000000, 0.000000)">
                            <g id="pago-sencillo-white" transform="translate(0.000000, 5.000000)">
                                <path d="M22,0 L7,0 C5.897,0 5,0.897 5,2 L5,3.167 C3.019,3.591 0,5.073 0,10.166 L0,13.5 C0,16.533 2.468,19 5.5,19 L11.5,19 L13,19 C14.103,19 15,18.103 15,17 C15,16.634 14.895,16.295 14.722,16 L17,16 C18.103,16 19,15.103 19,14 C19,13.634 18.895,13.295 18.722,13 L22,13 C23.103,13 24,12.103 24,11 L24,2 C24,0.897 23.103,0 22,0 L22,0 Z M6,2 C6,1.449 6.448,1 7,1 L22,1 C22.552,1 23,1.449 23,2 L23,4 L11.688,4 C11.24,3.345 10.371,3 9.5,3 L6.5,3 C6.383,3 6.207,3.006 6,3.022 L6,2 L6,2 Z M18,14 C18,14.551 17.552,15 17,15 L13,15 L10.5,15 C10.224,15 10,15.224 10,15.5 C10,15.776 10.224,16 10.5,16 L13,16 C13.552,16 14,16.449 14,17 C14,17.551 13.552,18 13,18 L11.5,18 L5.5,18 C3.019,18 1,15.981 1,13.5 L1,10.166 C1,4.445 5.21,4 6.5,4 L9.5,4 C10.103,4 11,4.266 11,5 L11,5.5 C11,6.291 10.019,6.5 9.5,6.5 L7.5,6.5 C7.276,6.5 7.081,6.648 7.02,6.863 C6.77,7.735 5.831,10 4.5,10 C4.224,10 4,10.224 4,10.5 C4,10.776 4.224,11 4.5,11 C4.675,11 4.84,10.974 5,10.936 L5,11 C5,12.103 5.897,13 7,13 L10.5,13 L17,13 C17.552,13 18,13.449 18,14 L18,14 Z M22,12 L17,12 L10.5,12 L7,12 C6.448,12 6,11.551 6,11 L6,10.437 C7.016,9.634 7.623,8.18 7.863,7.5 L9.5,7.5 C10.742,7.5 12,6.813 12,5.5 L12,5 L23,5 L23,11 C23,11.551 22.552,12 22,12 L22,12 Z" id="Shape"></path>
                                <path d="M21.5,6 L18.5,6 C18.224,6 18,6.224 18,6.5 C18,6.776 18.224,7 18.5,7 L21.5,7 C21.776,7 22,6.776 22,6.5 C22,6.224 21.776,6 21.5,6 L21.5,6 Z" id="Shape"></path>
                            </g>
                        </g>
                    </g>
                </g>
            </g>
        </g>
    </g>
</svg>