<?xml version="1.0" encoding="UTF-8" standalone="no"?>
<svg width="40px" height="40px" viewBox="0 0 40 40" version="1.1" xmlns="http://www.w3.org/2000/svg" xmlns:xlink="http://www.w3.org/1999/xlink">
    <!-- Generator: Sketch 40 (33762) - http://www.bohemiancoding.com/sketch -->
    <title>globe-add</title>
    <desc>Created with Sketch.</desc>
    <defs></defs>
    <g id="Website-Desktop" stroke="none" stroke-width="1" fill="none" fill-rule="evenodd">
        <g id="Pricing" transform="translate(-970.000000, -1454.000000)" fill="#6A7785">
            <g id="Características" transform="translate(250.000000, 1446.000000)">
                <g id="Features">
                    <g id="Feature" transform="translate(720.000000, 8.000000)">
                        <g id="globe-add">
                            <path d="M20,38.3333333 C9.89166667,38.3333333 1.66666667,30.1083333 1.66666667,20 C1.66666667,9.89166667 9.89166667,1.66666667 20,1.66666667 C21.15,1.66666667 22.2733333,1.78666667 23.3666667,1.99 L17.92,5.11166667 C17.67,5.255 17.5116667,5.51833333 17.5016667,5.80666667 C17.4916667,6.095 17.6316667,6.36833333 17.8716667,6.52833333 L20,7.94666667 L20,11.6666667 L11.2533333,11.6666667 C10.97,11.6666667 10.705,11.81 10.5533333,12.0483333 L6.8,17.8816667 C6.56833333,18.24 6.64666667,18.7166667 6.98,18.9833333 L15,25.4 L15,29.1666667 C15,29.6266667 15.3733333,30 15.8333333,30 C16.2933333,30 16.6666667,29.6266667 16.6666667,29.1666667 L16.6666667,25 C16.6666667,24.7466667 16.5516667,24.5083333 16.3533333,24.3483333 L8.60666667,18.1516667 L11.7083333,13.3333333 L20.8333333,13.3333333 C21.2933333,13.3333333 21.6666667,12.96 21.6666667,12.5 L21.6666667,7.5 C21.6666667,7.22166667 21.5283333,6.96166667 21.295,6.80666667 L19.9166667,5.88666667 L25.6866667,2.58 C28.5433333,3.515 31.0916667,5.13166667 33.14,7.24166667 L30.755,11.6666667 L28.3366667,11.6666667 C28.115,11.6666667 27.9033333,11.755 27.7466667,11.91 L24.83,14.8266667 C24.505,15.1516667 24.505,15.68 24.83,16.005 C24.9933333,16.1683333 25.2066667,16.2483333 25.42,16.2483333 C25.6333333,16.2483333 25.8466667,16.1666667 26.01,16.005 L28.6816667,13.3333333 L31.2533333,13.3333333 C31.56,13.3333333 31.8416667,13.165 31.9866667,12.895 L34.3133333,8.575 C36.8233333,11.7116667 38.3333333,15.68 38.3333333,20 C38.3333333,20.46 38.7066667,20.8333333 39.1666667,20.8333333 C39.6266667,20.8333333 40,20.46 40,20 C40,14.88 38.0483333,10.2166667 34.8716667,6.675 C34.815,6.58 34.7416667,6.5 34.65,6.43166667 C32.28,3.875 29.2666667,1.925 25.8516667,0.878333333 C25.83,0.871666667 25.8083333,0.866666667 25.785,0.861666667 C23.9533333,0.305 22.0116667,0 20,0 C8.97166667,0 0,8.97166667 0,20 C0,31.0283333 8.97166667,40 20,40 C20.46,40 20.8333333,39.6266667 20.8333333,39.1666667 C20.8333333,38.7066667 20.46,38.3333333 20,38.3333333 L20,38.3333333 Z" id="Shape"></path>
                            <path d="M29.1666667,18.3333333 C23.1933333,18.3333333 18.3333333,23.1933333 18.3333333,29.1666667 C18.3333333,35.14 23.1933333,40 29.1666667,40 C35.14,40 40,35.14 40,29.1666667 C40,23.1933333 35.14,18.3333333 29.1666667,18.3333333 L29.1666667,18.3333333 Z M29.1666667,38.3333333 C24.1116667,38.3333333 20,34.2216667 20,29.1666667 C20,24.1116667 24.1116667,20 29.1666667,20 C34.2216667,20 38.3333333,24.1116667 38.3333333,29.1666667 C38.3333333,34.2216667 34.2216667,38.3333333 29.1666667,38.3333333 L29.1666667,38.3333333 Z" id="Shape"></path>
                            <path d="M33.7116667,28.3333333 L30,28.3333333 L30,24.6233333 C30,24.1633333 29.6266667,23.79 29.1666667,23.79 C28.7066667,23.79 28.3333333,24.1633333 28.3333333,24.6233333 L28.3333333,28.3333333 L24.62,28.3333333 C24.16,28.3333333 23.7866667,28.7066667 23.7866667,29.1666667 C23.7866667,29.6266667 24.16,30 24.62,30 L28.3333333,30 L28.3333333,33.7133333 C28.3333333,34.1733333 28.7066667,34.5466667 29.1666667,34.5466667 C29.6266667,34.5466667 30,34.1733333 30,33.7133333 L30,30 L33.7116667,30 C34.1716667,30 34.545,29.6266667 34.545,29.1666667 C34.545,28.7066667 34.1716667,28.3333333 33.7116667,28.3333333 L33.7116667,28.3333333 Z" id="Shape"></path>
                        </g>
                    </g>
                </g>
            </g>
        </g>
    </g>
</svg>