<?xml version="1.0" encoding="UTF-8" standalone="no"?>
<svg width="48px" height="48px" viewBox="0 0 48 48" version="1.1" xmlns="http://www.w3.org/2000/svg" xmlns:xlink="http://www.w3.org/1999/xlink">
    <!-- Generator: Sketch 39.1 (31720) - http://www.bohemiancoding.com/sketch -->
    <title>phone-white</title>
    <desc>Created with Sketch.</desc>
    <defs></defs>
    <g id="Website-Desktop" stroke="none" stroke-width="1" fill="none" fill-rule="evenodd" fill-opacity="0.698397871">
        <g id="Home" transform="translate(-250.000000, -2456.000000)" fill="#FFFFFF">
            <g id="API" transform="translate(0.000000, 1880.000000)">
                <g id="Features" transform="translate(250.000000, 576.000000)">
                    <g id="Feature">
                        <g id="phone-white">
                            <path d="M23,28 C22.448,28 22,28.448 22,29 L22,38 L2,38 L2,18 L11,18 C11.552,18 12,17.552 12,17 C12,16.448 11.552,16 11,16 L2,16 L2,13 C2,11.346 3.346,10 5,10 L11,10 C11.552,10 12,9.552 12,9 C12,8.448 11.552,8 11,8 L5,8 C2.244,8 0,10.242 0,13 L0,43 C0,45.758 2.244,48 5,48 L19,48 C21.756,48 24,45.758 24,43 L24,29 C24,28.448 23.552,28 23,28 L23,28 Z M19,46 L5,46 C3.346,46 2,44.654 2,43 L2,40 L22,40 L22,43 C22,44.654 20.654,46 19,46 L19,46 Z" id="Shape"></path>
                            <path d="M11,12 L9,12 C8.448,12 8,12.448 8,13 C8,13.552 8.448,14 9,14 L11,14 C11.552,14 12,13.552 12,13 C12,12.448 11.552,12 11,12 L11,12 Z" id="Shape"></path>
                            <path d="M44,0 L20,0 C17.794,0 16,1.794 16,4 L16,16 C16,18.206 17.794,20 20,20 L26,20 L26,25 C26,25.404 26.244,25.77 26.618,25.924 C26.742,25.974 26.872,26 27,26 C27.26,26 27.516,25.898 27.708,25.708 L33.414,20 L44,20 C46.206,20 48,18.206 48,16 L48,4 C48,1.794 46.206,0 44,0 L44,0 Z M46,16 C46,17.104 45.102,18 44,18 L33,18 C32.734,18 32.48,18.106 32.292,18.292 L28,22.586 L28,19 C28,18.448 27.552,18 27,18 L20,18 C18.898,18 18,17.104 18,16 L18,4 C18,2.896 18.898,2 20,2 L44,2 C45.102,2 46,2.896 46,4 L46,16 L46,16 Z" id="Shape"></path>
                            <circle id="Oval" cx="33" cy="9" r="1"></circle>
                            <circle id="Oval" cx="39" cy="9" r="1"></circle>
                            <circle id="Oval" cx="27.062" cy="9" r="1"></circle>
                            <circle id="Oval" cx="12" cy="43" r="2"></circle>
                        </g>
                    </g>
                </g>
            </g>
        </g>
    </g>
</svg>