<?xml version="1.0" encoding="UTF-8" standalone="no"?>
<svg width="52px" height="48px" viewBox="0 0 52 48" version="1.1" xmlns="http://www.w3.org/2000/svg" xmlns:xlink="http://www.w3.org/1999/xlink">
    <!-- Generator: Sketch 40 (33762) - http://www.bohemiancoding.com/sketch -->
    <title>remitente</title>
    <desc>Created with Sketch.</desc>
    <defs></defs>
    <g id="Website-Desktop" stroke="none" stroke-width="1" fill="none" fill-rule="evenodd">
        <g id="Massive-SMS" transform="translate(-970.000000, -2475.000000)" fill="#6A7785">
            <g id="Características" transform="translate(250.000000, 2043.000000)">
                <g id="Features" transform="translate(0.000000, 200.000000)">
                    <g id="Feature" transform="translate(720.000000, 232.000000)">
                        <g id="remitente">
                            <path d="M25.6896,38.6086957 L5.33333333,38.6086957 C3.56906667,38.6086957 2.13333333,37.1651594 2.13333333,35.3913043 L2.13333333,12.8695652 L49.0666667,12.8695652 L49.0666667,21.5436522 C49.0666667,22.1356522 49.5445333,22.6161159 50.1333333,22.6161159 C50.7221333,22.6161159 51.2,22.1356522 51.2,21.5436522 L51.2,5.36231884 C51.2,2.40446377 48.8085333,0 45.8666667,0 L5.33333333,0 C2.39146667,0 0,2.40446377 0,5.36231884 L0,35.3913043 C0,38.3491594 2.39146667,40.7536232 5.33333333,40.7536232 L25.6896,40.7536232 C26.2784,40.7536232 26.7562667,40.2731594 26.7562667,39.6811594 C26.7562667,39.0891594 26.2784,38.6086957 25.6896,38.6086957 L25.6896,38.6086957 Z M5.33333333,2.14492754 L45.8666667,2.14492754 C47.6309333,2.14492754 49.0666667,3.58846377 49.0666667,5.36231884 L49.0666667,10.7246377 L2.13333333,10.7246377 L2.13333333,5.36231884 C2.13333333,3.58846377 3.56906667,2.14492754 5.33333333,2.14492754 L5.33333333,2.14492754 Z" id="Shape"></path>
                            <ellipse id="Oval" cx="8.53333333" cy="6.43478261" rx="2.13333333" ry="2.14492754"></ellipse>
                            <ellipse id="Oval" cx="14.9333333" cy="6.43478261" rx="2.13333333" ry="2.14492754"></ellipse>
                            <ellipse id="Oval" cx="21.3333333" cy="6.43478261" rx="2.13333333" ry="2.14492754"></ellipse>
                            <path d="M18.1333333,17.1594203 C17.5445333,17.1594203 17.0666667,17.6398841 17.0666667,18.2318841 C17.0666667,18.8238841 17.5445333,19.3043478 18.1333333,19.3043478 L39.4666667,19.3043478 C40.0554667,19.3043478 40.5333333,18.8238841 40.5333333,18.2318841 C40.5333333,17.6398841 40.0554667,17.1594203 39.4666667,17.1594203 L18.1333333,17.1594203 L18.1333333,17.1594203 Z" id="Shape"></path>
                            <path d="M11.7333333,17.1594203 L9.6,17.1594203 C9.0112,17.1594203 8.53333333,17.6398841 8.53333333,18.2318841 C8.53333333,18.8238841 9.0112,19.3043478 9.6,19.3043478 L11.7333333,19.3043478 C12.3221333,19.3043478 12.8,18.8238841 12.8,18.2318841 C12.8,17.6398841 12.3221333,17.1594203 11.7333333,17.1594203 L11.7333333,17.1594203 Z" id="Shape"></path>
                            <path d="M26.6666667,23.5942029 L18.1333333,23.5942029 C17.5445333,23.5942029 17.0666667,24.0746667 17.0666667,24.6666667 C17.0666667,25.2586667 17.5445333,25.7391304 18.1333333,25.7391304 L26.6666667,25.7391304 C27.2554667,25.7391304 27.7333333,25.2586667 27.7333333,24.6666667 C27.7333333,24.0746667 27.2554667,23.5942029 26.6666667,23.5942029 L26.6666667,23.5942029 Z" id="Shape"></path>
                            <path d="M11.7333333,23.5942029 L9.6,23.5942029 C9.0112,23.5942029 8.53333333,24.0746667 8.53333333,24.6666667 C8.53333333,25.2586667 9.0112,25.7391304 9.6,25.7391304 L11.7333333,25.7391304 C12.3221333,25.7391304 12.8,25.2586667 12.8,24.6666667 C12.8,24.0746667 12.3221333,23.5942029 11.7333333,23.5942029 L11.7333333,23.5942029 Z" id="Shape"></path>
                            <path d="M26.6666667,30.0289855 L18.1333333,30.0289855 C17.5445333,30.0289855 17.0666667,30.5094493 17.0666667,31.1014493 C17.0666667,31.6934493 17.5445333,32.173913 18.1333333,32.173913 L26.6666667,32.173913 C27.2554667,32.173913 27.7333333,31.6934493 27.7333333,31.1014493 C27.7333333,30.5094493 27.2554667,30.0289855 26.6666667,30.0289855 L26.6666667,30.0289855 Z" id="Shape"></path>
                            <path d="M11.7333333,30.0289855 L9.6,30.0289855 C9.0112,30.0289855 8.53333333,30.5094493 8.53333333,31.1014493 C8.53333333,31.6934493 9.0112,32.173913 9.6,32.173913 L11.7333333,32.173913 C12.3221333,32.173913 12.8,31.6934493 12.8,31.1014493 C12.8,30.5094493 12.3221333,30.0289855 11.7333333,30.0289855 L11.7333333,30.0289855 Z" id="Shape"></path>
                            <path d="M51.1957333,45.8328116 C51.0677333,41.5922899 48.4437333,37.975942 44.7530667,36.4187246 C46.5088,35.1489275 47.6650667,33.0897971 47.6650667,30.7518261 C47.6650667,26.8952464 44.544,23.7572174 40.7082667,23.7572174 C36.8725333,23.7572174 33.7536,26.8952464 33.7536,30.7518261 C33.7536,33.0897971 34.9098667,35.1489275 36.6634667,36.4187246 C32.8853333,38.0145507 30.2186667,41.7724638 30.2186667,46.1481159 C30.2186667,46.7401159 30.6965333,47.2205797 31.2853333,47.2205797 L50.1333333,47.2205797 C50.1504,47.2227246 50.1653333,47.2227246 50.176,47.2205797 C50.7648,47.2205797 51.2426667,46.7401159 51.2426667,46.1481159 C51.2426667,46.0387246 51.2277333,45.9336232 51.1957333,45.8328116 L51.1957333,45.8328116 Z M35.8890667,30.753971 C35.8890667,28.0813913 38.0522667,25.9042899 40.7104,25.9042899 C43.3685333,25.9042899 45.5338667,28.0813913 45.5338667,30.753971 C45.5338667,33.4265507 43.3685333,35.6015072 40.7104,35.6015072 C38.0522667,35.6015072 35.8890667,33.4265507 35.8890667,30.753971 L35.8890667,30.753971 Z M32.4224,45.0777971 C32.9493333,40.9488116 36.4650667,37.7464348 40.7104,37.7464348 C44.9557333,37.7464348 48.4736,40.9488116 48.9984,45.0777971 L32.4224,45.0777971 L32.4224,45.0777971 Z" id="Shape"></path>
                        </g>
                    </g>
                </g>
            </g>
        </g>
    </g>
</svg>