<?xml version="1.0" encoding="UTF-8" standalone="no"?>
<svg width="48px" height="48px" viewBox="0 0 48 48" version="1.1" xmlns="http://www.w3.org/2000/svg" xmlns:xlink="http://www.w3.org/1999/xlink">
    <!-- Generator: Sketch 39.1 (31720) - http://www.bohemiancoding.com/sketch -->
    <title>scale-white</title>
    <desc>Created with Sketch.</desc>
    <defs></defs>
    <g id="Website-Desktop" stroke="none" stroke-width="1" fill="none" fill-rule="evenodd" fill-opacity="0.698397871">
        <g id="Home" transform="translate(-490.000000, -2456.000000)" fill="#FFFFFF">
            <g id="API" transform="translate(0.000000, 1880.000000)">
                <g id="Features" transform="translate(250.000000, 576.000000)">
                    <g id="Feature" transform="translate(240.000000, 0.000000)">
                        <g id="expand-1">
                            <g id="Outline_Icons">
                                <g id="scale-white">
                                    <path d="M47,0 L7,0 C6.448,0 6,0.448 6,1 L6,41 C6,41.552 6.448,42 7,42 L47,42 C47.552,42 48,41.552 48,41 L48,1 C48,0.448 47.552,0 47,0 L47,0 Z M46,40 L22,40 L22,39 C22,38.448 21.552,38 21,38 C20.448,38 20,38.448 20,39 L20,40 L8,40 L8,28 L9,28 C9.552,28 10,27.552 10,27 C10,26.448 9.552,26 9,26 L8,26 L8,2 L46,2 L46,40 L46,40 Z" id="Shape"></path>
                                    <path d="M25,24 C25.256,24 25.512,23.902 25.708,23.708 L40,9.414 L40,17 C40,17.552 40.448,18 41,18 C41.552,18 42,17.552 42,17 L42,7 C42,6.872 41.974,6.74 41.922,6.618 C41.822,6.372 41.626,6.178 41.38,6.076 C41.26,6.026 41.13,6 41,6 L31,6 C30.448,6 30,6.448 30,7 C30,7.552 30.448,8 31,8 L38.586,8 L24.294,22.292 C23.904,22.682 23.904,23.316 24.294,23.706 C24.488,23.902 24.744,24 25,24 L25,24 Z" id="Shape"></path>
                                    <path d="M3,26 L1,26 C0.448,26 0,26.448 0,27 L0,29 C0,29.552 0.448,30 1,30 C1.552,30 2,29.552 2,29 L2,28 L3,28 C3.552,28 4,27.552 4,27 C4,26.448 3.552,26 3,26 L3,26 Z" id="Shape"></path>
                                    <path d="M1,36 C1.552,36 2,35.552 2,35 L2,33 C2,32.448 1.552,32 1,32 C0.448,32 0,32.448 0,33 L0,35 C0,35.552 0.448,36 1,36 L1,36 Z" id="Shape"></path>
                                    <path d="M13,28 L15,28 C15.552,28 16,27.552 16,27 C16,26.448 15.552,26 15,26 L13,26 C12.448,26 12,26.448 12,27 C12,27.552 12.448,28 13,28 L13,28 Z" id="Shape"></path>
                                    <path d="M9,46 L7,46 C6.448,46 6,46.448 6,47 C6,47.552 6.448,48 7,48 L9,48 C9.552,48 10,47.552 10,47 C10,46.448 9.552,46 9,46 L9,46 Z" id="Shape"></path>
                                    <path d="M15,46 L13,46 C12.448,46 12,46.448 12,47 C12,47.552 12.448,48 13,48 L15,48 C15.552,48 16,47.552 16,47 C16,46.448 15.552,46 15,46 L15,46 Z" id="Shape"></path>
                                    <path d="M3,46 L2,46 L2,45 C2,44.448 1.552,44 1,44 C0.448,44 0,44.448 0,45 L0,47 C0,47.552 0.448,48 1,48 L3,48 C3.552,48 4,47.552 4,47 C4,46.448 3.552,46 3,46 L3,46 Z" id="Shape"></path>
                                    <path d="M1,42 C1.552,42 2,41.552 2,41 L2,39 C2,38.448 1.552,38 1,38 C0.448,38 0,38.448 0,39 L0,41 C0,41.552 0.448,42 1,42 L1,42 Z" id="Shape"></path>
                                    <path d="M19,28 L20,28 L20,29 C20,29.552 20.448,30 21,30 C21.552,30 22,29.552 22,29 L22,27 C22,26.448 21.552,26 21,26 L19,26 C18.448,26 18,26.448 18,27 C18,27.552 18.448,28 19,28 L19,28 Z" id="Shape"></path>
                                    <path d="M21,32 C20.448,32 20,32.448 20,33 L20,35 C20,35.552 20.448,36 21,36 C21.552,36 22,35.552 22,35 L22,33 C22,32.448 21.552,32 21,32 L21,32 Z" id="Shape"></path>
                                    <path d="M21,44 C20.448,44 20,44.448 20,45 L20,46 L19,46 C18.448,46 18,46.448 18,47 C18,47.552 18.448,48 19,48 L21,48 C21.552,48 22,47.552 22,47 L22,45 C22,44.448 21.552,44 21,44 L21,44 Z" id="Shape"></path>
                                </g>
                            </g>
                        </g>
                    </g>
                </g>
            </g>
        </g>
    </g>
</svg>