<?xml version="1.0" encoding="UTF-8" standalone="no"?>
<svg width="24px" height="22px" viewBox="0 0 24 22" version="1.1" xmlns="http://www.w3.org/2000/svg" xmlns:xlink="http://www.w3.org/1999/xlink">
    <!-- Generator: Sketch 40 (33762) - http://www.bohemiancoding.com/sketch -->
    <title>seguro-white</title>
    <desc>Created with Sketch.</desc>
    <defs></defs>
    <g id="Website-Desktop" stroke="none" stroke-width="1" fill="none" fill-rule="evenodd">
        <g id="SMS-Verify" transform="translate(-1032.000000, -3268.000000)" fill="#FFFFFF">
            <g id="Tarifas" transform="translate(0.000000, 3052.000000)">
                <g id="Intro" transform="translate(317.000000, 120.000000)">
                    <g id="features" transform="translate(0.000000, 92.000000)">
                        <g id="Group-14" transform="translate(715.000000, 0.000000)">
                            <g id="safe-2" transform="translate(0.000000, 4.000000)">
                                <g id="Outline_Icons">
                                    <g id="seguro-white">
                                        <path d="M22.5,0 L1.5,0 C0.673,0 0,0.673 0,1.5 L0,19.5 C0,20.327 0.673,21 1.5,21 L2.5,21 L2.5,21.5 C2.5,21.776 2.724,22 3,22 L4.5,22 C4.776,22 5,21.776 5,21.5 L5,21 L19,21 L19,21.5 C19,21.776 19.224,22 19.5,22 L21,22 C21.276,22 21.5,21.776 21.5,21.5 L21.5,21 L22.5,21 C23.327,21 24,20.327 24,19.5 L24,1.5 C24,0.673 23.327,0 22.5,0 L22.5,0 Z M23,19.5 C23,19.776 22.775,20 22.5,20 L1.5,20 C1.225,20 1,19.776 1,19.5 L1,1.5 C1,1.224 1.225,1 1.5,1 L22.5,1 C22.775,1 23,1.224 23,1.5 L23,19.5 L23,19.5 Z" id="Shape"></path>
                                        <path d="M16.5,5 C15.011,5 13.8,6.23 13.8,7.743 C13.8,9.263 15.011,10.5 16.5,10.5 C17.973,10.5 19.217,9.237 19.217,7.743 C19.217,6.23 17.998,5 16.5,5 L16.5,5 Z M16.5,9.5 C15.578,9.5 14.8,8.695 14.8,7.743 C14.8,6.782 15.562,6 16.5,6 C17.431,6 18.217,6.798 18.217,7.743 C18.217,8.695 17.431,9.5 16.5,9.5 L16.5,9.5 Z" id="Shape"></path>
                                        <circle id="Oval" cx="16.509" cy="7.742" r="0.736"></circle>
                                        <rect id="Rectangle-path" x="14" y="11" width="1" height="1"></rect>
                                        <rect id="Rectangle-path" x="16" y="11" width="1" height="1"></rect>
                                        <rect id="Rectangle-path" x="18" y="11" width="1" height="1"></rect>
                                        <rect id="Rectangle-path" x="14" y="13" width="1" height="1"></rect>
                                        <rect id="Rectangle-path" x="16" y="13" width="1" height="1"></rect>
                                        <rect id="Rectangle-path" x="18" y="13" width="1" height="1"></rect>
                                        <rect id="Rectangle-path" x="14" y="15" width="1" height="1"></rect>
                                        <rect id="Rectangle-path" x="16" y="15" width="1" height="1"></rect>
                                        <rect id="Rectangle-path" x="18" y="15" width="1" height="1"></rect>
                                        <path d="M20.5,3 L4.5,3 C3.673,3 3,3.673 3,4.5 L3,6 L2.5,6 C2.224,6 2,6.224 2,6.5 L2,7.5 C2,7.776 2.224,8 2.5,8 L3,8 L3,13 L2.5,13 C2.224,13 2,13.224 2,13.5 L2,14.5 C2,14.776 2.224,15 2.5,15 L3,15 L3,16.5 C3,17.327 3.673,18 4.5,18 L20.5,18 C21.327,18 22,17.327 22,16.5 L22,4.5 C22,3.673 21.327,3 20.5,3 L20.5,3 Z M21,16.5 C21,16.776 20.775,17 20.5,17 L4.5,17 C4.225,17 4,16.776 4,16.5 L4,15 L4.5,15 C4.776,15 5,14.776 5,14.5 L5,13.5 C5,13.224 4.776,13 4.5,13 L4,13 L4,8 L4.5,8 C4.776,8 5,7.776 5,7.5 L5,6.5 C5,6.224 4.776,6 4.5,6 L4,6 L4,4.5 C4,4.224 4.225,4 4.5,4 L20.5,4 C20.775,4 21,4.224 21,4.5 L21,16.5 L21,16.5 Z" id="Shape"></path>
                                    </g>
                                </g>
                            </g>
                        </g>
                    </g>
                </g>
            </g>
        </g>
    </g>
</svg>