<?xml version="1.0" encoding="UTF-8" standalone="no"?>
<svg width="48px" height="48px" viewBox="0 0 48 48" version="1.1" xmlns="http://www.w3.org/2000/svg" xmlns:xlink="http://www.w3.org/1999/xlink">
    <!-- Generator: Sketch 40 (33762) - http://www.bohemiancoding.com/sketch -->
    <title>Shape</title>
    <desc>Created with Sketch.</desc>
    <defs></defs>
    <g id="Website-Desktop" stroke="none" stroke-width="1" fill="none" fill-rule="evenodd">
        <g id="Pricing" transform="translate(-730.000000, -1446.000000)" fill="#6A7785">
            <g id="Características" transform="translate(250.000000, 1446.000000)">
                <g id="Features">
                    <g id="Feature" transform="translate(480.000000, 0.000000)">
                        <g id="Group">
                            <path d="M47,20 L45.616,20 C43.974,11.096 36.906,4.028 28,2.382 L28,1 C28,0.448 27.552,0 27,0 L21,0 C20.448,0 20,0.448 20,1 L20,2.382 C11.094,4.028 4.024,11.096 2.38,20 L1,20 C0.448,20 0,20.448 0,21 L0,27 C0,27.552 0.448,28 1,28 L2.38,28 C4.024,36.908 11.092,43.976 20,45.618 L20,47 C20,47.552 20.448,48 21,48 L27,48 C27.552,48 28,47.552 28,47 L28,45.618 C36.906,43.976 43.972,36.906 45.616,28 L47,28 C47.552,28 48,27.552 48,27 L48,21 C48,20.448 47.552,20 47,20 L47,20 Z M43.582,20 L34.236,20 C33.118,17.15 30.85,14.882 28,13.764 L28,4.416 C35.806,6.008 41.994,12.196 43.582,20 L43.582,20 Z M24,33 C19.038,33 15,28.964 15,24 C15,19.038 19.038,15 24,15 C28.962,15 33,19.038 33,24 C33,28.964 28.962,33 24,33 L24,33 Z M26,2 L26,13.192 C25.35,13.072 24.684,13 24,13 C23.316,13 22.65,13.072 22,13.192 L22,2 L26,2 L26,2 Z M20,4.416 L20,13.764 C17.15,14.882 14.882,17.15 13.764,20 L4.414,20 C6.004,12.196 12.194,6.008 20,4.416 L20,4.416 Z M2,22 L13.192,22 C13.07,22.65 13,23.318 13,24 C13,24.684 13.07,25.35 13.192,26 L2,26 L2,22 L2,22 Z M4.414,28 L13.764,28 C14.884,30.85 17.15,33.118 20,34.238 L20,43.584 C12.196,41.996 6.004,35.808 4.414,28 L4.414,28 Z M22,46 L22,34.808 C22.65,34.928 23.316,35 24,35 C24.684,35 25.35,34.928 26,34.808 L26,46 L22,46 L22,46 Z M28,43.584 L28,34.238 C30.85,33.118 33.118,30.85 34.236,28 L43.582,28 C41.994,35.808 35.804,41.996 28,43.584 L28,43.584 Z M46,26 L34.808,26 C34.93,25.35 35,24.684 35,24 C35,23.318 34.93,22.65 34.808,22 L46,22 L46,26 L46,26 Z" id="Shape"></path>
                        </g>
                    </g>
                </g>
            </g>
        </g>
    </g>
</svg>