<?xml version="1.0" encoding="UTF-8" standalone="no"?>
<svg width="48px" height="48px" viewBox="0 0 48 48" version="1.1" xmlns="http://www.w3.org/2000/svg" xmlns:xlink="http://www.w3.org/1999/xlink">
    <!-- Generator: Sketch 40 (33762) - http://www.bohemiancoding.com/sketch -->
    <title>speed-grey</title>
    <desc>Created with Sketch.</desc>
    <defs></defs>
    <g id="Website-Desktop" stroke="none" stroke-width="1" fill="none" fill-rule="evenodd">
        <g id="SMS-Verify" transform="translate(-250.000000, -1348.000000)" fill="#6A7785">
            <g id="Características" transform="translate(250.000000, 1148.000000)">
                <g id="Features" transform="translate(0.000000, 200.000000)">
                    <g id="Feature">
                        <g id="speed-grey">
                            <path d="M24,0 C10.766,0 0,10.766 0,24 C0,37.234 10.766,48 24,48 C37.234,48 48,37.234 48,24 C48,10.766 37.234,0 24,0 L24,0 Z M24,46 C11.87,46 2,36.13 2,24 C2,11.87 11.87,2 24,2 C36.13,2 46,11.87 46,24 C46,36.13 36.13,46 24,46 L24,46 Z" id="Shape"></path>
                            <path d="M36.726,11.274 C36.336,10.884 35.702,10.884 35.312,11.274 L26.02,20.566 C25.424,20.214 24.74,20 24,20 C21.794,20 20,21.794 20,24 C20,26.206 21.794,28 24,28 C26.206,28 28,26.206 28,24 C28,23.262 27.784,22.576 27.434,21.98 L36.726,12.688 C37.118,12.296 37.118,11.664 36.726,11.274 L36.726,11.274 Z M24,26 C22.898,26 22,25.104 22,24 C22,22.896 22.898,22 24,22 C25.102,22 26,22.896 26,24 C26,25.104 25.102,26 24,26 L24,26 Z" id="Shape"></path>
                            <path d="M9.888,23 C9.888,22.448 9.44,22 8.888,22 L4.888,22 C4.336,22 3.888,22.448 3.888,23 C3.888,23.552 4.336,24 4.888,24 L8.888,24 C9.44,24 9.888,23.552 9.888,23 L9.888,23 Z" id="Shape"></path>
                            <path d="M9.76,28.816 L6.062,30.346 C5.552,30.556 5.31,31.14 5.52,31.652 C5.68,32.036 6.052,32.27 6.444,32.27 C6.572,32.27 6.7,32.246 6.826,32.194 L10.524,30.664 C11.034,30.454 11.276,29.87 11.066,29.358 C10.854,28.848 10.268,28.602 9.76,28.816 L9.76,28.816 Z" id="Shape"></path>
                            <path d="M41.934,30.348 L38.24,28.816 C37.73,28.604 37.144,28.846 36.934,29.358 C36.722,29.868 36.964,30.454 37.476,30.664 L41.17,32.196 C41.294,32.248 41.424,32.272 41.552,32.272 C41.944,32.272 42.316,32.04 42.476,31.654 C42.688,31.144 42.446,30.558 41.934,30.348 L41.934,30.348 Z" id="Shape"></path>
                            <path d="M43,22 L39,21.998 C38.448,21.998 38,22.446 38,22.998 C38,23.55 38.448,23.998 39,23.998 L43,24 C43.552,24 44,23.552 44,23 C44,22.448 43.55,22 43,22 L43,22 Z" id="Shape"></path>
                            <path d="M36.934,18.642 C37.094,19.026 37.466,19.26 37.858,19.26 C37.986,19.26 38.116,19.236 38.24,19.184 L41.936,17.654 C42.446,17.444 42.688,16.858 42.478,16.348 C42.268,15.838 41.682,15.594 41.172,15.806 L37.476,17.336 C36.964,17.546 36.722,18.132 36.934,18.642 L36.934,18.642 Z" id="Shape"></path>
                            <path d="M30.618,11.064 C30.742,11.118 30.872,11.14 31,11.14 C31.392,11.14 31.764,10.908 31.924,10.522 L33.456,6.828 C33.668,6.318 33.426,5.732 32.914,5.522 C32.404,5.31 31.818,5.554 31.608,6.064 L30.076,9.758 C29.864,10.268 30.106,10.854 30.618,11.064 L30.618,11.064 Z" id="Shape"></path>
                            <path d="M25,10.372 C25.552,10.372 26,9.924 26,9.372 L26,5.372 C26,4.82 25.552,4.372 25,4.372 C24.448,4.372 24,4.818 24,5.372 L24,9.372 C24,9.924 24.448,10.372 25,10.372 L25,10.372 Z" id="Shape"></path>
                            <path d="M17.336,10.524 C17.496,10.908 17.868,11.14 18.26,11.14 C18.388,11.14 18.518,11.116 18.642,11.064 C19.152,10.854 19.394,10.268 19.184,9.758 L17.654,6.062 C17.444,5.552 16.856,5.306 16.348,5.522 C15.838,5.732 15.596,6.318 15.806,6.828 L17.336,10.524 L17.336,10.524 Z" id="Shape"></path>
                            <path d="M14.1,12.686 L11.274,9.858 C10.884,9.468 10.25,9.468 9.86,9.858 C9.47,10.248 9.47,10.882 9.86,11.272 L12.686,14.1 C12.88,14.294 13.136,14.392 13.392,14.392 C13.648,14.392 13.904,14.294 14.1,14.1 C14.49,13.708 14.49,13.076 14.1,12.686 L14.1,12.686 Z" id="Shape"></path>
                            <path d="M10.524,17.336 L6.83,15.804 C6.322,15.59 5.734,15.836 5.524,16.346 C5.312,16.856 5.554,17.442 6.064,17.652 L9.758,19.184 C9.884,19.236 10.014,19.26 10.142,19.26 C10.534,19.26 10.906,19.028 11.066,18.642 C11.278,18.132 11.036,17.546 10.524,17.336 L10.524,17.336 Z" id="Shape"></path>
                            <path d="M33,32 L15,32 C14.448,32 14,32.448 14,33 L14,39 C14,39.552 14.448,40 15,40 L33,40 C33.552,40 34,39.552 34,39 L34,33 C34,32.448 33.552,32 33,32 L33,32 Z M32,38 L16,38 L16,34 L32,34 L32,38 L32,38 Z" id="Shape"></path>
                        </g>
                    </g>
                </g>
            </g>
        </g>
    </g>
</svg>