<?xml version="1.0" encoding="UTF-8" standalone="no"?>
<svg width="48px" height="48px" viewBox="0 0 48 48" version="1.1" xmlns="http://www.w3.org/2000/svg" xmlns:xlink="http://www.w3.org/1999/xlink">
    <!-- Generator: Sketch 40 (33762) - http://www.bohemiancoding.com/sketch -->
    <title>subcuentas</title>
    <desc>Created with Sketch.</desc>
    <defs></defs>
    <g id="Website-Desktop" stroke="none" stroke-width="1" fill="none" fill-rule="evenodd">
        <g id="Massive-SMS" transform="translate(-730.000000, -2477.000000)" fill="#6A7785">
            <g id="Características" transform="translate(250.000000, 2043.000000)">
                <g id="Features" transform="translate(0.000000, 200.000000)">
                    <g id="Feature" transform="translate(480.000000, 234.000000)">
                        <g id="Group">
                            <g id="subcuentas">
                                <path d="M13,6 L21.488,6 L23.096,9.424 C23.262,9.776 23.614,10 24.002,10 L35,10 C35.552,10 36,9.552 36,9 C36,8.448 35.552,8 35,8 L24.636,8 L23.028,4.576 C22.864,4.224 22.51,4 22.124,4 L13,4 C12.448,4 12,4.448 12,5 C12,5.552 12.448,6 13,6 L13,6 Z" id="Shape"></path>
                                <path d="M15,2 L23.488,2 L25.096,5.424 C25.262,5.776 25.614,6 26.002,6 L33,6 C33.552,6 34,5.552 34,5 C34,4.448 33.552,4 33,4 L26.636,4 L25.028,0.576 C24.864,0.224 24.51,0 24.124,0 L15,0 C14.448,0 14,0.448 14,1 C14,1.552 14.448,2 15,2 L15,2 Z" id="Shape"></path>
                                <path d="M47.988,32.938 C47.984,32.87 47.966,32.81 47.948,32.744 C47.93,32.678 47.914,32.616 47.884,32.554 C47.874,32.536 47.874,32.514 47.864,32.496 L40.864,20.496 C40.684,20.19 40.356,20 40,20 L38,20 L38,13 C38,12.448 37.552,12 37,12 L22.636,12 L21.028,8.576 C20.864,8.224 20.51,8 20.124,8 L11,8 C10.448,8 10,8.448 10,9 L10,20 L8,20 C7.644,20 7.316,20.19 7.136,20.496 L0.136,32.496 C0.126,32.516 0.126,32.536 0.116,32.554 C0.086,32.614 0.07,32.678 0.052,32.744 C0.034,32.81 0.016,32.87 0.012,32.938 C0.012,32.96 0,32.978 0,33 L0,47 C0,47.552 0.448,48 1,48 L47,48 C47.552,48 48,47.552 48,47 L48,33 C48,32.978 47.988,32.96 47.988,32.938 L47.988,32.938 Z M8.574,22 L10,22 L10,29 C10,29.552 10.448,30 11,30 C11.552,30 12,29.552 12,29 L12,10 L19.488,10 L21.096,13.424 C21.262,13.776 21.614,14 22.002,14 L36,14 L36,29 C36,29.552 36.448,30 37,30 C37.552,30 38,29.552 38,29 L38,22 L39.426,22 L45.26,32 L33,32 C32.448,32 32,32.448 32,33 L32,35 C32,36.654 30.654,38 29,38 L20,38 C18.346,38 17,36.654 17,35 L17,33 C17,32.448 16.552,32 16,32 L2.742,32 L8.574,22 L8.574,22 Z M46,46 L2,46 L2,34 L15,34 L15,35 C15,37.756 17.244,40 20,40 L29,40 C31.756,40 34,37.756 34,35 L34,34 L46,34 L46,46 L46,46 Z" id="Shape"></path>
                                <path d="M19,30 L31.054,30 C31.606,30 32.054,29.552 32.054,29 C32.054,26.156 30.944,24.17 28.67,22.964 C29.158,22.246 29.428,21.388 29.428,20.496 C29.428,18.07 27.454,16.098 25.028,16.098 C22.602,16.098 20.628,18.072 20.628,20.498 C20.628,21.39 20.898,22.248 21.384,22.964 C19.11,24.17 18,26.156 18,29 C18,29.552 18.448,30 19,30 L19,30 Z M23.436,24.26 C23.796,24.138 24.058,23.826 24.108,23.448 C24.158,23.07 23.994,22.698 23.68,22.486 C23.02,22.036 22.626,21.292 22.626,20.498 C22.626,19.174 23.704,18.098 25.026,18.098 C26.348,18.098 27.426,19.174 27.426,20.496 C27.426,21.29 27.032,22.036 26.372,22.486 C26.058,22.7 25.892,23.074 25.944,23.448 C25.996,23.824 26.256,24.138 26.616,24.26 C28.716,24.964 29.746,26.08 29.994,28 L20.06,28 C20.306,26.08 21.336,24.964 23.436,24.26 L23.436,24.26 Z" id="Shape"></path>
                            </g>
                        </g>
                    </g>
                </g>
            </g>
        </g>
    </g>
</svg>