<?xml version="1.0" encoding="UTF-8" standalone="no"?>
<svg width="48px" height="48px" viewBox="0 0 48 48" version="1.1" xmlns="http://www.w3.org/2000/svg" xmlns:xlink="http://www.w3.org/1999/xlink">
    <!-- Generator: Sketch 39.1 (31720) - http://www.bohemiancoding.com/sketch -->
    <title>templates</title>
    <desc>Created with Sketch.</desc>
    <defs></defs>
    <g id="Website-Desktop" stroke="none" stroke-width="1" fill="none" fill-rule="evenodd">
        <g id="Home" transform="translate(-970.000000, -1586.000000)" fill="#6A7785">
            <g id="panel-web" transform="translate(250.000000, 906.000000)">
                <g id="Feature" transform="translate(720.000000, 680.000000)">
                    <g id="email-love-letter">
                        <g id="Outline_Icons">
                            <g id="templates">
                                <path d="M47.982,22.928 C47.974,22.828 47.948,22.732 47.91,22.636 C47.892,22.59 47.88,22.544 47.854,22.502 C47.844,22.484 47.844,22.464 47.832,22.448 C47.77,22.354 47.688,22.286 47.604,22.22 C47.588,22.208 47.582,22.19 47.566,22.178 L47.55,22.168 L47.55,22.168 L40,16.974 L40,1 C40,0.448 39.552,0 39,0 L9,0 C8.448,0 8,0.448 8,1 L8,16.974 L0.452,22.164 C0.45,22.164 0.448,22.166 0.446,22.168 L0.434,22.176 C0.42,22.186 0.416,22.2 0.404,22.208 C0.316,22.274 0.232,22.348 0.168,22.444 C0.156,22.462 0.156,22.482 0.146,22.498 C0.12,22.54 0.108,22.586 0.09,22.632 C0.05,22.73 0.026,22.826 0.018,22.924 C0.016,22.954 0,22.974 0,23 L0,44 C0,46.206 1.794,48 4,48 L44,48 C46.206,48 48,46.206 48,44 L48,23 C48,22.974 47.984,22.954 47.982,22.928 L47.982,22.928 Z M45.216,22.988 L40,26.464 L40,19.402 L45.216,22.988 L45.216,22.988 Z M8,26.464 L2.784,22.986 L8,19.402 L8,26.464 L8,26.464 Z M44,46 L4,46 C2.898,46 2,45.102 2,44 L2,24.87 L12.446,31.832 C12.616,31.946 12.808,32 13,32 C13.324,32 13.64,31.844 13.834,31.554 C14.14,31.094 14.016,30.474 13.556,30.168 L10,27.798 L10,2 L38,2 L38,27.798 L34.446,30.168 C33.986,30.474 33.862,31.094 34.168,31.554 C34.36,31.844 34.678,32 35,32 C35.19,32 35.382,31.946 35.554,31.832 L46,24.87 L46,44 C46,45.102 45.102,46 44,46 L44,46 Z" id="Shape"></path>
                                <path d="M31.624,32.218 C31.448,32.078 31.228,32 31,32 L17,32 C16.772,32 16.552,32.078 16.376,32.218 L6.376,40.218 C5.946,40.564 5.876,41.192 6.22,41.624 C6.566,42.054 7.194,42.126 7.626,41.78 L17.35,34 L30.648,34 L40.374,41.782 C40.56,41.93 40.78,42 41,42 C41.294,42 41.584,41.872 41.782,41.624 C42.126,41.192 42.056,40.564 41.626,40.218 L31.624,32.218 L31.624,32.218 Z" id="Shape"></path>
                                <path d="M23.412,25.558 C23.586,25.686 23.794,25.75 24,25.75 C24.206,25.75 24.414,25.686 24.588,25.558 C25.552,24.858 34,18.564 34,13.356 C34,9.62 31.226,7.388 28.544,7.388 C27.002,7.388 25.196,8.148 24,10.122 C22.804,8.148 21,7.388 19.456,7.388 C16.774,7.386 14,9.62 14,13.356 C14,18.564 22.448,24.858 23.412,25.558 L23.412,25.558 Z M19.456,9.386 C21.144,9.386 22.478,10.748 23.028,13.03 C23.244,13.93 24.756,13.93 24.974,13.03 C25.522,10.748 26.858,9.386 28.546,9.386 C30.246,9.386 32.002,10.87 32.002,13.354 C32.002,16.646 26.686,21.428 24.002,23.498 C21.318,21.428 16.002,16.646 16.002,13.354 C16,10.872 17.756,9.386 19.456,9.386 L19.456,9.386 Z" id="Shape"></path>
                            </g>
                        </g>
                    </g>
                </g>
            </g>
        </g>
    </g>
</svg>