<?xml version="1.0" encoding="UTF-8" standalone="no"?>
<svg width="80px" height="80px" viewBox="0 0 80 80" version="1.1" xmlns="http://www.w3.org/2000/svg" xmlns:xlink="http://www.w3.org/1999/xlink">
    <!-- Generator: Sketch 40.1 (33804) - http://www.bohemiancoding.com/sketch -->
    <title>Group 7</title>
    <desc>Created with Sketch.</desc>
    <defs></defs>
    <g id="Website-Desktop" stroke="none" stroke-width="1" fill="none" fill-rule="evenodd">
        <g id="SMS-Verify" transform="translate(-1074.000000, -2218.000000)">
            <g id="How-it-works" transform="translate(250.000000, 1798.000000)">
                <g id="Steps" transform="translate(0.000000, 228.000000)">
                    <g id="Step-3" transform="translate(640.000000, 0.000000)">
                        <g id="Group-4" transform="translate(184.000000, 192.000000)">
                            <g id="Group-7">
                                <circle id="Oval-Copy" fill="#B8E986" cx="40" cy="40" r="40"></circle>
                                <g id="check-1" transform="translate(25.000000, 25.000000)" fill="#FFFFFF">
                                    <g id="Outline_Icons">
                                        <path d="M29.7390625,0.117913052 C29.4578125,-0.0845869485 29.0678125,-0.0195869485 28.8665625,0.261663052 L8.6703125,28.4129131 L1.0665625,20.8091631 C0.8228125,20.5654131 0.4265625,20.5654131 0.1828125,20.8091631 C-0.0609375,21.0529131 -0.0609375,21.4491631 0.1828125,21.6929131 L8.3078125,29.8179131 C8.4253125,29.9354131 8.5840625,30.0004131 8.7490625,30.0004131 C8.7665625,30.0004131 8.7828125,30.0004131 8.8003125,29.9991631 C8.9828125,29.9841631 9.1503125,29.8891631 9.2578125,29.7404131 L29.8828125,0.990413052 C30.0828125,0.709163052 30.0190625,0.319163052 29.7390625,0.117913052 L29.7390625,0.117913052 Z" id="Shape"></path>
                                    </g>
                                </g>
                            </g>
                        </g>
                    </g>
                </g>
            </g>
        </g>
    </g>
</svg>