<?xml version="1.0" encoding="UTF-8" standalone="no"?>
<svg width="24px" height="24px" viewBox="0 0 24 24" version="1.1" xmlns="http://www.w3.org/2000/svg" xmlns:xlink="http://www.w3.org/1999/xlink">
    <!-- Generator: Sketch 40 (33762) - http://www.bohemiancoding.com/sketch -->
    <title>verification-white</title>
    <desc>Created with Sketch.</desc>
    <defs></defs>
    <g id="Website-Desktop" stroke="none" stroke-width="1" fill="none" fill-rule="evenodd">
        <g id="SMS-Verify" transform="translate(-317.000000, -3266.000000)" fill="#FFFFFF">
            <g id="Tarifas" transform="translate(0.000000, 3052.000000)">
                <g id="Intro" transform="translate(317.000000, 120.000000)">
                    <g id="features" transform="translate(0.000000, 92.000000)">
                        <g id="Group-13">
                            <g id="verification-white" transform="translate(0.000000, 2.000000)">
                                <path d="M16.659,8.135 L9.513,14.805 L7.354,12.647 C7.159,12.452 6.842,12.452 6.647,12.647 C6.452,12.842 6.452,13.159 6.647,13.354 L9.147,15.854 C9.244,15.951 9.372,16 9.5,16 C9.623,16 9.745,15.956 9.841,15.866 L17.341,8.866 C17.543,8.678 17.553,8.361 17.365,8.159 C17.177,7.957 16.861,7.946 16.659,8.135 L16.659,8.135 Z" id="Shape"></path>
                                <path d="M24,12 C24,11.1 23.519,10.295 22.78,9.856 C23.292,9.167 23.429,8.24 23.087,7.408 C22.746,6.584 22.003,6.017 21.138,5.893 C21.349,5.06 21.12,4.151 20.483,3.514 C19.864,2.895 18.939,2.651 18.105,2.86 C17.981,2.01 17.421,1.258 16.589,0.913 C15.773,0.574 14.819,0.71 14.141,1.218 C13.702,0.48 12.898,0 12,0 C11.101,0 10.295,0.481 9.854,1.219 C9.177,0.711 8.222,0.577 7.406,0.914 C6.574,1.258 6.015,2.011 5.891,2.861 C5.06,2.652 4.132,2.896 3.513,3.515 C2.876,4.151 2.647,5.06 2.858,5.894 C1.996,6.018 1.255,6.585 0.914,7.408 C0.569,8.24 0.705,9.167 1.217,9.856 C0.48,10.295 0,11.1 0,12 C0,12.9 0.48,13.706 1.217,14.145 C0.705,14.834 0.569,15.762 0.913,16.595 C1.254,17.416 1.996,17.983 2.859,18.107 C2.649,18.94 2.877,19.849 3.513,20.486 C4.132,21.105 5.056,21.351 5.891,21.141 C6.016,21.991 6.575,22.743 7.406,23.087 C8.222,23.425 9.176,23.29 9.855,22.783 C10.295,23.52 11.101,24 12,24 C12.898,24 13.702,23.52 14.142,22.783 C14.82,23.29 15.771,23.425 16.591,23.087 C17.422,22.743 17.981,21.991 18.105,21.14 C18.938,21.35 19.864,21.106 20.483,20.486 C21.119,19.85 21.348,18.941 21.138,18.108 C22.002,17.984 22.745,17.417 23.087,16.594 C23.432,15.763 23.295,14.835 22.78,14.145 C23.519,13.706 24,12.9 24,12 L24,12 Z M21.775,13.471 C21.574,13.509 21.416,13.664 21.376,13.865 C21.336,14.066 21.422,14.27 21.593,14.382 C22.199,14.777 22.439,15.546 22.163,16.211 C21.891,16.867 21.165,17.253 20.467,17.102 C20.267,17.06 20.061,17.142 19.947,17.312 C19.833,17.482 19.835,17.705 19.95,17.874 C20.358,18.47 20.285,19.27 19.775,19.78 C19.276,20.278 18.447,20.351 17.87,19.954 C17.702,19.839 17.479,19.836 17.309,19.95 C17.139,20.064 17.055,20.269 17.097,20.47 C17.246,21.176 16.871,21.888 16.207,22.164 C15.546,22.438 14.762,22.188 14.379,21.597 C14.267,21.426 14.063,21.337 13.862,21.379 C13.662,21.419 13.506,21.577 13.468,21.778 C13.337,22.486 12.72,23 12,23 C11.279,23 10.659,22.486 10.527,21.776 C10.489,21.575 10.333,21.417 10.132,21.378 C10.099,21.371 10.067,21.368 10.035,21.368 C9.868,21.368 9.709,21.452 9.616,21.596 C9.233,22.187 8.45,22.438 7.789,22.163 C7.123,21.887 6.748,21.175 6.897,20.471 C6.939,20.27 6.855,20.065 6.686,19.951 C6.517,19.837 6.295,19.839 6.125,19.954 C5.545,20.351 4.716,20.276 4.22,19.779 C3.711,19.269 3.637,18.467 4.045,17.873 C4.16,17.705 4.162,17.482 4.048,17.312 C3.935,17.143 3.731,17.059 3.529,17.102 C2.83,17.249 2.109,16.867 1.837,16.212 C1.562,15.545 1.799,14.776 2.403,14.382 C2.574,14.27 2.66,14.066 2.62,13.865 C2.58,13.664 2.422,13.509 2.222,13.471 C1.514,13.339 1,12.721 1,12 C1,11.279 1.514,10.66 2.221,10.529 C2.422,10.491 2.58,10.336 2.62,10.135 C2.66,9.934 2.574,9.73 2.402,9.619 C1.799,9.226 1.562,8.457 1.838,7.791 C2.11,7.135 2.832,6.752 3.529,6.9 C3.73,6.942 3.935,6.859 4.049,6.689 C4.163,6.519 4.161,6.297 4.046,6.128 C3.637,5.533 3.71,4.731 4.22,4.223 C4.718,3.724 5.547,3.65 6.125,4.047 C6.295,4.163 6.516,4.164 6.686,4.05 C6.856,3.936 6.939,3.731 6.897,3.531 C6.748,2.825 7.123,2.113 7.788,1.838 C8.448,1.564 9.232,1.814 9.616,2.405 C9.727,2.577 9.931,2.663 10.133,2.624 C10.333,2.584 10.489,2.426 10.528,2.226 C10.66,1.515 11.279,1 12,1 C12.719,1 13.337,1.515 13.469,2.224 C13.507,2.425 13.663,2.583 13.863,2.622 C14.066,2.666 14.268,2.577 14.38,2.405 C14.764,1.814 15.546,1.564 16.207,1.838 C16.874,2.114 17.249,2.827 17.099,3.531 C17.057,3.731 17.14,3.937 17.31,4.051 C17.48,4.164 17.701,4.163 17.871,4.048 C18.449,3.652 19.278,3.725 19.777,4.222 C20.287,4.732 20.36,5.534 19.952,6.128 C19.836,6.296 19.835,6.519 19.949,6.689 C20.062,6.858 20.266,6.942 20.469,6.9 C21.168,6.747 21.893,7.134 22.164,7.79 C22.438,8.456 22.199,9.226 21.595,9.619 C21.424,9.731 21.338,9.935 21.378,10.136 C21.418,10.336 21.576,10.493 21.777,10.53 C22.485,10.661 23,11.279 23,12 C23,12.721 22.485,13.339 21.775,13.471 L21.775,13.471 Z" id="Shape"></path>
                            </g>
                        </g>
                    </g>
                </g>
            </g>
        </g>
    </g>
</svg>