<?xml version="1.0" encoding="UTF-8" standalone="no"?>
<svg width="80px" height="80px" viewBox="0 0 80 80" version="1.1" xmlns="http://www.w3.org/2000/svg" xmlns:xlink="http://www.w3.org/1999/xlink">
    <!-- Generator: Sketch 40.1 (33804) - http://www.bohemiancoding.com/sketch -->
    <title>Group 8</title>
    <desc>Created with Sketch.</desc>
    <defs></defs>
    <g id="Website-Desktop" stroke="none" stroke-width="1" fill="none" fill-rule="evenodd">
        <g id="SMS-Verify" transform="translate(-1154.000000, -2218.000000)">
            <g id="How-it-works" transform="translate(250.000000, 1798.000000)">
                <g id="Steps" transform="translate(0.000000, 228.000000)">
                    <g id="Step-3" transform="translate(640.000000, 0.000000)">
                        <g id="Group-4" transform="translate(184.000000, 192.000000)">
                            <g id="Group-6" transform="translate(80.000000, 0.000000)">
                                <g id="Group-8">
                                    <circle id="Oval-Copy-2" fill="#D0011B" cx="40" cy="40" r="40"></circle>
                                    <g id="check-1-copy-2" transform="translate(40.000000, 41.875000) scale(-1, 1) translate(-40.000000, -41.875000) translate(28.750000, 26.250000)" fill="#FFFFFF">
                                        <g id="Outline_Icons">
                                            <path d="M21.3665625,0.261663052 L1.1703125,28.4129131 C1.1703125,28.4129131 -0.109100342,29.8591614 0.321655273,30.2172852 C0.941543579,30.7843781 1.96891602,29.310127 2.07641602,29.161377 L22.3828125,0.990413052 C22.5828125,0.709163052 22.5190625,0.319163052 22.2390625,0.117913052 C21.9578125,-0.0845869485 21.5678125,-0.0195869485 21.3665625,0.261663052 Z" id="-"></path>
                                        </g>
                                    </g>
                                    <g id="check-1-copy" transform="translate(28.750000, 26.250000)" fill="#FFFFFF">
                                        <g id="Outline_Icons">
                                            <path d="M21.3665625,0.261663052 L1.1703125,28.4129131 C1.1703125,28.4129131 -0.109100342,29.8591614 0.321655273,30.2172852 C0.941543579,30.7843781 1.96891602,29.310127 2.07641602,29.161377 L22.3828125,0.990413052 C22.5828125,0.709163052 22.5190625,0.319163052 22.2390625,0.117913052 C21.9578125,-0.0845869485 21.5678125,-0.0195869485 21.3665625,0.261663052 Z" id="-"></path>
                                        </g>
                                    </g>
                                </g>
                            </g>
                        </g>
                    </g>
                </g>
            </g>
        </g>
    </g>
</svg>