<?xml version="1.0" encoding="UTF-8" standalone="no"?>
<svg width="48px" height="48px" viewBox="0 0 48 48" version="1.1" xmlns="http://www.w3.org/2000/svg" xmlns:xlink="http://www.w3.org/1999/xlink">
    <!-- Generator: Sketch 40 (33762) - http://www.bohemiancoding.com/sketch -->
    <title>Group</title>
    <desc>Created with Sketch.</desc>
    <defs></defs>
    <g id="Website-Desktop" stroke="none" stroke-width="1" fill="none" fill-rule="evenodd">
        <g id="Pricing" transform="translate(-490.000000, -1446.000000)" fill="#6A7785">
            <g id="Características" transform="translate(250.000000, 1446.000000)">
                <g id="Features">
                    <g id="Feature" transform="translate(240.000000, 0.000000)">
                        <g id="Group">
                            <path d="M35,22 C27.832,22 22,27.832 22,35 C22,42.168 27.832,48 35,48 C42.168,48 48,42.168 48,35 C48,27.832 42.168,22 35,22 L35,22 Z M35,46 C28.936,46 24,41.064 24,35 C24,28.936 28.936,24 35,24 C41.064,24 46,28.936 46,35 C46,41.064 41.064,46 35,46 L35,46 Z" id="Shape"></path>
                            <path d="M35,30.292 C35.982,30.292 36.782,31.09 36.782,32.074 C36.782,32.626 37.23,33.074 37.782,33.074 C38.334,33.074 38.782,32.626 38.782,32.074 C38.782,30.336 37.598,28.886 36,28.446 L36,27.44 C36,26.888 35.552,26.44 35,26.44 C34.448,26.44 34,26.888 34,27.44 L34,28.446 C32.402,28.888 31.218,30.336 31.218,32.074 C31.218,34.16 32.914,35.858 35,35.858 C35.982,35.858 36.782,36.658 36.782,37.642 C36.782,38.626 35.984,39.424 35,39.424 C34.016,39.424 33.218,38.626 33.218,37.642 C33.218,37.09 32.77,36.642 32.218,36.642 C31.666,36.642 31.218,37.09 31.218,37.642 C31.218,39.38 32.402,40.83 34,41.27 L34,42.276 C34,42.828 34.448,43.276 35,43.276 C35.552,43.276 36,42.828 36,42.276 L36,41.27 C37.598,40.828 38.782,39.38 38.782,37.642 C38.782,35.556 37.086,33.858 35,33.858 C34.018,33.858 33.218,33.058 33.218,32.074 C33.218,31.09 34.018,30.292 35,30.292 L35,30.292 Z" id="Shape"></path>
                            <path d="M2,2 L22,2 L22,11 C22,11.552 22.448,12 23,12 L32,12 L32,20 L34,20 L34,11 C34,10.868 33.972,10.736 33.922,10.616 C33.872,10.492 33.798,10.384 33.706,10.294 L23.71,0.294 C23.618,0.204 23.508,0.13 23.386,0.08 C23.264,0.028 23.132,0 23,0 L1,0 C0.448,0 0,0.448 0,1 L0,43 C0,43.552 0.448,44 1,44 L22,44 L22,42 L2,42 L2,2 L2,2 Z M24,3.414 L30.586,10 L24,10 L24,3.414 L24,3.414 Z" id="Shape"></path>
                            <path d="M15,14 L11,14 C10.448,14 10,14.448 10,15 L10,24 L7,24 C6.448,24 6,24.448 6,25 L6,32 L5,32 C4.448,32 4,32.448 4,33 C4,33.552 4.448,34 5,34 L7,34 L11,34 L15,34 L19,34 C19.552,34 20,33.552 20,33 L20,21 C20,20.448 19.552,20 19,20 L16,20 L16,15 C16,14.448 15.552,14 15,14 L15,14 Z M8,26 L10,26 L10,32 L8,32 L8,26 L8,26 Z M12,25 L12,16 L14,16 L14,21 L14,32 L12,32 L12,25 L12,25 Z M18,22 L18,32 L16,32 L16,22 L18,22 L18,22 Z" id="Shape"></path>
                        </g>
                    </g>
                </g>
            </g>
        </g>
    </g>
</svg>