<?xml version="1.0" encoding="UTF-8" standalone="no"?>
<svg width="48px" height="48px" viewBox="0 0 48 48" version="1.1" xmlns="http://www.w3.org/2000/svg" xmlns:xlink="http://www.w3.org/1999/xlink">
    <!-- Generator: Sketch 40 (33762) - http://www.bohemiancoding.com/sketch -->
    <title>whitelabeled-grey</title>
    <desc>Created with Sketch.</desc>
    <defs></defs>
    <g id="Website-Desktop" stroke="none" stroke-width="1" fill="none" fill-rule="evenodd">
        <g id="SMS-Verify" transform="translate(-730.000000, -1348.000000)" fill="#6A7785">
            <g id="Características" transform="translate(250.000000, 1148.000000)">
                <g id="Features" transform="translate(0.000000, 200.000000)">
                    <g id="Feature" transform="translate(480.000000, 0.000000)">
                        <g id="Group">
                            <g id="whitelabeled-grey">
                                <path d="M47,2 L24,2 L24,1 C24,0.448 23.552,0 23,0 L7,0 C6.448,0 6,0.448 6,1 L6,2 L1,2 C0.448,2 0,2.448 0,3 L0,47 C0,47.552 0.448,48 1,48 L47,48 C47.552,48 48,47.552 48,47 L48,3 C48,2.448 47.552,2 47,2 L47,2 Z M8,2 L22,2 L22,24.586 L15.708,18.292 C15.512,18.098 15.256,18 15,18 C14.744,18 14.488,18.098 14.292,18.292 L8,24.586 L8,2 L8,2 Z M46,46 L2,46 L2,4 L6,4 L6,27 C6,27.404 6.244,27.77 6.618,27.924 C6.99,28.078 7.42,27.994 7.708,27.708 L15,20.414 L22.292,27.706 C22.484,27.898 22.74,28 23,28 C23.128,28 23.26,27.974 23.382,27.924 C23.756,27.77 24,27.404 24,27 L24,4 L46,4 L46,46 L46,46 Z" id="Shape"></path>
                                <path d="M29,16 L41,16 C41.552,16 42,15.552 42,15 C42,14.448 41.552,14 41,14 L29,14 C28.448,14 28,14.448 28,15 C28,15.552 28.448,16 29,16 L29,16 Z" id="Shape"></path>
                                <path d="M29,22 L41,22 C41.552,22 42,21.552 42,21 C42,20.448 41.552,20 41,20 L29,20 C28.448,20 28,20.448 28,21 C28,21.552 28.448,22 29,22 L29,22 Z" id="Shape"></path>
                                <path d="M41,26 L29,26 C28.448,26 28,26.448 28,27 C28,27.552 28.448,28 29,28 L41,28 C41.552,28 42,27.552 42,27 C42,26.448 41.552,26 41,26 L41,26 Z" id="Shape"></path>
                                <path d="M41,32 L7,32 C6.448,32 6,32.448 6,33 C6,33.552 6.448,34 7,34 L41,34 C41.552,34 42,33.552 42,33 C42,32.448 41.552,32 41,32 L41,32 Z" id="Shape"></path>
                                <path d="M33,38 L7,38 C6.448,38 6,38.448 6,39 C6,39.552 6.448,40 7,40 L33,40 C33.552,40 34,39.552 34,39 C34,38.448 33.552,38 33,38 L33,38 Z" id="Shape"></path>
                            </g>
                        </g>
                    </g>
                </g>
            </g>
        </g>
    </g>
</svg>